<svg width="160" height="160" viewBox="0 0 160 160" fill="none" xmlns="http://www.w3.org/2000/svg">
<path d="M139 39H21V134H139V39Z" fill="#E6E6E6"/>
<path d="M31.1937 49.698C32.4328 49.698 33.4372 48.6935 33.4372 47.4545C33.4372 46.2154 32.4328 45.2109 31.1937 45.2109C29.9547 45.2109 28.9502 46.2154 28.9502 47.4545C28.9502 48.6935 29.9547 49.698 31.1937 49.698Z" fill="#4EA8DC"/>
<path d="M37.871 49.698C39.11 49.698 40.1145 48.6935 40.1145 47.4545C40.1145 46.2154 39.11 45.2109 37.871 45.2109C36.6319 45.2109 35.6274 46.2154 35.6274 47.4545C35.6274 48.6935 36.6319 49.698 37.871 49.698Z" fill="#34C672"/>
<path d="M44.1644 49.698C45.4035 49.698 46.4079 48.6935 46.4079 47.4545C46.4079 46.2154 45.4035 45.2109 44.1644 45.2109C42.9254 45.2109 41.9209 46.2154 41.9209 47.4545C41.9209 48.6935 42.9254 49.698 44.1644 49.698Z" fill="#E85559"/>
<path opacity="0.08" d="M85.1448 71.0458C85.1448 71.0458 90.1272 70.0066 87.6603 78.8156C85.1934 87.6245 88.0002 96.4626 94.9735 97.8272C101.947 99.1917 111.97 102.8 113.674 113.745C115.379 124.691 106.876 134.491 106.876 134.491H75.0781L78.3123 80.2335C78.3123 80.2335 77.5305 69.7735 85.1448 71.0458Z" fill="black"/>
<path d="M82.8481 74.0525C82.8481 74.0525 83.0132 77.6217 82.314 79.9624C82.2467 80.1894 82.1352 80.4009 81.9857 80.5845C81.8363 80.7682 81.6519 80.9204 81.4433 81.0324C81.2347 81.1443 81.006 81.2139 80.7703 81.2369C80.5347 81.26 80.2968 81.2361 80.0704 81.1667C78.9001 80.7976 77.419 79.9624 77.0985 78.0588L76.1564 74.8975C76.0346 74.244 76.1186 73.5688 76.397 72.9651C76.6754 72.3614 77.1343 71.859 77.7104 71.5273C79.7839 70.1676 82.8578 71.8818 82.8481 74.0525Z" fill="#F4A28C"/>
<path d="M76.4038 76.5186L75.0781 88.1586L81.5416 88.4306L79.9148 79.8547L76.4038 76.5186Z" fill="#F4A28C"/>
<path d="M81.9498 74.1736C80.8458 74.1706 79.7459 74.0402 78.6719 73.7852C78.9702 74.2839 79.1162 74.8589 79.0921 75.4395C79.0679 76.0202 78.8746 76.5811 78.5359 77.0533C78.2159 77.5162 77.745 77.8535 77.2038 78.0076C76.6626 78.1617 76.0847 78.1231 75.5688 77.8983L75.8117 73.3141C75.8259 72.6574 76.017 72.0167 76.3648 71.4594C76.7126 70.9022 77.2043 70.4491 77.7881 70.1479C78.2945 69.8858 78.8167 69.6555 79.3517 69.4584C80.6969 68.9728 82.5956 69.944 83.8145 69.1039C83.9375 69.0201 84.0801 68.9696 84.2284 68.9571C84.3768 68.9447 84.5258 68.9707 84.6611 69.0328C84.7964 69.0948 84.9133 69.1907 85.0007 69.3112C85.088 69.4317 85.1428 69.5727 85.1596 69.7206C85.3053 71.124 84.9654 73.3141 83.0472 73.9988C82.6937 74.1178 82.3228 74.1769 81.9498 74.1736Z" fill="#24285B"/>
<path d="M78.9295 76.9656C78.9295 76.9656 78.9586 75.5913 77.9194 75.6545C76.8802 75.7176 76.8268 77.7037 78.2254 77.9465L78.9295 76.9656Z" fill="#F4A28C"/>
<path d="M82.8338 76.3154L83.7759 77.7334C83.8282 77.814 83.8594 77.9065 83.8666 78.0023C83.8738 78.0981 83.8568 78.1942 83.8171 78.2818C83.7775 78.3693 83.7165 78.4455 83.6397 78.5032C83.5629 78.561 83.4728 78.5985 83.3777 78.6124L82.0034 78.8163L82.8338 76.3154Z" fill="#F4A28C"/>
<path opacity="0.31" d="M80.0703 81.176L77.4868 79.4375C77.4868 79.4375 77.5791 81.6033 80.4005 83.0747L80.0703 81.176Z" fill="#CE8172"/>
<path d="M53.969 102.422C54.1442 98.6766 55.7198 95.1334 58.3838 92.4946C61.0478 89.8558 64.6057 88.3139 68.3528 88.1743C81.5 87 86.4952 86.1105 96.0714 91.1948C109.766 98.479 94.6145 134.492 94.6145 134.492L62.9868 134.871C62.9868 134.871 53.1095 120.768 53.969 102.422Z" fill="#3374B9"/>
<path d="M149.708 94.5342H128.796C127.691 94.5342 126.796 95.4296 126.796 96.5342V110.72C126.796 111.825 127.691 112.72 128.796 112.72H149.708C150.812 112.72 151.708 111.825 151.708 110.72V96.5342C151.708 95.4296 150.812 94.5342 149.708 94.5342Z" fill="#34C672"/>
<path d="M155 25H106.852V80.816H155V25Z" fill="#F7F7F7"/>
<path d="M130.6 42C130.528 42 130.457 42.0197 130.394 42.0569C130.332 42.0942 130.281 42.1477 130.247 42.2117L127.047 48.2125C127.015 48.2735 126.998 48.3418 127 48.4109C127.002 48.4799 127.022 48.5474 127.057 48.6066C127.093 48.6658 127.143 48.7148 127.203 48.7489C127.263 48.7829 127.331 48.8008 127.4 48.8008H129.334L128.605 53.5399C128.592 53.6265 128.607 53.7149 128.649 53.7917C128.691 53.8685 128.757 53.9294 128.837 53.9651C128.917 54.0009 129.006 54.0094 129.092 53.9895C129.177 53.9695 129.253 53.9222 129.309 53.8548L134.909 47.054C134.957 46.9955 134.988 46.9245 134.997 46.8493C135.006 46.7742 134.994 46.6979 134.962 46.6294C134.929 46.5609 134.878 46.503 134.814 46.4624C134.75 46.4218 134.676 46.4002 134.601 46.4001H132.074L134.151 42.5915C134.184 42.5306 134.201 42.4622 134.2 42.3928C134.199 42.3235 134.179 42.2557 134.144 42.1961C134.109 42.1365 134.058 42.087 133.998 42.0527C133.938 42.0183 133.87 42.0002 133.8 42.0001L130.6 42Z" fill="#EB7500"/>
<path opacity="0.08" d="M139.252 80.9033H106.852V87.0754H139.252V80.9033Z" fill="black"/>
<path d="M137.62 107.171H137.586C137.48 107.166 137.377 107.138 137.283 107.09C137.189 107.041 137.107 106.972 137.042 106.889L134.571 103.708C134.512 103.632 134.469 103.546 134.444 103.453C134.418 103.36 134.412 103.264 134.424 103.169C134.436 103.074 134.467 102.982 134.515 102.898C134.562 102.815 134.626 102.742 134.702 102.683C134.778 102.625 134.864 102.582 134.957 102.557C135.049 102.531 135.146 102.525 135.241 102.537C135.336 102.549 135.428 102.58 135.511 102.627C135.595 102.675 135.668 102.739 135.726 102.815L137.669 105.311L142.457 100.139C142.516 100.053 142.592 99.9815 142.681 99.9281C142.771 99.8746 142.87 99.8408 142.973 99.829C143.076 99.8171 143.181 99.8275 143.28 99.8593C143.379 99.8912 143.469 99.9438 143.546 100.014C143.623 100.084 143.684 100.169 143.725 100.264C143.766 100.36 143.787 100.463 143.785 100.567C143.783 100.671 143.758 100.773 143.714 100.866C143.669 100.96 143.605 101.043 143.525 101.11L138.154 106.937C138.086 107.011 138.003 107.069 137.911 107.109C137.82 107.149 137.72 107.17 137.62 107.171V107.171Z" fill="white"/>
<path d="M131.448 62.1199C128.547 62.1208 125.711 61.2616 123.299 59.6507C120.887 58.0398 119.006 55.7497 117.896 53.07C116.785 50.3904 116.494 47.4415 117.059 44.5964C117.624 41.7512 119.021 39.1377 121.072 37.0862C123.122 35.0347 125.735 33.6375 128.58 33.0712C131.425 32.505 134.374 32.7951 137.054 33.9049C139.734 35.0148 142.025 36.8945 143.637 39.3063C145.248 41.7181 146.109 44.5537 146.109 47.4545C146.105 51.342 144.559 55.0692 141.811 57.8185C139.062 60.5678 135.336 62.1147 131.448 62.1199ZM131.448 36.7468C129.328 36.7468 127.256 37.3758 125.494 38.5542C123.731 39.7326 122.358 41.4074 121.548 43.3666C120.738 45.3257 120.528 47.4812 120.944 49.56C121.359 51.6388 122.382 53.5475 123.884 55.0446C125.385 56.5416 127.296 57.5595 129.376 57.9696C131.456 58.3796 133.611 58.1633 135.568 57.348C137.525 56.5328 139.196 55.1552 140.369 53.3897C141.543 51.6242 142.166 49.5502 142.161 47.4302C142.15 44.5949 141.018 41.8791 139.01 39.8769C137.002 37.8748 134.283 36.7493 131.448 36.7468Z" fill="#FF9124"/>
<path d="M131.448 62.1197C127.868 62.119 124.412 60.806 121.735 58.429L124.353 55.4717C126.309 57.2061 128.833 58.1648 131.448 58.1668V62.1197Z" fill="#FFC489"/>
<path d="M96.0759 91.1943C96.0759 91.1943 112.65 100.008 109.333 120.156C106.016 140.304 60.6167 117.864 60.6167 117.864L62.3989 111.983C62.3989 111.983 83.3141 118.884 95.5612 117.354C95.5466 117.354 79.7594 92.8406 96.0759 91.1943Z" fill="#3374B9"/>
<path opacity="0.08" d="M69.479 96.4291C69.479 96.4291 76.7631 102.29 73.0288 112.109C69.2945 121.928 84.7223 128.135 96.8237 128.552L94.6044 134.491L62.9767 134.87C62.9767 134.87 59.9756 129.412 58.8247 127.139C57.6738 124.866 52.9586 95.1616 69.479 96.4291Z" fill="black"/>
<path opacity="0.08" d="M76.7681 112.458C76.7681 112.458 91.5355 101.289 103.049 102.552C103.049 102.552 105.934 106.995 99.6014 108.379C93.2691 109.763 86.0432 115.119 86.0432 115.119L76.7681 112.458Z" fill="black"/>
<path opacity="0.39" d="M96.0759 91.1943C96.0759 91.1943 112.65 100.008 109.333 120.156C106.016 140.304 60.6167 117.864 60.6167 117.864L62.3989 111.983C62.3989 111.983 83.3141 118.884 95.5612 117.354C95.5466 117.354 79.7594 92.8406 96.0759 91.1943Z" fill="white"/>
<path d="M146.108 47.4545H142.165C142.155 44.6192 141.022 41.9034 139.014 39.9012C137.007 37.8991 134.288 36.7736 131.453 36.7711V32.7939C135.338 32.8004 139.063 34.3472 141.81 37.0953C144.558 39.8434 146.103 43.5687 146.108 47.4545V47.4545Z" fill="#EB7500"/>
<path d="M131.448 62.1195V58.1666C134.289 58.1654 137.013 57.0365 139.023 55.0279C141.032 53.0193 142.163 50.2953 142.165 47.4541H146.113C146.108 51.342 144.561 55.0692 141.812 57.8184C139.063 60.5676 135.336 62.1144 131.448 62.1195V62.1195Z" fill="#FFDEBD"/>
<path d="M137.723 67.6514H125.164C124.059 67.6514 123.164 68.5468 123.164 69.6514V72.4888C123.164 73.5933 124.059 74.4888 125.164 74.4888H137.723C138.827 74.4888 139.723 73.5933 139.723 72.4888V69.6514C139.723 68.5468 138.827 67.6514 137.723 67.6514Z" fill="#3373BA"/>
<path d="M62.1466 89.7764C62.1466 89.7764 45.5728 98.5902 48.8895 118.743C52.2062 138.896 97.6058 116.446 97.6058 116.446L95.8237 110.565C95.8237 110.565 74.9084 117.466 62.6614 115.936C62.6614 115.936 78.4631 91.4226 62.1466 89.7764Z" fill="#3374B9"/>
<path opacity="0.39" d="M62.1466 89.7764C62.1466 89.7764 45.5728 98.5902 48.8895 118.743C52.2062 138.896 97.6058 116.446 97.6058 116.446L95.8237 110.565C95.8237 110.565 74.9084 117.466 62.6614 115.936C62.6614 115.936 78.4631 91.4226 62.1466 89.7764Z" fill="white"/>
<path d="M96.1006 111.483C96.1006 111.483 101.35 109.73 102.899 113.216C104.448 116.703 97.6254 116.446 97.6254 116.446L96.1006 111.483Z" fill="#F4A28C"/>
<path d="M72.354 87.9648C72.354 87.9648 71.7178 85.2017 74.3984 85.0512C77.079 84.9006 84.0038 83.0116 85.1935 87.6055L72.354 87.9648Z" fill="#3374B9"/>
<path opacity="0.08" d="M44.5335 65.417H20.8018V90.7124H44.5335V65.417Z" fill="black"/>
<path opacity="0.39" d="M72.354 87.9648C72.354 87.9648 71.7178 85.2017 74.3984 85.0512C77.079 84.9006 84.0038 83.0116 85.1935 87.6055L72.354 87.9648Z" fill="white"/>
<path d="M39.1822 65.417H7.16113V85.8223H39.1822V65.417Z" fill="#34C672"/>
<path d="M17.8199 77.3535H13.4785V81.6949H17.8199V77.3535Z" fill="white" fill-opacity="0.32"/>
<path d="M25.1431 72.6865H20.8018V81.6946H25.1431V72.6865Z" fill="white" fill-opacity="0.64"/>
<path d="M32.8643 69.5498H28.5229V81.6949H32.8643V69.5498Z" fill="white"/>
<path d="M33.4422 107.933H5V127.318H33.4422V107.933Z" fill="#4EA8DC" fill-opacity="0.32"/>
<path d="M5 107.933L19.2186 121.539L33.4373 107.933H5Z" fill="#4EA8DC"/>
<path opacity="0.08" d="M39.1823 107.933H33.4375V122.486H39.1823V107.933Z" fill="black"/>
</svg>
