<svg width="160" height="160" viewBox="0 0 160 160" fill="none" xmlns="http://www.w3.org/2000/svg">
<path d="M59.1603 61.0874H37.2271V81.3186H59.1603V61.0874Z" fill="#EB7500"/>
<path opacity="0.44" d="M50.2484 61.0874H46.2065V67.0028H50.2484V61.0874Z" fill="white"/>
<path d="M55.9804 74.4136H51.8989V78.495H55.9804V74.4136Z" fill="white"/>
<path d="M121.423 81.2568H34.2174C29.7845 81.2568 26.1909 84.8504 26.1909 89.2833C26.1909 93.7163 29.7845 97.3099 34.2174 97.3099H121.423C125.856 97.3099 129.449 93.7163 129.449 89.2833C129.449 84.8504 125.856 81.2568 121.423 81.2568Z" fill="#E6E6E6"/>
<path opacity="0.45" d="M77 126C116.212 126 148 123.09 148 119.5C148 115.91 116.212 113 77 113C37.7878 113 6 115.91 6 119.5C6 123.09 37.7878 126 77 126Z" fill="#E6E6E6"/>
<path d="M60.1853 59.5786C60.1853 59.5786 44.5853 77.536 56.0775 83.5438C64.0204 87.6956 72.8518 81.9737 72.8518 81.9737L60.1853 59.5786Z" fill="#3374B9"/>
<path opacity="0.08" d="M60.1853 59.5786C60.1853 59.5786 44.5853 77.536 56.0775 83.5438C64.0204 87.6956 72.8518 81.9737 72.8518 81.9737L60.1853 59.5786Z" fill="black"/>
<path d="M87.369 117.286L89.4713 118.931C89.5495 118.996 89.6059 119.083 89.6331 119.181C89.6603 119.278 89.6569 119.382 89.6233 119.478C89.5898 119.574 89.5278 119.657 89.4456 119.716C89.3634 119.776 89.2649 119.809 89.1634 119.811H86.5246C86.3377 119.811 86.1526 119.774 85.9799 119.702C85.8073 119.63 85.6505 119.525 85.5185 119.393C85.3866 119.261 85.282 119.104 85.2109 118.931C85.1398 118.758 85.1034 118.573 85.104 118.386V117.277L87.369 117.286Z" fill="#24285B"/>
<path d="M64.9263 117.286L62.824 118.931C62.7458 118.996 62.6894 119.083 62.6622 119.181C62.635 119.278 62.6384 119.382 62.6719 119.478C62.7055 119.574 62.7675 119.657 62.8497 119.716C62.9319 119.776 63.0304 119.809 63.1318 119.811H65.7927C66.1687 119.813 66.5303 119.666 66.7982 119.402C67.0662 119.139 67.2186 118.779 67.2221 118.403V117.295L64.9263 117.286Z" fill="#24285B"/>
<path d="M73.4673 56.8298L73.8191 50.8572C73.8191 50.8572 74.2589 47.0221 76.1677 47.717C78.0765 48.4119 80.0864 52.1855 79.0529 53.3598C78.4943 53.9931 77.9094 53.606 77.1573 53.6764C76.5108 53.738 76.6251 53.6412 76.6251 54.2877V56.566L73.4673 56.8298Z" fill="#F4A28C"/>
<path d="M71.5586 56.5177C71.5586 56.5177 59.6046 55.4534 58.0433 63.5195C56.482 71.5856 67.6047 86.8293 67.6047 86.8293L83.1036 86.2268C83.1036 86.2268 107.188 52.3923 71.5586 56.5177Z" fill="#3374B9"/>
<path opacity="0.08" d="M82.1003 59.7764C82.1003 59.7764 72.8335 65.3707 77.3811 73.8898C80.3015 79.3567 72.8335 86.6443 72.8335 86.6443L83.103 86.2441C83.103 86.2441 86.8678 80.6629 87.6199 78.4902C88.3719 76.3176 82.1003 59.7764 82.1003 59.7764Z" fill="black"/>
<path d="M67.6034 86.8247L64.085 117.29H67.5287L75.2209 92.8369L83.8896 117.295H87.8346L83.1067 86.2222L67.6034 86.8247Z" fill="#24285B"/>
<path d="M73.4676 54.3363H75.3324C75.3324 54.3363 75.737 50.8926 77.0564 50.2329C78.3759 49.5731 79.6953 48.3285 78.521 47.1894C77.3467 46.0503 75.6842 44.7352 73.7315 46.0899C71.7787 47.4445 71.0882 50.7079 73.4676 54.3363Z" fill="#24285B"/>
<path d="M71.2242 49.4278L81.4189 49.9248L80.2578 48.2096C80.2578 48.2096 79.6245 44.1853 77.3023 43.5872C74.9801 42.989 70.9251 44.3348 71.2242 49.4278Z" fill="#2FBECC"/>
<path d="M40.6697 39H14.3208V118.553H40.6697V39Z" fill="#E6E6E6"/>
<path opacity="0.08" d="M44.5676 81.2568H40.6753V97.3099H44.5676V81.2568Z" fill="black"/>
<path d="M35.8851 47.6333H19.1152V70.4154H35.8851V47.6333Z" fill="#103F73"/>
<path d="M24.31 56.9881C25.5974 56.9881 26.641 55.9445 26.641 54.6572C26.641 53.3698 25.5974 52.3262 24.31 52.3262C23.0226 52.3262 21.979 53.3698 21.979 54.6572C21.979 55.9445 23.0226 56.9881 24.31 56.9881Z" fill="#2FBECC"/>
<path d="M24.31 64.4559C25.5974 64.4559 26.641 63.4123 26.641 62.1249C26.641 60.8376 25.5974 59.7939 24.31 59.7939C23.0226 59.7939 21.979 60.8376 21.979 62.1249C21.979 63.4123 23.0226 64.4559 24.31 64.4559Z" fill="#3373BA"/>
<path opacity="0.17" d="M33.321 52.3262H28.8833V64.4517H33.321V52.3262Z" fill="white"/>
<path d="M120.25 61.0874H98.3164V81.3186H120.25V61.0874Z" fill="#EB7500"/>
<path opacity="0.44" d="M111.344 61.0874H107.302V67.0028H111.344V61.0874Z" fill="white"/>
<path d="M117.07 74.4136H112.988V78.495H117.07V74.4136Z" fill="white"/>
<path d="M154 98.3652H132.066V118.596H154V98.3652Z" fill="#EB7500"/>
<path opacity="0.44" d="M145.094 98.3652H141.052V104.281H145.094V98.3652Z" fill="white"/>
<path d="M150.82 111.691H146.738V115.773H150.82V111.691Z" fill="white"/>
<path d="M80.091 62.1078C80.4648 58.6685 84.2824 56.6761 87.2379 58.4794C89.3094 59.7416 91.3765 61.9538 92.5156 65.8066C94.7146 73.3537 93.6371 77.8221 108.349 78.0464V82.0883C108.349 82.0883 77.0959 89.6882 80.091 62.1078Z" fill="#3374B9"/>
<path opacity="0.39" d="M80.091 62.1078C80.4648 58.6685 84.2824 56.6761 87.2379 58.4794C89.3094 59.7416 91.3765 61.9538 92.5156 65.8066C94.7146 73.3537 93.6371 77.8221 108.349 78.0464V82.0883C108.349 82.0883 77.0959 89.6882 80.091 62.1078Z" fill="white"/>
<path d="M108.33 78.7761C108.33 78.7761 112.165 78.2308 112.539 79.3523C112.913 80.4738 112.653 81.5909 108.33 81.2566V78.7761Z" fill="#F4A28C"/>
<path opacity="0.08" d="M43.5956 61.0874L46.5907 81.257H40.6753V61.0874H43.5956Z" fill="black"/>
<path d="M122.721 86.8247H111.343V118.553H122.721V86.8247Z" fill="#E6E6E6"/>
<path opacity="0.08" d="M118.876 92.7445C120.999 92.7445 122.72 91.0235 122.72 88.9006C122.72 86.7776 120.999 85.0566 118.876 85.0566C116.753 85.0566 115.032 86.7776 115.032 88.9006C115.032 91.0235 116.753 92.7445 118.876 92.7445Z" fill="black"/>
<path d="M103.185 40.667V48.7463H108.41L109.549 51.9613L110.899 48.7463H116.12V40.667H103.185Z" fill="#34C672"/>
<path opacity="0.64" d="M109.002 46.5121C108.944 46.51 108.887 46.4951 108.836 46.4685C108.784 46.4419 108.739 46.4042 108.703 46.3581L107.335 44.5989C107.303 44.5567 107.279 44.5086 107.265 44.4571C107.251 44.4057 107.247 44.352 107.254 44.2991C107.26 44.2462 107.278 44.1952 107.304 44.1489C107.331 44.1026 107.366 44.062 107.408 44.0294C107.45 43.9967 107.498 43.9727 107.55 43.9587C107.601 43.9447 107.655 43.9409 107.708 43.9477C107.761 43.9544 107.812 43.9715 107.858 43.998C107.904 44.0244 107.945 44.0598 107.978 44.1019L109.051 45.4829L111.69 42.6242C111.726 42.5863 111.771 42.5561 111.819 42.5356C111.868 42.515 111.92 42.5044 111.973 42.5044C112.026 42.5044 112.078 42.515 112.127 42.5356C112.176 42.5561 112.22 42.5863 112.257 42.6242C112.296 42.6599 112.328 42.7033 112.351 42.7516C112.373 42.7998 112.386 42.8522 112.388 42.9054C112.39 42.9587 112.382 43.0118 112.363 43.0617C112.344 43.1116 112.316 43.1572 112.279 43.1959L109.31 46.4021C109.269 46.4406 109.221 46.4703 109.168 46.4892C109.115 46.5081 109.058 46.5159 109.002 46.5121Z" fill="white"/>
<path d="M137.371 80.2451V88.3244H142.591L143.73 91.5438L145.08 88.3244H150.301V80.2451H137.371Z" fill="#34C672"/>
<path opacity="0.64" d="M143.186 86.0902C143.127 86.0879 143.069 86.0725 143.016 86.0451C142.964 86.0178 142.918 85.9791 142.882 85.9319L141.515 84.1727C141.449 84.0875 141.419 83.9797 141.433 83.8728C141.447 83.766 141.502 83.669 141.587 83.6031C141.672 83.5372 141.78 83.5078 141.887 83.5214C141.994 83.535 142.091 83.5905 142.157 83.6757L143.23 85.0567L145.869 82.1979C145.903 82.1535 145.947 82.1168 145.996 82.0901C146.045 82.0634 146.1 82.0473 146.156 82.0428C146.212 82.0383 146.268 82.0455 146.321 82.064C146.375 82.0825 146.423 82.1119 146.464 82.1502C146.505 82.1886 146.538 82.2351 146.56 82.2867C146.582 82.3384 146.593 82.3941 146.593 82.4503C146.592 82.5065 146.58 82.562 146.557 82.6132C146.534 82.6644 146.5 82.7102 146.458 82.7477L143.489 85.9583C143.409 86.0401 143.3 86.0874 143.186 86.0902Z" fill="white"/>
</svg>
