<svg width="160" height="160" viewBox="0 0 160 160" fill="none" xmlns="http://www.w3.org/2000/svg">
<path opacity="0.45" d="M80 130.547C118.66 130.547 150 125.879 150 120.122C150 114.365 118.66 109.697 80 109.697C41.3401 109.697 10 114.365 10 120.122C10 125.879 41.3401 130.547 80 130.547Z" fill="#E6E6E6"/>
<path d="M137.356 112.865H116.368V118.391H137.356V112.865Z" fill="#E6E6E6"/>
<path opacity="0.43" d="M132.768 107.46H111.78V112.986H132.768V107.46Z" fill="#E6E6E6"/>
<path d="M124.572 37.0747H55.0435V118.43H124.572V37.0747Z" fill="#C9C9C9"/>
<path opacity="0.08" d="M120.331 48.0405H66.2041V113.172H120.331V48.0405Z" fill="black"/>
<path d="M116.869 44.2886H62.7417V109.42H116.869V44.2886Z" fill="white"/>
<path opacity="0.08" d="M57.1333 54.9644C57.1333 54.9644 67.61 55.9726 70.2064 69.6039L78.6189 58.3527C78.6189 58.3527 83.5132 57.7599 81.3495 62.2474C79.9301 65.1987 79.5839 73.6977 75.8537 79.4488C68.4566 90.8374 63.5013 103.636 61.3006 117.037L61.1189 118.162L56.0342 118.391L57.4406 76.8177L57.1333 54.9644Z" fill="black"/>
<path d="M47.3811 66.7279C45.171 73.0689 43.0594 87.754 48.2027 95.1214L45.1688 98.0019C45.1688 98.0019 34.7475 85.9491 34.2015 67.1517C33.9818 59.3225 36.6706 56.9069 39.8831 56.7509C44.9691 56.5107 49.0194 62.0336 47.3811 66.7279Z" fill="#275E9B"/>
<path opacity="0.08" d="M47.3811 66.7279C45.171 73.0689 43.0594 87.754 48.2027 95.1214L45.1688 98.0019C45.1688 98.0019 34.7475 85.9491 34.2015 67.1517C33.9818 59.3225 36.6706 56.9069 39.8831 56.7509C44.9691 56.5107 49.0194 62.0336 47.3811 66.7279Z" fill="black"/>
<path d="M48.2036 95.1215C48.2036 95.1215 50.5977 96.2677 49.7441 98.3729C48.8906 100.478 45.1697 98.002 45.1697 98.002L48.2036 95.1215Z" fill="#F4A28C"/>
<path d="M76.6762 29H72.1064V48.0406H76.6762V29Z" fill="#F2F2F2"/>
<path d="M107.587 29H103.017V48.0406H107.587V29Z" fill="#F2F2F2"/>
<path d="M108.435 54.2417H100.894C99.789 54.2417 98.8936 55.1371 98.8936 56.2417V63.7829C98.8936 64.8874 99.789 65.7829 100.894 65.7829H108.435C109.539 65.7829 110.435 64.8874 110.435 63.7829V56.2417C110.435 55.1371 109.539 54.2417 108.435 54.2417Z" fill="#34C672"/>
<path d="M108.435 71.084H100.894C99.789 71.084 98.8936 71.9794 98.8936 73.084V80.6252C98.8936 81.7297 99.789 82.6252 100.894 82.6252H108.435C109.539 82.6252 110.435 81.7297 110.435 80.6252V73.084C110.435 71.9794 109.539 71.084 108.435 71.084Z" fill="#34C672"/>
<path d="M108.435 87.9307H100.894C99.789 87.9307 98.8936 88.8261 98.8936 89.9307V97.4718C98.8936 98.5764 99.789 99.4718 100.894 99.4718H108.435C109.539 99.4718 110.435 98.5764 110.435 97.4718V89.9307C110.435 88.8261 109.539 87.9307 108.435 87.9307Z" fill="#34C672"/>
<path d="M93.2676 57.561H72.4961V62.464H93.2676V57.561Z" fill="#A5A5A5"/>
<path opacity="0.44" d="M93.2676 74.4028H72.4961V79.3058H93.2676V74.4028Z" fill="#A5A5A5"/>
<path opacity="0.13" d="M93.2676 91.2451H72.4961V96.1481H93.2676V91.2451Z" fill="#A5A5A5"/>
<path d="M101.49 60.0103L103.797 62.9703L107.691 57.561" stroke="white" stroke-width="2" stroke-miterlimit="10" stroke-linecap="round"/>
<path d="M101.49 76.6012L103.797 79.5611L107.691 74.1519" stroke="white" stroke-width="2" stroke-miterlimit="10" stroke-linecap="round"/>
<path d="M101.49 93.1925L103.797 96.1524L107.691 90.7432" stroke="white" stroke-width="2" stroke-miterlimit="10" stroke-linecap="round"/>
<path d="M43.7792 49.265L45.4366 54.2328L41.5029 56.7341L40.0879 48.1226L43.7792 49.265Z" fill="#F4A28C"/>
<path d="M41.3047 43.0253C41.6726 42.6638 42.1251 42.4 42.621 42.2579C43.1168 42.1158 43.6404 42.0999 44.1439 42.2117C44.6475 42.3235 45.1151 42.5595 45.5043 42.8981C45.8934 43.2367 46.1917 43.6672 46.3721 44.1504C47.2376 46.4353 48.0554 49.8237 45.3595 50.4035C41.2311 51.269 39.9199 45.9809 39.9199 45.9809C40.0808 44.881 40.5625 43.8529 41.3047 43.0253Z" fill="#F4A28C"/>
<path d="M41.2916 46.3661C41.2916 46.3661 40.3958 45.6174 39.9934 46.682C39.5909 47.7465 41.1661 48.2572 41.6378 47.7206C42.1095 47.184 41.2916 46.3661 41.2916 46.3661Z" fill="#F4A28C"/>
<path d="M36.9123 59.1704C37.5066 57.8541 38.3773 56.6812 39.4652 55.7314C40.5532 54.7816 41.8329 54.0772 43.2173 53.6659C48.5616 52.0605 58.3978 53.8174 61.3924 58.8156C65.4991 65.6572 59.4883 87.3764 59.4883 87.3764L41.5556 88.7871C41.5556 88.7871 31.6588 70.9712 36.9123 59.1704Z" fill="#3373BA"/>
<path d="M59.4922 87.394L57.1295 118.261H53.3949L50.0628 94.2789L41.8062 88.7875L59.4922 87.394Z" fill="#24285B"/>
<path d="M41.8063 88.7871L36.6567 118.261H40.6596L49.3057 93.7766L41.8063 88.7871Z" fill="#24285B"/>
<path opacity="0.08" d="M44.7707 53.1987C44.7707 53.1987 36.3626 80.2493 60.622 82.0408L59.4925 87.3938L41.5554 88.7873C41.5554 88.7873 34.5451 76.5667 35.4971 64.9C35.4971 64.9 35.6485 57.9978 40.5039 54.947C41.7856 54.0674 43.2403 53.4713 44.7707 53.1987Z" fill="black"/>
<path d="M37.5954 118.201L35.1808 119.975C35.0905 120.041 35.0236 120.135 34.9895 120.242C34.9555 120.348 34.956 120.463 34.991 120.57C35.026 120.676 35.0937 120.769 35.1845 120.835C35.2753 120.9 35.3846 120.936 35.4967 120.936H39.5384C39.6789 120.934 39.8131 120.878 39.912 120.778C40.0109 120.678 40.0664 120.544 40.0664 120.403V118.201H37.5954Z" fill="#24285B"/>
<path d="M56.6624 118.201L58.9342 119.975C59.023 120.044 59.0879 120.139 59.1199 120.246C59.1518 120.354 59.1493 120.469 59.1125 120.575C59.0757 120.681 59.0065 120.773 58.9148 120.838C58.823 120.902 58.7133 120.937 58.601 120.936H55.7276C55.5259 120.936 55.3261 120.896 55.1397 120.819C54.9534 120.741 54.784 120.628 54.6414 120.486C54.4987 120.343 54.3855 120.174 54.3083 119.987C54.2311 119.801 54.1914 119.601 54.1914 119.399V118.201H56.6624Z" fill="#24285B"/>
<path d="M52.0926 53.5234C51.1973 54.9601 50.7227 56.6189 50.7227 58.3117C50.7227 60.0045 51.1973 61.6634 52.0926 63.1C54.0486 66.4061 59.7305 72.8496 63.6251 77.0948C64.0647 77.5796 64.6138 77.9523 65.2267 78.1818C65.8395 78.4114 66.4983 78.4912 67.1482 78.4146C67.7981 78.3379 68.4203 78.1071 68.9629 77.7413C69.5056 77.3754 69.9529 76.8853 70.2677 76.3115L78.6369 61.5637L75.7981 59.7419L68.13 70.9932C68.13 70.9932 62.8808 53.7398 52.0926 53.5234Z" fill="#3373BA"/>
<path opacity="0.2" d="M52.0926 53.5234C51.1973 54.9601 50.7227 56.6189 50.7227 58.3117C50.7227 60.0045 51.1973 61.6634 52.0926 63.1C54.0486 66.4061 59.7305 72.8496 63.6251 77.0948C64.0647 77.5796 64.6138 77.9523 65.2267 78.1818C65.8395 78.4114 66.4983 78.4912 67.1482 78.4146C67.7981 78.3379 68.4203 78.1071 68.9629 77.7413C69.5056 77.3754 69.9529 76.8853 70.2677 76.3115L78.6369 61.5637L75.7981 59.7419L68.13 70.9932C68.13 70.9932 62.8808 53.7398 52.0926 53.5234Z" fill="white"/>
<path d="M77.6456 60.9363C77.6456 60.9363 82.4058 59.2054 80.4585 56.5051C78.5111 53.8048 75.7979 59.7506 75.7979 59.7506L77.6456 60.9363Z" fill="#F4A28C"/>
<path d="M40.4 49.5421L38.959 45.9936C38.8101 45.6249 38.7386 45.2294 38.749 44.8319C38.7595 44.4344 38.8516 44.0432 39.0196 43.6828C39.6038 42.4105 40.7203 40.4502 42.4253 39.3554C45.0996 37.5985 47.7177 37.5898 47.4234 39.9223C47.1291 42.2547 48.2543 39.8011 49.1544 41.4715C50.0545 43.1419 49.5135 43.6828 48.1937 43.8386C46.8738 43.9944 44.299 43.9468 43.373 45.6474C42.4469 47.3481 43.572 49.4382 40.4 49.5421Z" fill="#24285B"/>
</svg>
