<svg width="160" height="160" viewBox="0 0 160 160" fill="none" xmlns="http://www.w3.org/2000/svg">
<path opacity="0.45" d="M80 130.538C118.66 130.538 150 126.258 150 120.979C150 115.699 118.66 111.419 80 111.419C41.3401 111.419 10 115.699 10 120.979C10 126.258 41.3401 130.538 80 130.538Z" fill="#E6E6E6"/>
<path d="M39.0736 105.097H39.0392C38.6082 105.063 38.1772 105.011 37.7463 104.946C37.6897 104.938 37.6353 104.919 37.5861 104.89C37.537 104.86 37.4941 104.822 37.4598 104.776C37.4256 104.73 37.4008 104.678 37.3867 104.622C37.3726 104.567 37.3696 104.509 37.3778 104.453C37.386 104.396 37.4053 104.342 37.4345 104.293C37.4638 104.243 37.5024 104.201 37.5482 104.166C37.594 104.132 37.6462 104.107 37.7016 104.093C37.757 104.079 37.8147 104.076 37.8713 104.084C38.2879 104.145 38.7059 104.192 39.1254 104.227C39.2397 104.231 39.3475 104.281 39.4251 104.365C39.5026 104.449 39.5437 104.56 39.5391 104.675C39.5345 104.789 39.4847 104.897 39.4007 104.974C39.3166 105.052 39.2052 105.093 39.0909 105.088L39.0736 105.097ZM43.3833 104.933C43.3267 104.938 43.2698 104.931 43.2159 104.913C43.162 104.895 43.1121 104.867 43.0691 104.83C43.0261 104.793 42.9908 104.748 42.9652 104.697C42.9396 104.646 42.9242 104.591 42.92 104.535C42.9158 104.478 42.9227 104.421 42.9404 104.367C42.9582 104.313 42.9864 104.264 43.0234 104.22C43.0604 104.177 43.1055 104.142 43.1562 104.117C43.2068 104.091 43.2621 104.076 43.3186 104.071C43.7281 104.007 44.1461 103.925 44.5555 103.826C44.6107 103.813 44.6679 103.811 44.7237 103.821C44.7796 103.83 44.8331 103.85 44.8811 103.88C44.9291 103.91 44.9708 103.949 45.0036 103.996C45.0365 104.042 45.06 104.094 45.0727 104.149C45.0986 104.26 45.0796 104.376 45.0198 104.473C44.9601 104.57 44.8644 104.64 44.7537 104.666C44.3228 104.77 43.8918 104.856 43.4609 104.925L43.3833 104.933ZM33.6435 103.882C33.5935 103.882 33.5439 103.873 33.497 103.856C33.066 103.705 32.6781 103.541 32.273 103.369C32.221 103.347 32.1738 103.314 32.1343 103.274C32.0947 103.233 32.0635 103.185 32.0425 103.132C32.0215 103.08 32.0111 103.024 32.0118 102.967C32.0125 102.91 32.0244 102.854 32.0468 102.802C32.0691 102.75 32.1015 102.703 32.1421 102.663C32.1827 102.624 32.2307 102.593 32.2833 102.572C32.3359 102.551 32.3922 102.54 32.4488 102.541C32.5055 102.542 32.5614 102.554 32.6135 102.576C33.0014 102.744 33.4022 102.899 33.7943 103.046C33.8899 103.08 33.9702 103.148 34.0209 103.236C34.0716 103.324 34.0895 103.427 34.0715 103.527C34.0534 103.627 34.0006 103.718 33.9222 103.783C33.8439 103.848 33.7452 103.883 33.6435 103.882ZM48.6971 103.218C48.6163 103.218 48.5371 103.196 48.4685 103.153C48.4 103.11 48.3447 103.049 48.3092 102.977C48.2584 102.874 48.2503 102.756 48.2867 102.648C48.323 102.54 48.4009 102.45 48.5031 102.399C48.8781 102.218 49.253 102.016 49.6193 101.805C49.6685 101.776 49.7229 101.758 49.7792 101.75C49.8356 101.743 49.8929 101.747 49.9477 101.761C50.0026 101.776 50.054 101.802 50.099 101.837C50.144 101.871 50.1816 101.915 50.2098 101.964C50.2659 102.063 50.2807 102.18 50.2508 102.29C50.221 102.4 50.1489 102.493 50.0503 102.55C49.6667 102.77 49.2746 102.981 48.8867 103.175C48.8224 103.206 48.7513 103.221 48.6798 103.218H48.6971ZM28.64 101.382C28.5579 101.383 28.4771 101.361 28.4073 101.318C28.041 101.085 27.6746 100.839 27.3169 100.589C27.2234 100.524 27.1594 100.424 27.1393 100.312C27.1191 100.2 27.1442 100.084 27.2092 99.9902C27.2745 99.8966 27.3742 99.8327 27.4865 99.8125C27.5988 99.7923 27.7145 99.8174 27.8082 99.8824C28.1573 100.128 28.5107 100.361 28.8684 100.589C28.9462 100.639 29.0057 100.713 29.0382 100.8C29.0707 100.887 29.0744 100.982 29.0488 101.071C29.0231 101.16 28.9696 101.238 28.8959 101.294C28.8223 101.35 28.7326 101.381 28.64 101.382ZM53.3342 100.145C53.2717 100.145 53.2099 100.131 53.1534 100.104C53.0968 100.077 53.0468 100.038 53.0067 99.9902C52.9699 99.9472 52.942 99.8973 52.9244 99.8435C52.9069 99.7897 52.9002 99.733 52.9046 99.6765C52.909 99.6201 52.9244 99.5651 52.9501 99.5146C52.9758 99.4642 53.0111 99.4193 53.0541 99.3825L53.1489 99.2834C53.4334 99.0377 53.7221 98.7835 54.0109 98.5163C54.0949 98.4386 54.2063 98.3974 54.3207 98.4018C54.435 98.4063 54.5429 98.456 54.6207 98.54C54.6984 98.624 54.7396 98.7354 54.7351 98.8498C54.7307 98.9642 54.681 99.0721 54.597 99.1498C54.2953 99.4256 54.0022 99.6885 53.7092 99.9385L53.6101 100.02C53.5363 100.094 53.4383 100.138 53.3342 100.145ZM24.1838 97.9905C24.077 97.9902 23.9741 97.9503 23.8951 97.8785C23.5719 97.5811 23.253 97.2794 22.947 96.9777C22.8653 96.8977 22.8187 96.7885 22.8174 96.6742C22.8162 96.5598 22.8605 96.4496 22.9405 96.3679C23.0205 96.2862 23.1297 96.2396 23.2441 96.2384C23.3584 96.2372 23.4686 96.2814 23.5503 96.3615C23.852 96.6588 24.1623 96.9519 24.4769 97.2234C24.519 97.2617 24.5531 97.308 24.5773 97.3596C24.6014 97.4112 24.6151 97.4671 24.6175 97.524C24.6199 97.5809 24.611 97.6377 24.5913 97.6912C24.5716 97.7446 24.5415 97.7936 24.5028 97.8354C24.4636 97.8824 24.415 97.9205 24.36 97.9473C24.305 97.974 24.245 97.9887 24.1838 97.9905ZM57.3293 96.2192C57.2225 96.219 57.1196 96.179 57.0405 96.1072C56.9561 96.0305 56.9056 95.9235 56.8999 95.8096C56.8943 95.6957 56.934 95.5842 57.0104 95.4995C57.2948 95.1849 57.5836 94.866 57.8723 94.5385C57.9088 94.4932 57.9541 94.4557 58.0054 94.4284C58.0568 94.4011 58.1131 94.3844 58.1711 94.3794C58.2291 94.3745 58.2874 94.3813 58.3427 94.3995C58.398 94.4177 58.449 94.4468 58.4926 94.4853C58.5363 94.5237 58.5718 94.5706 58.5968 94.6231C58.6219 94.6756 58.6361 94.7326 58.6385 94.7907C58.641 94.8489 58.6316 94.9069 58.611 94.9613C58.5904 95.0157 58.559 95.0654 58.5187 95.1074C58.2257 95.4392 57.9369 95.7624 57.6568 96.077C57.6137 96.1189 57.5622 96.1512 57.5058 96.172C57.4494 96.1928 57.3893 96.2015 57.3293 96.1977V96.2192ZM20.3957 93.8662C20.3302 93.8665 20.2655 93.852 20.2065 93.8236C20.1475 93.7952 20.0958 93.7538 20.0552 93.7024C19.7794 93.3533 19.5165 93.0042 19.2622 92.6552C19.2289 92.6091 19.2051 92.5569 19.1921 92.5016C19.179 92.4463 19.1771 92.3889 19.1863 92.3329C19.1955 92.2768 19.2157 92.2231 19.2457 92.1749C19.2758 92.1266 19.3151 92.0848 19.3614 92.0518C19.4541 91.986 19.5691 91.9594 19.6813 91.978C19.7935 91.9965 19.8938 92.0587 19.9604 92.1509C20.2104 92.4914 20.4646 92.8319 20.7318 93.168C20.7819 93.2314 20.8132 93.3076 20.822 93.3879C20.8309 93.4682 20.817 93.5494 20.782 93.6222C20.7469 93.695 20.6921 93.7564 20.6238 93.7996C20.5555 93.8427 20.4765 93.8658 20.3957 93.8662ZM60.9839 91.957C60.8832 91.9572 60.7856 91.9221 60.708 91.8579C60.6205 91.7855 60.5651 91.6816 60.5538 91.5686C60.5425 91.4556 60.5763 91.3428 60.6477 91.2545C60.9192 90.9227 61.1907 90.5908 61.4622 90.2504C61.4978 90.2061 61.5418 90.1693 61.5916 90.1421C61.6414 90.1149 61.6962 90.0978 61.7526 90.0917C61.8091 90.0857 61.8662 90.091 61.9206 90.1071C61.9751 90.1232 62.0258 90.1499 62.0699 90.1857C62.158 90.2575 62.2143 90.3611 62.2264 90.4741C62.2385 90.5871 62.2055 90.7003 62.1345 90.7891L61.3157 91.7976C61.2756 91.847 61.225 91.8869 61.1677 91.9145C61.1103 91.9421 61.0475 91.9566 60.9839 91.957ZM17.3272 89.1902C17.247 89.188 17.169 89.1634 17.102 89.1193C17.035 89.0751 16.9816 89.0131 16.948 88.9403C16.7411 88.5395 16.5472 88.1387 16.3748 87.7508C16.3518 87.699 16.3393 87.6432 16.3379 87.5866C16.3365 87.53 16.3463 87.4736 16.3668 87.4208C16.3872 87.368 16.4178 87.3197 16.4569 87.2787C16.496 87.2377 16.5428 87.2048 16.5946 87.1819C16.6463 87.159 16.7021 87.1464 16.7588 87.1451C16.8154 87.1437 16.8717 87.1535 16.9246 87.1739C16.9774 87.1943 17.0257 87.2249 17.0667 87.264C17.1077 87.3031 17.1405 87.3499 17.1634 87.4017C17.3315 87.7723 17.5168 88.1602 17.7151 88.5438C17.7411 88.5944 17.7568 88.6496 17.7613 88.7063C17.7658 88.763 17.7591 88.8201 17.7414 88.8742C17.7238 88.9283 17.6957 88.9783 17.6586 89.0215C17.6215 89.0646 17.5763 89.1 17.5254 89.1256C17.4641 89.157 17.3961 89.1733 17.3272 89.173V89.1902ZM64.4747 87.5655C64.3943 87.5653 64.3155 87.5426 64.2473 87.5C64.1791 87.4574 64.1242 87.3966 64.0888 87.3244C64.0534 87.2522 64.0389 87.1715 64.0469 87.0915C64.0549 87.0115 64.0852 86.9353 64.1342 86.8716L64.9272 85.8502C64.9602 85.8016 65.0028 85.7601 65.0525 85.7285C65.1021 85.697 65.1577 85.6759 65.2158 85.6666C65.2739 85.6573 65.3332 85.66 65.3903 85.6745C65.4473 85.689 65.5007 85.715 65.5473 85.751C65.5938 85.787 65.6325 85.8321 65.661 85.8835C65.6895 85.935 65.7071 85.9918 65.7128 86.0504C65.7185 86.1089 65.7122 86.168 65.6942 86.224C65.6761 86.28 65.6469 86.3318 65.6081 86.376L64.8151 87.3974C64.7733 87.4464 64.7209 87.4854 64.662 87.5115C64.6031 87.5376 64.5391 87.5502 64.4747 87.5482V87.5655ZM15.5473 83.9023C15.4427 83.9033 15.3414 83.8663 15.2621 83.7981C15.1828 83.7299 15.131 83.6352 15.1164 83.5317C15.056 83.1007 15.0172 82.6396 15 82.2C15 82.0857 15.0454 81.9761 15.1262 81.8952C15.207 81.8144 15.3167 81.769 15.431 81.769C15.5453 81.769 15.6549 81.8144 15.7357 81.8952C15.8165 81.9761 15.8619 82.0857 15.8619 82.2C15.8762 82.6153 15.9122 83.0296 15.9697 83.4412C15.9776 83.4975 15.9742 83.5549 15.9598 83.6099C15.9454 83.6649 15.9203 83.7166 15.8858 83.7619C15.8513 83.8071 15.8083 83.8451 15.759 83.8737C15.7098 83.9022 15.6554 83.9207 15.599 83.9281L15.5473 83.9023ZM67.9008 83.1222C67.8201 83.1229 67.7407 83.1008 67.6719 83.0585C67.6031 83.0162 67.5475 82.9554 67.5116 82.8831C67.4757 82.8107 67.4608 82.7297 67.4686 82.6494C67.4765 82.569 67.5068 82.4924 67.5561 82.4284L68.3447 81.4027C68.4158 81.3174 68.517 81.2628 68.6273 81.2504C68.7376 81.2379 68.8485 81.2684 68.9368 81.3356C69.0251 81.4029 69.0841 81.5016 69.1015 81.6112C69.1188 81.7208 69.0932 81.833 69.03 81.9242L68.2327 82.9369C68.1934 82.988 68.1432 83.0295 68.0858 83.0586C68.0284 83.0877 67.9652 83.1036 67.9008 83.105V83.1222ZM138.911 80.7519C138.871 80.7561 138.83 80.7561 138.79 80.7519C138.736 80.7361 138.685 80.7097 138.641 80.6743C138.597 80.6388 138.56 80.5951 138.533 80.5454C138.506 80.4958 138.488 80.4413 138.482 80.3851C138.476 80.3288 138.481 80.2719 138.497 80.2175C138.605 79.8383 138.721 79.4246 138.837 78.9807C138.852 78.9257 138.876 78.8741 138.91 78.8288C138.944 78.7834 138.987 78.7452 139.036 78.7164C139.085 78.6876 139.139 78.6687 139.195 78.6608C139.251 78.6529 139.308 78.6561 139.363 78.6704C139.418 78.6849 139.47 78.7101 139.515 78.7447C139.56 78.7792 139.598 78.8224 139.627 78.8717C139.655 78.921 139.674 78.9754 139.681 79.0318C139.688 79.0883 139.684 79.1456 139.669 79.2005C139.553 79.6314 139.437 80.0624 139.324 80.4546C139.296 80.5417 139.241 80.6175 139.166 80.6709C139.092 80.7244 139.002 80.7528 138.911 80.7519ZM71.3054 78.6747C71.2102 78.6744 71.1178 78.6426 71.0426 78.5842C70.9524 78.5143 70.8937 78.4116 70.8791 78.2985C70.8646 78.1855 70.8955 78.0712 70.965 77.9808L71.7536 76.9552C71.8239 76.8643 71.9275 76.8051 72.0414 76.7905C72.1554 76.776 72.2704 76.8073 72.3613 76.8776C72.4522 76.9479 72.5114 77.0514 72.5259 77.1653C72.5405 77.2793 72.5092 77.3944 72.4389 77.4852L71.6459 78.5066C71.6046 78.5537 71.5535 78.5912 71.4962 78.6165C71.4388 78.6418 71.3767 78.6543 71.3141 78.6532L71.3054 78.6747ZM15.9955 78.3687C15.9541 78.3748 15.912 78.3748 15.8705 78.3687C15.7614 78.3349 15.6702 78.2592 15.6168 78.1582C15.5635 78.0572 15.5524 77.9392 15.5861 77.83C15.7111 77.399 15.8619 76.9896 16.0171 76.5759C16.0358 76.5201 16.0657 76.4688 16.105 76.425C16.1443 76.3813 16.1922 76.3461 16.2456 76.3215C16.2991 76.2969 16.357 76.2836 16.4158 76.2822C16.4746 76.2809 16.533 76.2916 16.5875 76.3137C16.6421 76.3358 16.6915 76.3688 16.7327 76.4107C16.774 76.4526 16.8062 76.5025 16.8275 76.5574C16.8487 76.6122 16.8585 76.6708 16.8563 76.7296C16.854 76.7884 16.8398 76.8461 16.8144 76.8991C16.6592 77.2913 16.517 77.6878 16.3834 78.08C16.3522 78.156 16.3 78.2216 16.2328 78.2689C16.1656 78.3163 16.0863 78.3434 16.0041 78.3472L15.9955 78.3687ZM140.204 75.2744C140.177 75.2789 140.149 75.2789 140.122 75.2744C140.01 75.2534 139.911 75.1891 139.846 75.0955C139.782 75.0018 139.757 74.8864 139.777 74.7745C139.855 74.3435 139.928 73.9384 140.001 73.5074C140.01 73.4508 140.031 73.3966 140.061 73.3479C140.091 73.2992 140.131 73.2569 140.178 73.2235C140.224 73.1901 140.277 73.1662 140.333 73.1532C140.389 73.1401 140.447 73.1382 140.503 73.1476C140.56 73.1569 140.614 73.1773 140.663 73.2076C140.711 73.2379 140.754 73.2775 140.787 73.3241C140.82 73.3707 140.844 73.4235 140.857 73.4793C140.87 73.5352 140.872 73.5931 140.863 73.6497C140.79 74.0806 140.716 74.5116 140.639 74.9426C140.616 75.0397 140.56 75.1259 140.481 75.1864C140.401 75.247 140.303 75.278 140.204 75.2744ZM74.7532 74.2271C74.672 74.2276 74.5924 74.2051 74.5234 74.1623C74.4545 74.1195 74.399 74.058 74.3635 73.9851C74.3279 73.9121 74.3136 73.8306 74.3223 73.7499C74.3311 73.6693 74.3624 73.5927 74.4127 73.529L75.2186 72.5119C75.2533 72.4658 75.2969 72.427 75.3468 72.3981C75.3967 72.3691 75.452 72.3504 75.5092 72.3432C75.5665 72.336 75.6246 72.3403 75.6802 72.356C75.7358 72.3717 75.7876 72.3984 75.8326 72.4345C75.8777 72.4705 75.915 72.5153 75.9424 72.5661C75.9699 72.6169 75.9868 72.6727 75.9922 72.7302C75.9976 72.7877 75.9915 72.8457 75.9741 72.9007C75.9567 72.9557 75.9284 73.0067 75.8909 73.0506L75.0893 74.0634C75.0501 74.1131 75.0004 74.1535 74.9438 74.1818C74.8872 74.2101 74.825 74.2256 74.7618 74.2271H74.7532ZM18.5598 73.3911C18.468 73.3902 18.3789 73.36 18.3055 73.3049C18.2146 73.237 18.1542 73.1361 18.1372 73.024C18.1203 72.9118 18.1482 72.7975 18.215 72.7058C18.4736 72.3568 18.7494 72.0077 19.0338 71.6672C19.1075 71.5798 19.213 71.5252 19.3269 71.5155C19.4409 71.5058 19.554 71.5418 19.6415 71.6155C19.7289 71.6892 19.7835 71.7947 19.7932 71.9086C19.8029 72.0226 19.7669 72.1357 19.6932 72.2232C19.4174 72.5464 19.1545 72.8825 18.9088 73.2144C18.8687 73.2693 18.8162 73.3139 18.7555 73.3446C18.6948 73.3753 18.6278 73.3913 18.5598 73.3911ZM78.2698 69.8529C78.1706 69.8521 78.0747 69.8171 77.9983 69.7537C77.9108 69.6814 77.8554 69.5774 77.8441 69.4645C77.8328 69.3515 77.8665 69.2386 77.938 69.1504L78.7611 68.1506C78.7962 68.1061 78.8397 68.069 78.8891 68.0414C78.9385 68.0138 78.9929 67.9962 79.0491 67.9896C79.1054 67.983 79.1623 67.9875 79.2168 68.003C79.2713 68.0184 79.3222 68.0444 79.3666 68.0794C79.4111 68.1145 79.4481 68.158 79.4757 68.2075C79.5034 68.2569 79.521 68.3112 79.5276 68.3675C79.5342 68.4237 79.5296 68.4807 79.5142 68.5352C79.4988 68.5896 79.4728 68.6405 79.4377 68.685L78.6189 69.6805C78.5783 69.7346 78.5256 69.7784 78.4649 69.8083C78.4043 69.8383 78.3374 69.8535 78.2698 69.8529ZM140.962 69.7236H140.928C140.814 69.7148 140.709 69.6613 140.634 69.5749C140.56 69.4885 140.523 69.3761 140.531 69.2624C140.566 68.8315 140.592 68.4005 140.617 67.9696C140.617 67.9111 140.629 67.8532 140.652 67.7995C140.675 67.7458 140.709 67.6972 140.751 67.6569C140.793 67.6166 140.844 67.5853 140.898 67.565C140.953 67.5447 141.012 67.5357 141.07 67.5386C141.183 67.5453 141.29 67.5966 141.366 67.6814C141.442 67.7661 141.481 67.8775 141.475 67.9911C141.453 68.4221 141.423 68.853 141.389 69.284C141.39 69.3409 141.38 69.3976 141.359 69.4506C141.338 69.5036 141.307 69.5519 141.267 69.5928C141.227 69.6337 141.18 69.6663 141.128 69.6887C141.075 69.7112 141.019 69.723 140.962 69.7236ZM22.4471 69.3573C22.3577 69.3576 22.2703 69.3302 22.1972 69.2787C22.1241 69.2273 22.0688 69.1544 22.039 69.0701C22.0091 68.9858 22.0063 68.8943 22.0307 68.8083C22.0552 68.7223 22.1058 68.6461 22.1755 68.5901C22.8177 68.073 23.2314 67.7972 23.2487 67.7842C23.3441 67.7236 23.4595 67.7029 23.5701 67.7266C23.6806 67.7503 23.7774 67.8165 23.8396 67.911C23.9018 68.0054 23.9244 68.1205 23.9025 68.2314C23.8807 68.3423 23.8161 68.4402 23.7227 68.5039C23.7227 68.5039 23.3219 68.7711 22.7186 69.2581C22.6399 69.3233 22.5406 69.3585 22.4384 69.3573H22.4471ZM81.8899 65.5605C81.8079 65.5597 81.7278 65.5355 81.6591 65.4907C81.5903 65.446 81.5358 65.3825 81.5018 65.3079C81.4679 65.2332 81.456 65.1504 81.4675 65.0692C81.479 64.988 81.5134 64.9117 81.5667 64.8494C81.8468 64.5218 82.1313 64.1943 82.4286 63.8711C82.4651 63.8258 82.5104 63.7883 82.5618 63.761C82.6131 63.7337 82.6695 63.717 82.7274 63.712C82.7854 63.7071 82.8438 63.7139 82.899 63.7321C82.9543 63.7503 83.0053 63.7795 83.049 63.8179C83.0926 63.8563 83.1281 63.9032 83.1531 63.9557C83.1782 64.0082 83.1924 64.0652 83.1948 64.1233C83.1973 64.1815 83.1879 64.2395 83.1673 64.2939C83.1468 64.3483 83.1154 64.398 83.0751 64.44C82.7906 64.7632 82.5062 65.0864 82.2131 65.4139C82.1718 65.461 82.1207 65.4985 82.0634 65.5238C82.0061 65.5491 81.9439 65.5616 81.8813 65.5605H81.8899ZM141.066 64.121C140.956 64.1212 140.85 64.0794 140.77 64.0041C140.69 63.9288 140.641 63.8257 140.635 63.7159C140.609 63.285 140.579 62.854 140.54 62.423C140.53 62.3087 140.565 62.195 140.639 62.1069C140.712 62.0189 140.818 61.9636 140.932 61.9533C141.046 61.943 141.16 61.9785 141.248 62.0521C141.336 62.1256 141.391 62.2312 141.402 62.3455C141.441 62.7764 141.475 63.2074 141.497 63.6384C141.497 63.7483 141.455 63.8542 141.38 63.9343C141.304 64.0144 141.201 64.0627 141.091 64.0693L141.066 64.121ZM85.6436 61.3844C85.5347 61.384 85.43 61.3425 85.3506 61.2681C85.2674 61.1902 85.2184 61.0826 85.2143 60.9687C85.2103 60.8548 85.2515 60.744 85.329 60.6604C85.6221 60.3415 85.9194 60.0269 86.2168 59.7166C86.2971 59.643 86.4023 59.6025 86.5113 59.6033C86.6202 59.6042 86.7248 59.6462 86.804 59.721C86.8832 59.7958 86.9311 59.8979 86.9381 60.0066C86.9451 60.1153 86.9106 60.2227 86.8417 60.307L85.9798 61.2465C85.9353 61.2949 85.8803 61.3325 85.8191 61.3564C85.7578 61.3803 85.6919 61.3899 85.6264 61.3844H85.6436ZM140.286 58.5788C140.187 58.5817 140.091 58.5508 140.012 58.4912C139.934 58.4316 139.878 58.3469 139.855 58.2513C139.755 57.8204 139.648 57.4196 139.527 57.0231C139.511 56.9687 139.506 56.9118 139.512 56.8556C139.519 56.7993 139.536 56.7448 139.563 56.6952C139.59 56.6456 139.627 56.6018 139.671 56.5663C139.715 56.5309 139.766 56.5045 139.82 56.4887C139.929 56.4565 140.047 56.4688 140.147 56.5229C140.247 56.577 140.322 56.6685 140.354 56.7774C140.475 57.2084 140.592 57.6178 140.695 58.0488C140.708 58.1039 140.711 58.1613 140.702 58.2174C140.693 58.2735 140.674 58.3274 140.644 58.3758C140.614 58.4243 140.575 58.4664 140.529 58.4998C140.483 58.5331 140.431 58.5571 140.376 58.5702L140.286 58.5788ZM89.5525 57.3678C89.4672 57.3675 89.384 57.3419 89.3133 57.2942C89.2427 57.2466 89.1877 57.179 89.1554 57.1001C89.1231 57.0213 89.115 56.9346 89.1319 56.8511C89.1489 56.7675 89.1903 56.6909 89.2508 56.6309L90.186 55.7259C90.226 55.6855 90.2737 55.6534 90.3262 55.6315C90.3787 55.6097 90.4351 55.5984 90.492 55.5984C90.5489 55.5984 90.6052 55.6097 90.6577 55.6315C90.7102 55.6534 90.7579 55.6855 90.7979 55.7259C90.8782 55.8066 90.9233 55.9158 90.9233 56.0297C90.9233 56.1436 90.8782 56.2528 90.7979 56.3335C90.4876 56.6266 90.1817 56.9283 89.8714 57.2299C89.8288 57.276 89.7766 57.3122 89.7185 57.336C89.6605 57.3599 89.5979 57.3707 89.5352 57.3678H89.5525ZM93.6768 53.5667C93.5893 53.5666 93.5039 53.5399 93.432 53.49C93.3601 53.4402 93.305 53.3697 93.2742 53.2879C93.2433 53.206 93.2381 53.1167 93.2592 53.0318C93.2803 52.9469 93.3267 52.8704 93.3923 52.8125L94.3836 51.9506C94.4716 51.8769 94.5853 51.8412 94.6996 51.8513C94.814 51.8614 94.9197 51.9165 94.9934 52.0045C95.0671 52.0925 95.1028 52.2062 95.0927 52.3206C95.0826 52.4349 95.0275 52.5406 94.9395 52.6143C94.612 52.8858 94.2844 53.1659 93.9569 53.4461C93.877 53.5231 93.7705 53.5663 93.6595 53.5667H93.6768ZM138.351 53.3383C138.272 53.3377 138.195 53.3157 138.129 53.2747C138.062 53.2337 138.007 53.1752 137.971 53.1056C137.773 52.7307 137.566 52.36 137.346 52.0023C137.288 51.9046 137.27 51.7875 137.298 51.6769C137.325 51.5662 137.395 51.4709 137.493 51.4119C137.591 51.3533 137.708 51.3358 137.818 51.3632C137.929 51.3907 138.024 51.4609 138.083 51.5584C138.312 51.9291 138.514 52.3169 138.734 52.7048C138.769 52.7707 138.787 52.8446 138.784 52.9192C138.782 52.9939 138.761 53.0667 138.722 53.1306C138.684 53.1944 138.629 53.2472 138.564 53.2836C138.499 53.32 138.425 53.3389 138.351 53.3383ZM98.0554 50.0716C97.9874 50.0718 97.9203 50.0559 97.8596 50.0252C97.799 49.9945 97.7464 49.9498 97.7063 49.8949C97.6726 49.8494 97.6481 49.7976 97.6344 49.7427C97.6207 49.6877 97.618 49.6305 97.6264 49.5745C97.6348 49.5184 97.6542 49.4646 97.6834 49.4161C97.7127 49.3675 97.7512 49.3252 97.7968 49.2916C98.1502 49.033 98.5036 48.783 98.857 48.5331C98.9034 48.5005 98.9557 48.4775 99.0111 48.4651C99.0664 48.4528 99.1236 48.4516 99.1794 48.4614C99.2353 48.4712 99.2886 48.4919 99.3364 48.5223C99.3843 48.5527 99.4256 48.5923 99.4582 48.6387C99.4907 48.6851 99.5138 48.7374 99.5261 48.7928C99.5384 48.8481 99.5397 48.9053 99.5299 48.9611C99.5201 49.017 99.4994 49.0703 99.4689 49.1181C99.4385 49.166 99.399 49.2073 99.3526 49.2399L98.3096 49.9854C98.2315 50.0441 98.1358 50.0745 98.0381 50.0716H98.0554ZM135.075 48.8218C135.018 48.8216 134.962 48.81 134.909 48.7878C134.857 48.7657 134.809 48.7333 134.769 48.6925C134.482 48.4052 134.176 48.1179 133.851 47.8306C133.766 47.7551 133.713 47.6487 133.706 47.5348C133.699 47.4209 133.737 47.3087 133.812 47.2229C133.888 47.1373 133.994 47.0851 134.108 47.0779C134.222 47.0706 134.334 47.1088 134.42 47.1842C134.748 47.4729 135.071 47.7789 135.381 48.0935C135.461 48.1742 135.506 48.2835 135.506 48.3973C135.506 48.5112 135.461 48.6204 135.381 48.7012C135.339 48.7424 135.288 48.7745 135.232 48.7952C135.177 48.816 135.117 48.8251 135.058 48.8218H135.075ZM102.753 46.9945C102.677 46.9948 102.602 46.9751 102.536 46.9372C102.471 46.8994 102.416 46.8448 102.378 46.7791C102.321 46.6806 102.306 46.5638 102.335 46.4541C102.364 46.3444 102.435 46.2505 102.533 46.1929C102.912 45.9732 103.292 45.762 103.671 45.5551C103.72 45.5268 103.775 45.5086 103.832 45.5014C103.888 45.4942 103.946 45.4982 104.001 45.5132C104.056 45.5282 104.107 45.5539 104.152 45.5888C104.197 45.6237 104.235 45.6672 104.263 45.7167C104.292 45.7662 104.31 45.8209 104.317 45.8774C104.324 45.934 104.32 45.9915 104.305 46.0465C104.29 46.1015 104.265 46.153 104.23 46.1981C104.195 46.2432 104.151 46.281 104.102 46.3093C103.727 46.5119 103.356 46.7403 102.986 46.9385C102.903 46.9875 102.805 47.0073 102.71 46.9945H102.753ZM130.628 45.4775C130.555 45.4778 130.483 45.4584 130.421 45.4215C130.059 45.2233 129.68 45.0293 129.292 44.8483C129.24 44.824 129.194 44.7898 129.156 44.7477C129.118 44.7056 129.089 44.6565 129.07 44.6031C129.051 44.5496 129.043 44.493 129.046 44.4364C129.049 44.3797 129.063 44.3242 129.087 44.273C129.111 44.2218 129.145 44.1759 129.188 44.1379C129.23 44.0998 129.279 44.0705 129.332 44.0515C129.386 44.0325 129.442 44.0242 129.499 44.0271C129.556 44.0299 129.611 44.044 129.662 44.0683C130.063 44.2579 130.455 44.4605 130.834 44.6673C130.919 44.713 130.986 44.7856 131.025 44.8736C131.063 44.9617 131.071 45.0601 131.047 45.1532C131.024 45.2463 130.969 45.3288 130.893 45.3876C130.817 45.4464 130.724 45.478 130.628 45.4775ZM107.765 44.5208C107.665 44.521 107.567 44.4862 107.49 44.4224C107.412 44.3585 107.36 44.2696 107.341 44.171C107.322 44.0724 107.338 43.9703 107.386 43.8823C107.435 43.7943 107.512 43.7259 107.606 43.689C108.011 43.5253 108.416 43.3701 108.825 43.2236C108.932 43.1884 109.048 43.1962 109.149 43.2453C109.25 43.2943 109.327 43.3808 109.366 43.4863C109.404 43.5918 109.399 43.708 109.353 43.8102C109.307 43.9125 109.223 43.9927 109.118 44.0338C108.722 44.176 108.325 44.3269 107.929 44.4906C107.866 44.5161 107.798 44.5265 107.731 44.5208H107.765ZM125.456 43.3572C125.415 43.3614 125.373 43.3614 125.331 43.3572C124.926 43.2365 124.512 43.1245 124.103 43.0297C123.989 43.0028 123.89 42.9316 123.828 42.8318C123.766 42.732 123.746 42.6117 123.773 42.4974C123.8 42.3831 123.871 42.2842 123.971 42.2224C124.071 42.1605 124.191 42.1409 124.305 42.1677C124.736 42.2712 125.167 42.3832 125.598 42.5082C125.713 42.5242 125.816 42.585 125.885 42.6771C125.955 42.7692 125.985 42.8852 125.969 42.9995C125.953 43.1138 125.892 43.2171 125.8 43.2866C125.708 43.3561 125.592 43.3861 125.478 43.3701L125.456 43.3572ZM113.053 42.8788C112.953 42.8811 112.855 42.8483 112.776 42.7861C112.698 42.724 112.643 42.6364 112.622 42.5384C112.61 42.4826 112.609 42.425 112.62 42.3689C112.63 42.3129 112.652 42.2594 112.683 42.2117C112.714 42.164 112.755 42.123 112.802 42.091C112.849 42.0591 112.902 42.0368 112.958 42.0255C113.389 41.9393 113.82 41.8574 114.251 41.7928C114.365 41.7751 114.482 41.8035 114.575 41.8718C114.669 41.9401 114.731 42.0427 114.749 42.157C114.766 42.2713 114.738 42.3879 114.67 42.4813C114.601 42.5746 114.499 42.637 114.385 42.6547C113.954 42.7194 113.553 42.7969 113.135 42.8831C113.107 42.8855 113.08 42.8841 113.053 42.8788ZM119.918 42.3962H119.888C119.457 42.3703 119.026 42.3531 118.621 42.3487C118.507 42.3487 118.397 42.3033 118.316 42.2225C118.235 42.1417 118.19 42.0321 118.19 41.9178C118.19 41.8035 118.235 41.6939 118.316 41.613C118.397 41.5322 118.507 41.4868 118.621 41.4868C119.052 41.4868 119.483 41.5084 119.935 41.5342C120.05 41.5377 120.158 41.5863 120.236 41.6696C120.315 41.7528 120.357 41.8638 120.353 41.9781C120.35 42.0924 120.301 42.2007 120.218 42.2791C120.135 42.3575 120.024 42.3996 119.91 42.3962H119.918Z" fill="#E6E6E6"/>
<path d="M111.175 110.286H61.6611L71.4397 30.6353H115.596L120.208 36.7248L111.175 110.286Z" fill="#C1C1C1"/>
<path d="M105.817 110.286H56.2988L66.0774 30.6353H115.595L105.817 110.286Z" fill="#E6E6E6"/>
<path d="M103.379 95.1719H62.0063L69.0612 37.7373H110.434L103.379 95.1719Z" fill="white"/>
<path d="M89.4243 70.0986L101.379 70.2409L101.147 72.0897L89.4243 71.8871V70.0986Z" fill="#E6E6E6"/>
<path d="M56.2988 110.286L62.2548 115.785L110.432 116.517L111.173 110.286H56.2988Z" fill="#C1C1C1"/>
<path d="M94.5214 53.2778C94.5214 53.2778 96.5857 53.4244 97.6415 57.3073C98.6974 61.1903 98.3354 72.0291 98.3354 72.0291L89.4317 71.8869C89.4317 71.8869 84.9884 55.7559 94.5214 53.2778Z" fill="#24285B"/>
<path d="M51.7359 30.0002L19.3501 56.3101L36.3474 77.2327L68.7333 50.9229L51.7359 30.0002Z" fill="#2FBECC"/>
<path d="M51.5599 35.7889L37.0596 47.5688L39.8666 51.0242L54.367 39.2443L51.5599 35.7889Z" fill="white"/>
<path opacity="0.46" d="M40.0147 62.3428L34.83 66.5547C34.1243 67.128 34.017 68.1649 34.5903 68.8705L35.3213 69.7703C35.8946 70.476 36.9314 70.5834 37.6371 70.0101L42.8218 65.7981C43.5275 65.2248 43.6348 64.188 43.0615 63.4823L42.3305 62.5825C41.7572 61.8768 40.7204 61.7695 40.0147 62.3428Z" fill="white"/>
<path opacity="0.46" d="M58.9584 46.9549L44.5048 58.6968C43.7991 59.2701 43.6918 60.3069 44.2651 61.0126L44.9961 61.9124C45.5694 62.6181 46.6062 62.7255 47.3119 62.1522L61.7654 50.4103C62.4711 49.837 62.5785 48.8001 62.0052 48.0944L61.2742 47.1947C60.7009 46.489 59.6641 46.3816 58.9584 46.9549Z" fill="white"/>
<path opacity="0.3" d="M29.3931 59.8931C31.0211 59.8931 32.3409 58.5734 32.3409 56.9454C32.3409 55.3173 31.0211 53.9976 29.3931 53.9976C27.7651 53.9976 26.4453 55.3173 26.4453 56.9454C26.4453 58.5734 27.7651 59.8931 29.3931 59.8931Z" fill="white"/>
<path opacity="0.3" d="M32.3843 57.2081C34.0123 57.2081 35.3321 55.8883 35.3321 54.2603C35.3321 52.6323 34.0123 51.3125 32.3843 51.3125C30.7563 51.3125 29.4365 52.6323 29.4365 54.2603C29.4365 55.8883 30.7563 57.2081 32.3843 57.2081Z" fill="white"/>
<path d="M94.5206 53.2781C94.5206 53.2781 89.8361 54.9632 91.4694 68.1636C92.6675 77.8344 88.6207 90.6384 82.639 90.7935C76.6572 90.9487 65.6245 90.4229 65.6245 90.4229C65.6245 90.4229 71.3693 75.5546 70.1798 63.0696C69.997 61.3217 70.206 59.555 70.7918 57.898C71.4899 55.9975 72.7871 54.0194 75.2005 53.6961C80.0187 53.0411 94.5206 53.2781 94.5206 53.2781Z" fill="#3373BA"/>
<path d="M62.3103 91.3883L83.4491 90.9573C83.4491 90.9573 80.2255 87.7596 80.0229 79.6187L50.9458 80.0496C51.4442 82.1501 52.2104 84.1779 53.2256 86.0831C54.1038 87.7188 55.417 89.0799 57.0202 90.0161C58.6234 90.9523 60.4542 91.4272 62.3103 91.3883Z" fill="#3373BA"/>
<path opacity="0.44" d="M62.3103 91.3883L83.4491 90.9573C83.4491 90.9573 80.2255 87.7596 80.0229 79.6187L50.9458 80.0496C51.4442 82.1501 52.2104 84.1779 53.2256 86.0831C54.1038 87.7188 55.417 89.0799 57.0202 90.0161C58.6234 90.9523 60.4542 91.4272 62.3103 91.3883Z" fill="white"/>
<path d="M77.7599 41.8833L77.0229 46.723H98.3858L99.0323 41.8833H77.7599Z" fill="#24285B"/>
<path opacity="0.48" d="M83.6442 99.0461C81.3385 97.0292 77.6926 97.4257 76.0635 100.024C75.6524 100.656 75.4296 101.391 75.4214 102.145C75.4214 105.334 77.6236 107.424 82.0238 106.545C85.381 105.873 86.6609 101.679 83.6442 99.0461Z" fill="white"/>
<path d="M132.575 110.428C139.14 110.428 144.461 105.107 144.461 98.5422C144.461 91.9778 139.14 86.6562 132.575 86.6562C126.011 86.6562 120.689 91.9778 120.689 98.5422C120.689 105.107 126.011 110.428 132.575 110.428Z" fill="#EB7500"/>
<path opacity="0.09" d="M132.575 110.428C139.14 110.428 144.461 105.107 144.461 98.5422C144.461 91.9778 139.14 86.6562 132.575 86.6562C126.011 86.6562 120.689 91.9778 120.689 98.5422C120.689 105.107 126.011 110.428 132.575 110.428Z" fill="black"/>
<path d="M133.114 107.209C139.678 107.209 145 101.887 145 95.323C145 88.7585 139.678 83.437 133.114 83.437C126.55 83.437 121.228 88.7585 121.228 95.323C121.228 101.887 126.55 107.209 133.114 107.209Z" fill="#EB7500"/>
<path d="M128.863 94.452C129.167 94.452 129.431 94.414 129.655 94.338C129.883 94.262 130.069 94.158 130.213 94.026C130.361 93.89 130.471 93.73 130.543 93.546C130.615 93.362 130.651 93.16 130.651 92.94C130.651 92.5 130.505 92.162 130.213 91.926C129.925 91.69 129.483 91.572 128.887 91.572H127.855V94.452H128.863ZM133.015 99H131.557C131.281 99 131.081 98.892 130.957 98.676L129.133 95.898C129.065 95.794 128.989 95.72 128.905 95.676C128.825 95.632 128.705 95.61 128.545 95.61H127.855V99H126.241V90.324H128.887C129.475 90.324 129.979 90.386 130.399 90.51C130.823 90.63 131.169 90.8 131.437 91.02C131.709 91.24 131.909 91.504 132.037 91.812C132.165 92.116 132.229 92.452 132.229 92.82C132.229 93.112 132.185 93.388 132.097 93.648C132.013 93.908 131.889 94.144 131.725 94.356C131.565 94.568 131.365 94.754 131.125 94.914C130.889 95.074 130.619 95.2 130.315 95.292C130.419 95.352 130.515 95.424 130.603 95.508C130.691 95.588 130.771 95.684 130.843 95.796L133.015 99ZM135.118 97.404C135.286 97.608 135.468 97.752 135.664 97.836C135.864 97.92 136.08 97.962 136.312 97.962C136.536 97.962 136.738 97.92 136.918 97.836C137.098 97.752 137.25 97.624 137.374 97.452C137.502 97.28 137.6 97.064 137.668 96.804C137.736 96.54 137.77 96.23 137.77 95.874C137.77 95.514 137.74 95.21 137.68 94.962C137.624 94.71 137.542 94.506 137.434 94.35C137.326 94.194 137.194 94.08 137.038 94.008C136.886 93.936 136.712 93.9 136.516 93.9C136.208 93.9 135.946 93.966 135.73 94.098C135.514 94.226 135.31 94.408 135.118 94.644V97.404ZM135.04 93.684C135.292 93.4 135.578 93.17 135.898 92.994C136.218 92.818 136.594 92.73 137.026 92.73C137.362 92.73 137.668 92.8 137.944 92.94C138.224 93.08 138.464 93.284 138.664 93.552C138.868 93.816 139.024 94.144 139.132 94.536C139.244 94.924 139.3 95.37 139.3 95.874C139.3 96.334 139.238 96.76 139.114 97.152C138.99 97.544 138.812 97.884 138.58 98.172C138.352 98.46 138.074 98.686 137.746 98.85C137.422 99.01 137.058 99.09 136.654 99.09C136.31 99.09 136.016 99.038 135.772 98.934C135.528 98.826 135.31 98.678 135.118 98.49V101.01H133.636V92.844H134.542C134.734 92.844 134.86 92.934 134.92 93.114L135.04 93.684Z" fill="white"/>
<path d="M74.1665 58.6391C74.1099 58.6411 74.0535 58.6319 74.0005 58.612C73.9474 58.5922 73.8988 58.5621 73.8574 58.5235C73.816 58.4849 73.7825 58.4385 73.7591 58.387C73.7356 58.3354 73.7225 58.2798 73.7205 58.2232C73.7185 58.1666 73.7277 58.1102 73.7475 58.0571C73.7673 58.0041 73.7974 57.9555 73.836 57.914C73.8747 57.8726 73.9211 57.8392 73.9726 57.8157C74.0241 57.7922 74.0798 57.7791 74.1364 57.7771C74.2269 57.7771 83.2383 57.1135 88.0694 57.5444C88.1837 57.5547 88.2893 57.61 88.3628 57.6981C88.4363 57.7862 88.4719 57.8999 88.4616 58.0142C88.4513 58.1285 88.396 58.234 88.3079 58.3076C88.2199 58.3811 88.1062 58.4166 87.9919 58.4064C83.2512 57.9754 74.2872 58.6261 74.201 58.6348L74.1665 58.6391Z" fill="white"/>
<path d="M73.4512 64.4701C73.3946 64.4721 73.3382 64.4629 73.2851 64.4431C73.2321 64.4233 73.1835 64.3932 73.142 64.3546C73.0584 64.2766 73.0091 64.1685 73.0051 64.0542C73.0011 63.9399 73.0427 63.8287 73.1207 63.7451C73.1987 63.6614 73.3067 63.6122 73.421 63.6082C73.5115 63.6082 82.523 62.9445 87.3541 63.3755C87.4684 63.3858 87.5739 63.441 87.6475 63.5291C87.721 63.6172 87.7566 63.7309 87.7463 63.8452C87.736 63.9595 87.6807 64.0651 87.5926 64.1386C87.5045 64.2122 87.3908 64.2477 87.2765 64.2374C82.5359 63.8064 73.5762 64.4615 73.4857 64.4658L73.4512 64.4701Z" fill="white"/>
<path d="M73.3709 70.5292C73.2566 70.5338 73.1452 70.4928 73.0611 70.4152C72.9771 70.3376 72.9273 70.2298 72.9227 70.1155C72.9181 70.0012 72.9592 69.8898 73.0367 69.8057C73.1143 69.7216 73.2221 69.6719 73.3364 69.6673C73.4269 69.6673 82.4427 69.0036 87.2695 69.4346C87.3261 69.4397 87.3811 69.4558 87.4315 69.4822C87.4818 69.5086 87.5265 69.5446 87.5629 69.5882C87.5993 69.6318 87.6268 69.6822 87.6437 69.7364C87.6607 69.7907 87.6668 69.8477 87.6617 69.9043C87.6566 69.9609 87.6404 70.0159 87.614 70.0663C87.5877 70.1166 87.5516 70.1613 87.508 70.1977C87.4644 70.2341 87.414 70.2616 87.3598 70.2785C87.3056 70.2955 87.2485 70.3016 87.1919 70.2965C82.4513 69.8655 73.4916 70.5206 73.4011 70.5249L73.3709 70.5292Z" fill="white"/>
<path d="M72.7959 76.5889C72.7393 76.5909 72.6829 76.5817 72.6299 76.5619C72.5768 76.542 72.5282 76.5119 72.4868 76.4733C72.4453 76.4347 72.4119 76.3883 72.3885 76.3368C72.365 76.2853 72.3519 76.2296 72.3499 76.173C72.3479 76.1164 72.3571 76.06 72.3769 76.0069C72.3967 75.9539 72.4268 75.9053 72.4654 75.8638C72.5041 75.8224 72.5505 75.789 72.602 75.7655C72.6535 75.7421 72.7092 75.7289 72.7658 75.727C72.8563 75.727 81.8677 75.0633 86.6988 75.4985C86.7554 75.5036 86.8105 75.5198 86.8608 75.5462C86.9111 75.5726 86.9558 75.6086 86.9922 75.6522C87.0286 75.6958 87.0561 75.7462 87.073 75.8004C87.09 75.8547 87.0961 75.9117 87.091 75.9683C87.0859 76.0249 87.0697 76.0799 87.0434 76.1303C87.017 76.1806 86.981 76.2253 86.9373 76.2617C86.8937 76.2981 86.8434 76.3256 86.7891 76.3425C86.7349 76.3595 86.6778 76.3656 86.6212 76.3605C81.8806 75.9295 72.9209 76.5846 72.8304 76.5889H72.7959Z" fill="white"/>
</svg>
