<svg width="161" height="161" viewBox="0 0 161 161" fill="none" xmlns="http://www.w3.org/2000/svg">
<path opacity="0.3" d="M10.9007 62.9421C10.9007 62.9421 -15.5642 122.719 54.1161 123.557C123.796 124.395 155.651 115.213 155.966 84.8162C156.281 54.4191 131.186 25.9978 87.4429 25.6831C43.6997 25.3683 20.0435 36.8065 10.9007 62.9421Z" fill="#E6E6E6"/>
<path d="M113.748 42.1094H70.0337L70.6342 84.9664H130.639V59.0004C130.639 54.5206 128.859 50.2243 125.692 47.0566C122.524 43.889 118.228 42.1094 113.748 42.1094V42.1094Z" fill="#3373BA"/>
<path d="M70.0336 42.1094C74.5134 42.1094 78.8097 43.889 81.9773 47.0566C85.145 50.2243 86.9246 54.5206 86.9246 59.0004V84.9664H53.1426V59.0004C53.1426 54.5206 54.9222 50.2243 58.0898 47.0566C61.2575 43.889 65.5538 42.1094 70.0336 42.1094V42.1094Z" fill="#24285B"/>
<path d="M70.0338 127.824C65.554 127.824 61.2577 126.045 58.09 122.877C54.9224 119.709 53.1428 115.413 53.1428 110.933L53.1428 84.9671H86.9248V110.933C86.9248 115.413 85.1452 119.709 81.9775 122.877C78.8099 126.045 74.5136 127.824 70.0338 127.824V127.824Z" fill="#3373BA"/>
<path opacity="0.09" d="M70.0338 127.824C65.554 127.824 61.2577 126.045 58.09 122.877C54.9224 119.709 53.1428 115.413 53.1428 110.933L53.1428 84.9671H86.9248V110.933C86.9248 115.413 85.1452 119.709 81.9775 122.877C78.8099 126.045 74.5136 127.824 70.0338 127.824V127.824Z" fill="black"/>
<path d="M101.559 23.1172C101.816 23.1172 102.063 23.2192 102.244 23.4009C102.426 23.5825 102.528 23.8288 102.528 24.0857V59.7515H100.547V24.1051C100.547 23.8482 100.649 23.6019 100.831 23.4202C101.013 23.2386 101.259 23.1366 101.516 23.1366L101.559 23.1172Z" fill="#3373BA"/>
<path opacity="0.44" d="M101.559 23.1172C101.816 23.1172 102.063 23.2192 102.244 23.4009C102.426 23.5825 102.528 23.8288 102.528 24.0857V59.7515H100.547V24.1051C100.547 23.8482 100.649 23.6019 100.831 23.4202C101.013 23.2386 101.259 23.1366 101.516 23.1366L101.559 23.1172Z" fill="white"/>
<path d="M101.617 63.538C103.698 63.538 105.385 61.8512 105.385 59.7705C105.385 57.6897 103.698 56.0029 101.617 56.0029C99.5364 56.0029 97.8496 57.6897 97.8496 59.7705C97.8496 61.8512 99.5364 63.538 101.617 63.538Z" fill="#FFD200"/>
<path d="M102.547 24.1055H111.821V27.7568L102.547 30.1055V24.1055Z" fill="#FFD200"/>
<path d="M109.636 84.9668H93.3169V90.899H109.636V84.9668Z" fill="#24285B"/>
<path d="M105.38 90.8994H97.438V138.105H105.38V90.8994Z" fill="#3373BA"/>
<path opacity="0.44" d="M105.38 90.8994H97.438V138.105H105.38V90.8994Z" fill="white"/>
<path opacity="0.09" d="M97.438 90.8994V106.72L105.38 101.66V90.8994H97.438Z" fill="black"/>
<path d="M29.4817 59.4705C39.1794 59.4705 47.041 51.9862 47.041 42.7538C47.041 33.5214 39.1794 26.0371 29.4817 26.0371C19.7839 26.0371 11.9224 33.5214 11.9224 42.7538C11.9224 51.9862 19.7839 59.4705 29.4817 59.4705Z" fill="#FF9124"/>
<path d="M37.7871 55.0784L48.7944 60.5118L40.7266 50.2939L37.7871 55.0784Z" fill="#FF9124"/>
<path d="M37.9465 42.5652C38.5747 42.21 39.0881 41.6825 39.4262 41.0449C39.7643 40.4074 39.9129 39.6864 39.8545 38.9671C39.8081 38.1974 39.5136 37.4634 39.0151 36.875C38.5167 36.2866 37.841 35.8755 37.0894 35.7032C35.7335 35.3545 33.0507 35.403 32.4502 36.9817C31.6899 38.9671 33.9998 40.3327 33.9901 42.2214C33.9937 42.6954 33.8947 43.1645 33.7 43.5967C33.5053 44.0289 33.2195 44.4138 32.8621 44.7252C32.5048 45.0366 32.0843 45.2671 31.6295 45.4007C31.1747 45.5344 30.6965 45.5682 30.2274 45.4998C29.1244 45.2666 28.1042 44.7415 27.2734 43.9792C26.6148 43.4223 26.0095 42.4974 25.1378 42.2601C24.2662 42.0228 23.3945 42.7879 22.7843 43.3691C22.0425 44.0008 21.5315 44.861 21.3315 45.8146C21.0071 47.8097 22.5906 48.9768 24.3824 49.2431C25.4568 49.3975 26.5506 49.3499 27.6076 49.1027C28.3969 48.9187 29.3557 48.6184 29.8497 47.9308C30.3969 47.1463 29.995 46.3182 29.4962 45.6257C28.9152 44.8089 28.2533 44.0528 27.5204 43.3691C26.7747 42.6902 25.9636 42.0867 25.0991 41.5676C24.2142 41.0792 23.3041 40.6379 22.3727 40.2456C20.2226 39.2383 21.5882 36.0325 22.8279 34.7928C23.5252 34.0955 24.5761 33.432 25.6027 33.5434C26.7649 33.6693 26.9393 34.8412 26.6826 35.7807C26.116 37.8291 24.0967 39.0785 22.2177 39.7274C18.3824 41.0446 19.0119 46.2746 20.9877 48.8896C23.3703 52.0712 27.7674 52.8218 31.3557 51.34C32.9247 50.6862 34.8037 49.3739 34.0434 47.4272C33.6383 46.5158 33.1086 45.665 32.4695 44.8993C31.901 44.1271 31.1911 43.4698 30.3775 42.9623C29.0168 42.1536 27.1427 42.0325 25.8158 42.9913C24.0725 44.2601 24.794 46.3134 24.5519 48.1197C24.4453 48.9042 23.9901 50.0228 23.0991 50.1051C22.5131 50.1584 22.0095 49.708 21.6027 49.3448C21.1758 48.9655 20.7685 48.5647 20.3824 48.1439C19.645 47.3195 18.9958 46.4204 18.4454 45.4611C17.8788 44.4925 17.2202 43.3206 17.2734 42.1487C17.3751 39.9889 20.0967 38.7298 21.8255 38.0616C24.1403 37.1657 26.455 37.4562 28.8085 38.0277C29.9465 38.3037 31.0749 38.6185 32.1984 38.8364C33.1959 39.0252 34.3436 39.2625 35.317 38.8364C36.8569 38.1778 37.501 36.1197 37.6608 34.5894C37.7933 33.799 37.6088 32.9881 37.1475 32.3328C36.5615 31.6112 35.6511 31.4853 34.7746 31.4514C32.8376 31.3691 30.5373 31.3981 29.2395 33.1027C28.087 34.6136 28.8279 36.2311 29.7238 37.6354C30.208 38.4005 30.7892 39.2189 30.8424 40.1584C30.8645 40.6584 30.7571 41.1556 30.5306 41.6019C30.3041 42.0482 29.9661 42.4283 29.5494 42.7056C28.9054 43.1269 27.9804 43.1899 27.5543 43.9211C27.1281 44.6524 27.6027 45.7129 27.932 46.4344C28.7099 48.0903 29.9822 49.4642 31.5737 50.3666C33.2831 51.3351 35.5252 51.863 37.2395 50.6281C38.8715 49.4514 40.0192 47.4223 40.5567 45.5143C40.8279 44.5458 40.8424 43.5773 40.1112 42.8509C39.3415 42.1463 38.4506 41.5869 37.4816 41.1996C35.9562 40.5168 33.7528 40.3473 32.6778 41.9066C32.4576 42.2268 32.3142 42.5935 32.2588 42.9782C32.2034 43.3629 32.2374 43.7551 32.3582 44.1245C32.5102 44.4901 32.755 44.8097 33.0684 45.0518C33.3818 45.2938 33.7529 45.4499 34.1451 45.5047C36.0821 45.9211 38.5034 46.1439 40.363 45.3061C41.8594 44.633 43.0894 43.1221 42.9054 41.432C42.8569 40.972 42.1305 40.9478 42.179 41.432C42.392 43.3691 40.5809 44.7298 38.8327 45.0252C37.7934 45.1705 36.7389 45.1705 35.6996 45.0252C34.8715 44.9332 33.5737 44.9429 33.1185 44.0906C32.9351 43.6761 32.9161 43.2074 33.0654 42.7794C33.2147 42.3514 33.521 41.9961 33.9223 41.7855C34.3396 41.5809 34.7949 41.4654 35.2593 41.4462C35.7236 41.427 36.1869 41.5047 36.6197 41.6741C37.56 42.0111 38.4435 42.4896 39.2395 43.093C39.4933 43.2499 39.6996 43.4731 39.8361 43.7384C39.9726 44.0038 40.0343 44.3013 40.0143 44.5991C39.9449 45.1643 39.7914 45.716 39.5591 46.2359C38.886 47.955 37.5155 50.2795 35.5349 50.6233C33.7044 50.9429 31.6608 49.8582 30.3921 48.6427C29.7722 48.0642 29.2461 47.3927 28.8327 46.6523C28.6198 46.272 28.4415 45.8733 28.3001 45.4611C28.1112 44.9187 27.9708 44.3618 28.5277 44.0083C29.2008 43.5967 29.9272 43.4708 30.5083 42.8848C31.0317 42.3561 31.3814 41.6804 31.5107 40.9478C31.7964 39.3449 30.8182 38.0906 30.0579 36.7976C29.6415 36.1197 29.2395 35.3449 29.3896 34.5265C29.4985 34.0917 29.7095 33.6892 30.0052 33.3523C30.3008 33.0154 30.6725 32.7539 31.0894 32.5894C32.1367 32.2118 33.2555 32.0745 34.363 32.1875C35.3315 32.1875 36.4695 32.1875 36.8424 33.2674C37.0525 34.0677 37.0103 34.9133 36.7214 35.6887C36.5256 36.5363 36.0823 37.3066 35.4477 37.9018C34.5712 38.6088 33.2637 38.2988 32.2565 38.1003C31.2492 37.9018 30.2613 37.616 29.2686 37.3933C27.3654 36.909 25.3945 36.5168 23.4574 36.8315C21.6128 37.1659 19.8736 37.9326 18.3824 39.0688C17.0555 40.0712 16.2323 41.4659 16.6245 43.1705C17.0168 44.8751 18.1596 46.5894 19.2686 47.955C19.8805 48.7138 20.5632 49.4126 21.3073 50.0422C21.5636 50.3088 21.8761 50.5149 22.2221 50.6456C22.568 50.7762 22.9388 50.8282 23.3073 50.7976C24.702 50.5458 25.2976 48.8945 25.3219 47.6499C25.3219 46.6814 25.1524 45.7129 25.4187 44.7783C25.5374 44.3817 25.7575 44.023 26.0573 43.7376C26.3571 43.4523 26.7262 43.2501 27.1281 43.1511C28.9199 42.6669 30.518 43.679 31.6415 45.001C32.2409 45.7152 32.765 46.4892 33.2056 47.3109C33.7964 48.4151 33.3557 49.3255 32.3824 49.9937C29.3557 52.0761 24.6972 51.8049 22.1354 49.1124C20.9258 47.8529 20.2195 46.1939 20.15 44.449C20.1029 43.5748 20.2691 42.7023 20.6342 41.9066C21.1185 40.9381 21.8739 40.6136 22.8424 40.2746C24.4599 39.7261 25.8486 38.6543 26.7892 37.2286C27.472 36.1826 27.9175 34.5071 26.978 33.4708C25.8545 32.2214 23.9417 32.9478 22.8231 33.8146C21.6078 34.7696 20.8095 36.158 20.5955 37.6887C20.4889 38.4683 20.4744 39.4078 20.949 40.0809C21.4236 40.7541 22.1499 40.9478 22.857 41.2238C24.6335 41.9542 26.2419 43.0402 27.5834 44.4151C28.2814 45.0502 28.8674 45.7984 29.317 46.6281C29.8352 47.771 28.2419 48.1971 27.4478 48.3812C25.8788 48.7492 22.6391 48.8993 22.1209 46.8412C21.8545 45.8 22.4114 44.7879 23.1185 44.0664C23.4575 43.7082 23.8417 43.3957 24.2613 43.1366C24.8909 42.7686 25.3412 43.0979 25.7916 43.5482C27.0313 44.7831 28.4599 45.9695 30.2516 46.2262C30.96 46.3069 31.6771 46.1973 32.329 45.9087C32.9809 45.6201 33.544 45.1629 33.9604 44.5842C34.3768 44.0055 34.6314 43.3262 34.6979 42.6164C34.7644 41.9065 34.6404 41.1918 34.3388 40.5458C33.9126 39.679 33.1088 38.8896 33.07 37.8775C33.0216 36.7395 34.0385 36.4683 34.978 36.3279C36.6342 36.0761 38.6245 36.6282 39.0749 38.4441C39.2506 39.1056 39.2035 39.8065 38.9409 40.4385C38.6783 41.0705 38.2148 41.5984 37.6221 41.9405C37.2105 42.1536 37.5737 42.7831 37.9901 42.5652H37.9465Z" fill="white"/>
</svg>
