<svg width="160" height="160" viewBox="0 0 160 160" fill="none" xmlns="http://www.w3.org/2000/svg">
<path d="M81.2632 90.5996V102.311" stroke="#C9C9C9" stroke-width="2.03" stroke-miterlimit="10"/>
<path d="M81.2629 106.965C82.5481 106.965 83.5899 105.924 83.5899 104.638C83.5899 103.353 82.5481 102.312 81.2629 102.312C79.9778 102.312 78.936 103.353 78.936 104.638C78.936 105.924 79.9778 106.965 81.2629 106.965Z" stroke="#C9C9C9" stroke-width="2.03" stroke-miterlimit="10"/>
<path d="M125.705 29H36.8164V97.3135H125.705V29Z" fill="#E1EFFF"/>
<path d="M125.705 29H36.8164V38.9777H125.705V29Z" fill="#3373BA"/>
<path opacity="0.45" d="M80 131.466C121.421 131.466 155 129.291 155 126.609C155 123.926 121.421 121.751 80 121.751C38.5786 121.751 5 123.926 5 126.609C5 129.291 38.5786 131.466 80 131.466Z" fill="#E6E6E6"/>
<path d="M42.4341 120.057C42.4341 120.057 42.4341 121.76 43.7922 122.348C45.1503 122.937 45.0191 124.399 43.6655 124.322C42.3119 124.245 39.6816 121.569 39.6816 121.569L40.6595 119.098L42.4341 120.057Z" fill="#6C757D"/>
<path d="M37.1919 102.153C37.1919 102.153 45.1324 102.507 44.2677 107.889C43.403 113.272 39.8991 119.098 39.8991 119.098L42.9503 120.375C42.9503 120.375 49.0257 113.421 49.6006 104.843C50.1755 96.2638 38.0475 98.1742 37.1919 102.153Z" fill="#333333"/>
<path opacity="0.08" d="M37.1919 102.153C37.1919 102.153 45.1324 102.507 44.2677 107.889C43.403 113.272 39.8991 119.098 39.8991 119.098L42.9503 120.375C42.9503 120.375 49.0257 113.421 49.6006 104.843C50.1755 96.2638 38.0475 98.1742 37.1919 102.153Z" fill="black"/>
<path d="M48.8131 120.424C48.8131 120.424 48.8131 122.131 50.1713 122.719C51.5294 123.308 51.3981 124.77 50.0445 124.693C48.6909 124.616 46.0562 121.954 46.0562 121.954L47.034 119.482L48.8131 120.424Z" fill="#6C757D"/>
<path d="M31.0442 119.999H32.8369V104.553H31.0442L31.0442 119.999Z" fill="#E85559"/>
<path opacity="0.46" d="M31.0442 119.999H32.8369V104.553H31.0442L31.0442 119.999Z" fill="white"/>
<path d="M26.0056 67.1138C26.0056 67.1138 24.3623 58.2769 16.4309 62.2744C10.5864 65.2215 16.2951 88.717 19.7039 100.863C20.2836 102.946 21.5295 104.782 23.2512 106.09C24.9729 107.398 27.0757 108.106 29.238 108.106H40.4243C43.8423 108.106 44.4534 103.231 41.1396 102.389L40.945 102.339C39.0164 101.886 36.7529 101.542 34.6931 101.271C32.9526 101.044 31.3432 100.225 30.136 98.9514C28.9288 97.6774 28.1976 96.0263 28.0654 94.2762L26.0056 67.1138Z" fill="#E85559"/>
<path d="M32.8372 119.999L39.2475 125.056H24.9736L31.0444 119.999H32.8372Z" fill="#333333"/>
<path d="M30.6004 55.0308C31.2105 55.9932 31.6886 57.0331 32.0219 58.1228C32.0528 58.2547 32.0575 58.3915 32.0355 58.5253C32.0136 58.659 31.9655 58.7872 31.894 58.9024C31.8226 59.0175 31.7291 59.1175 31.619 59.1966C31.5089 59.2757 31.3843 59.3323 31.2523 59.3632C30.8336 59.4881 30.3877 59.4892 29.9683 59.3663C29.549 59.2434 29.1742 59.0018 28.8892 58.6705L27.5311 57.3758C27.2833 57.0871 27.1315 56.7286 27.0966 56.3498C27.0617 55.971 27.1455 55.5907 27.3364 55.2616C27.9476 53.976 29.9802 53.9443 30.6004 55.0308Z" fill="#F4A28C"/>
<path d="M28.2422 56.9414L27.9751 63.6415L31.6782 63.5238L30.3835 58.6979L28.2422 56.9414Z" fill="#F4A28C"/>
<path d="M49.8088 93.8281C49.8088 93.8281 53.3354 94.1631 52.6111 96.2048C51.8868 98.2465 49.3335 95.8336 49.3335 95.8336L49.8088 93.8281Z" fill="#F4A28C"/>
<path opacity="0.08" d="M49.8088 93.8281C49.8088 93.8281 53.3354 94.1631 52.6111 96.2048C51.8868 98.2465 49.3335 95.8336 49.3335 95.8336L49.8088 93.8281Z" fill="black"/>
<path d="M30.2114 55.3383C29.6627 55.6535 29.0794 55.9042 28.473 56.0853C28.7572 56.2513 28.9871 56.4962 29.135 56.7903C29.2828 57.0844 29.3422 57.415 29.306 57.7422C29.2806 58.0631 29.1443 58.3652 28.9204 58.5965C28.6965 58.8278 28.3991 58.9739 28.0792 59.0098L26.8885 56.6693C26.7073 56.3395 26.6183 55.967 26.6311 55.5909C26.6438 55.2149 26.7578 54.8492 26.961 54.5325C27.1375 54.2581 27.331 53.995 27.5404 53.7448C28.0837 53.1427 29.306 53.0612 29.6636 52.2916C29.7029 52.2164 29.7608 52.1526 29.8319 52.1063C29.9029 52.06 29.9847 52.0329 30.0694 52.0274C30.154 52.0219 30.2386 52.0384 30.315 52.0751C30.3914 52.1119 30.4571 52.1677 30.5057 52.2373C30.9584 52.8937 31.4382 54.0481 30.6822 54.9535C30.5477 55.107 30.3886 55.2371 30.2114 55.3383V55.3383Z" fill="#24285B"/>
<path d="M29.487 57.5882C29.487 57.5882 29.1068 56.8956 28.6088 57.2261C28.1108 57.5565 28.6541 58.5525 29.4191 58.2763L29.487 57.5882Z" fill="#F4A28C"/>
<path d="M31.2388 56.1494L32.108 56.6021C32.157 56.6274 32.1989 56.6646 32.2299 56.7102C32.2609 56.7559 32.28 56.8086 32.2854 56.8635C32.2908 56.9184 32.2824 56.9738 32.2609 57.0246C32.2394 57.0754 32.2055 57.1201 32.1623 57.1544L31.5376 57.6433L31.2388 56.1494Z" fill="#F4A28C"/>
<path d="M25.4896 68.2499C25.7449 67.3339 26.2677 66.515 26.9912 65.898C27.7147 65.2809 28.6059 64.8939 29.5506 64.7865C30.4954 64.679 31.4508 64.856 32.2943 65.2948C33.1379 65.7336 33.8313 66.4141 34.2857 67.2494C34.408 67.4712 34.5257 67.7021 34.6388 67.9511C36.3637 71.5727 36.1147 78.3633 35.671 83.0127C35.537 84.4364 35.8825 85.864 36.6526 87.0689C37.4228 88.2738 38.5735 89.1868 39.9219 89.6629L49.9494 93.1986L49.4741 96.1729L35.6122 93.4566C33.8968 93.1166 32.2985 92.3389 30.9722 91.1991C29.646 90.0593 28.6369 88.596 28.0429 86.9512C26.137 81.6636 23.9233 73.7005 25.4896 68.2499Z" fill="#3374B9"/>
<path opacity="0.08" d="M25.4896 68.2499C25.7449 67.3339 26.2677 66.515 26.9912 65.898C27.7147 65.2809 28.6059 64.8939 29.5506 64.7865C30.4954 64.679 31.4508 64.856 32.2943 65.2948C33.1379 65.7336 33.8313 66.4141 34.2857 67.2494C34.408 67.4712 34.5257 67.7021 34.6388 67.9511C36.3637 71.5727 36.1147 78.3633 35.671 83.0127C35.537 84.4364 35.8825 85.864 36.6526 87.0689C37.4228 88.2738 38.5735 89.1868 39.9219 89.6629L49.9494 93.1986L49.4741 96.1729L35.6122 93.4566C33.8968 93.1166 32.2985 92.3389 30.9722 91.1991C29.646 90.0593 28.6369 88.596 28.0429 86.9512C26.137 81.6636 23.9233 73.7005 25.4896 68.2499Z" fill="black"/>
<path opacity="0.31" d="M30.7135 59.7387C30.2428 59.6803 29.8 59.4833 29.4414 59.1729C29.4414 59.1729 29.6361 60.3816 31.1164 61.4364L30.7135 59.7387Z" fill="#CE8172"/>
<path d="M27.9746 63.6411L31.6777 63.5234C31.6777 63.5234 39.7948 65.2709 41.7822 75.5564C43.7695 85.8419 38.0926 95.0862 38.0926 95.0862L26.3901 95.1858C26.3901 95.1858 10.9166 65.366 27.9746 63.6411Z" fill="#3374B9"/>
<path opacity="0.08" d="M26.0689 68.0371C26.0689 68.0371 20.5142 70.7986 23.3074 83.2481C25.3536 92.3837 28.9526 95.186 28.9526 95.186L35.2905 94.9868L32.1216 79.3548L26.0689 68.0371Z" fill="black"/>
<path d="M55.4993 99.084L62.5751 84.4842L60.6511 83.6738L54.1774 96.3949L42.7329 95.2043L42.4658 96.585L55.4993 99.084Z" fill="#FFD200"/>
<path d="M26.3901 95.1855C26.3901 95.1855 26.5486 101.886 31.0847 102.46C35.6208 103.035 45.9969 99.5496 47.2916 105.199C48.5864 110.849 46.0059 119.844 46.0059 119.844L49.1749 120.727C49.1749 120.727 56.2779 107.146 52.0949 100.695C47.9118 94.2439 38.1017 95.0859 38.1017 95.0859L26.3901 95.1855Z" fill="#333333"/>
<path d="M25.159 69.7934C25.414 68.8764 25.9371 68.0565 26.6613 67.4389C27.3855 66.8213 28.2777 66.4342 29.2234 66.3272C30.1691 66.2201 31.1253 66.3981 31.9692 66.8383C32.813 67.2784 33.5062 67.9606 33.9596 68.7975C34.0773 69.0193 34.195 69.2502 34.3127 69.4991C36.033 73.1434 35.784 79.9114 35.3449 84.5607C35.2095 85.9841 35.5545 87.4118 36.3249 88.6163C37.0954 89.8207 38.2469 90.7326 39.5958 91.2065L49.6188 94.7466L49.1434 97.7209L35.2861 95.0047C33.5707 94.663 31.9726 93.8842 30.6466 92.7437C29.3205 91.6032 28.3113 90.1397 27.7168 88.4947C25.8064 83.2116 23.5926 75.2485 25.159 69.7934Z" fill="#3374B9"/>
<path opacity="0.46" d="M25.159 69.7934C25.414 68.8764 25.9371 68.0565 26.6613 67.4389C27.3855 66.8213 28.2777 66.4342 29.2234 66.3272C30.1691 66.2201 31.1253 66.3981 31.9692 66.8383C32.813 67.2784 33.5062 67.9606 33.9596 68.7975C34.0773 69.0193 34.195 69.2502 34.3127 69.4991C36.033 73.1434 35.784 79.9114 35.3449 84.5607C35.2095 85.9841 35.5545 87.4118 36.3249 88.6163C37.0954 89.8207 38.2469 90.7326 39.5958 91.2065L49.6188 94.7466L49.1434 97.7209L35.2861 95.0047C33.5707 94.663 31.9726 93.8842 30.6466 92.7437C29.3205 91.6032 28.3113 90.1397 27.7168 88.4947C25.8064 83.2116 23.5926 75.2485 25.159 69.7934Z" fill="white"/>
<path d="M49.5193 95.3672C49.5193 95.3672 53.141 96.0508 52.4212 98.0834C51.7013 100.116 49.1436 97.7122 49.1436 97.7122L49.5193 95.3672Z" fill="#F4A28C"/>
<path d="M112.812 120.424C112.812 120.424 112.812 122.131 111.454 122.719C110.096 123.308 110.227 124.77 111.581 124.693C112.934 124.616 115.564 121.941 115.564 121.941L114.587 119.469L112.812 120.424Z" fill="#6C757D"/>
<path d="M102.522 120.642C102.522 120.642 101.286 121.814 99.9372 121.275C98.5881 120.737 97.6103 121.828 98.6107 122.742C99.6112 123.657 103.364 123.675 103.364 123.675L104.446 121.248L102.522 120.642Z" fill="#6C757D"/>
<path d="M130.581 104.553H128.788V119.999H130.581V104.553Z" fill="#E85559"/>
<path opacity="0.46" d="M130.581 104.553H128.788V119.999H130.581V104.553Z" fill="white"/>
<path d="M135.619 67.1138C135.619 67.1138 137.263 58.2769 145.194 62.2744C151.039 65.2215 145.33 88.717 141.921 100.863C141.341 102.946 140.096 104.782 138.374 106.09C136.652 107.398 134.549 108.106 132.387 108.106H121.205C117.787 108.106 117.176 103.231 120.49 102.389L120.685 102.339C122.613 101.886 124.877 101.542 126.937 101.271C128.677 101.044 130.286 100.224 131.493 98.9505C132.7 97.6767 133.431 96.026 133.564 94.2762L135.619 67.1138Z" fill="#E85559"/>
<path d="M128.788 119.999L122.373 125.056H136.651L130.581 119.999H128.788Z" fill="#333333"/>
<path d="M89.6425 73.8909C86.9791 73.8927 84.375 73.1045 82.1596 71.626C79.9443 70.1475 78.2172 68.0451 77.1969 65.5849C76.1767 63.1246 75.909 60.4171 76.4279 57.8047C76.9467 55.1923 78.2287 52.7925 80.1117 50.9088C81.9947 49.0252 84.3941 47.7424 87.0063 47.2227C89.6185 46.703 92.3262 46.9697 94.7867 47.9892C97.2473 49.0086 99.3503 50.735 100.83 52.9498C102.309 55.1647 103.098 57.7685 103.097 60.4319C103.092 63.9992 101.673 67.4191 99.1512 69.942C96.6292 72.4648 93.2098 73.8849 89.6425 73.8909ZM89.6425 50.5946C87.6967 50.5937 85.7943 51.1699 84.1759 52.2503C82.5576 53.3307 81.296 54.8667 80.5508 56.6642C79.8055 58.4616 79.61 60.4397 79.9891 62.3483C80.3682 64.2569 81.3047 66.0101 82.6803 67.3864C84.0559 68.7626 85.8088 69.6999 87.7171 70.0799C89.6255 70.4598 91.6037 70.2653 93.4015 69.5209C95.1993 68.7764 96.736 67.5155 97.8171 65.8977C98.8982 64.2799 99.4753 62.3777 99.4753 60.4319C99.4741 57.824 98.4379 55.3233 96.5943 53.4788C94.7507 51.6343 92.2504 50.597 89.6425 50.5946V50.5946Z" fill="#FF9124"/>
<path d="M103.097 60.4316H99.4755C99.4731 57.8234 98.4359 55.3226 96.5916 53.4782C94.7472 51.6339 92.2465 50.5967 89.6382 50.5943V46.9727C93.2063 46.9774 96.6268 48.397 99.1498 50.92C101.673 53.443 103.092 56.8636 103.097 60.4316V60.4316Z" fill="#EB7500"/>
<path d="M89.6426 73.8906V70.269C92.2501 70.2654 94.7497 69.2276 96.593 67.3834C98.4364 65.5392 99.473 63.0391 99.4754 60.4316H103.097C103.092 63.9989 101.673 67.4188 99.1513 69.9417C96.6293 72.4646 93.2099 73.8846 89.6426 73.8906Z" fill="#FFC489"/>
<path opacity="0.08" d="M100.539 57.4387C100.539 57.4387 96.3561 56.6148 97.0986 61.237C97.841 65.8591 99.3621 80.5857 106.945 83.6731C114.528 86.7606 118.53 91.3918 114.301 93.3203C110.073 95.2489 100.494 87.3853 99.0226 97.3132L124.601 97.5848L129.354 84.66L119.571 77.4846L110.114 76.6833L100.539 57.4387Z" fill="black"/>
<path d="M131.024 55.0312C130.414 55.9891 129.934 57.0245 129.598 58.1096C129.567 58.2416 129.562 58.3786 129.584 58.5126C129.605 58.6465 129.653 58.7749 129.725 58.8902C129.796 59.0056 129.89 59.1056 130 59.1845C130.111 59.2634 130.236 59.3197 130.368 59.35C130.787 59.475 131.233 59.4761 131.652 59.3532C132.071 59.2303 132.446 58.9886 132.731 58.6574L134.089 57.3627C134.337 57.074 134.489 56.7154 134.524 56.3366C134.559 55.9578 134.475 55.5776 134.284 55.2485C133.655 53.9764 131.645 53.9447 131.024 55.0312Z" fill="#F4A28C"/>
<path d="M133.383 56.9414L133.65 63.6415L129.947 63.5238L131.242 58.6979L133.383 56.9414Z" fill="#F4A28C"/>
<path d="M129.06 103.33C129.06 103.33 114.12 106.047 105.066 121.747L101.802 120.488C101.802 120.488 108.045 101.927 121.269 100.116C134.492 98.3054 129.06 103.33 129.06 103.33Z" fill="#333333"/>
<path opacity="0.08" d="M129.06 103.33C129.06 103.33 114.12 106.047 105.066 121.747L101.802 120.488C101.802 120.488 108.045 101.927 121.269 100.116C134.492 98.3054 129.06 103.33 129.06 103.33Z" fill="black"/>
<path d="M130.386 56.1494L129.517 56.6021C129.468 56.627 129.426 56.6638 129.394 56.7093C129.363 56.7547 129.343 56.8073 129.337 56.8622C129.331 56.9172 129.339 56.9727 129.361 57.0238C129.382 57.0748 129.415 57.1197 129.458 57.1544L130.083 57.6433L130.386 56.1494Z" fill="#F4A28C"/>
<path d="M131.885 67.349C126.262 69.0693 119.612 74.9183 115.003 73.9676C108.149 72.5597 104.043 60.8934 104.043 60.8934C104.043 60.8934 103.097 56.5248 101.286 56.1491C99.4753 55.7733 101.033 58.6525 101.033 58.6525C101.033 58.6525 98.9728 60.1963 101.033 62.2153C107.733 93.9456 124.904 81.4644 132.98 77.2362C134.053 76.6904 135.074 76.0496 136.031 75.3212C140.011 72.2383 136.697 65.8777 131.885 67.349Z" fill="#F4A28C"/>
<path opacity="0.08" d="M131.885 67.349C126.262 69.0693 119.612 74.9183 115.003 73.9676C108.149 72.5597 104.043 60.8934 104.043 60.8934C104.043 60.8934 103.097 56.5248 101.286 56.1491C99.4753 55.7733 101.033 58.6525 101.033 58.6525C101.033 58.6525 98.9728 60.1963 101.033 62.2153C107.733 93.9456 124.904 81.4644 132.98 77.2362C134.053 76.6904 135.074 76.0496 136.031 75.3212C140.011 72.2383 136.697 65.8777 131.885 67.349Z" fill="black"/>
<path opacity="0.31" d="M130.911 59.7387C131.382 59.6803 131.825 59.4833 132.183 59.1729C132.183 59.1729 131.989 60.3816 130.508 61.4364L130.911 59.7387Z" fill="#CE8172"/>
<path d="M133.65 63.6411L129.947 63.5234C129.947 63.5234 121.83 65.2709 119.843 75.5564C117.855 85.8419 123.528 95.0862 123.528 95.0862L135.235 95.1858C135.235 95.1858 150.708 65.366 133.65 63.6411Z" fill="#3374B9"/>
<path opacity="0.08" d="M128.788 68.7295C128.788 68.7295 122.903 73.741 123.695 81.5502C124.487 89.3594 120.2 86.5299 120.2 86.5299C120.2 86.5299 121.142 90.4549 121.739 91.383C122.337 92.311 133.003 80.0653 133.003 80.0653L128.788 68.7295Z" fill="black"/>
<path d="M135.239 95.1855C135.239 95.1855 135.076 102.592 130.545 103.167C126.013 103.742 115.632 99.5451 114.333 105.199C113.034 110.854 115.623 119.844 115.623 119.844L112.454 120.727C112.454 120.727 105.356 107.146 109.535 100.695C113.713 94.2439 123.528 95.0859 123.528 95.0859L135.239 95.1855Z" fill="#333333"/>
<path d="M131.025 55.0302C131.025 55.0302 129.72 53.0126 131 52C132.131 51.1053 133 51.4998 133.5 51.9998C134 52.4998 136.165 52.8219 136.738 54.2515C137.597 56.3948 133.46 59.1724 133.46 59.1724L133.008 58.3983L133.062 57.9909C133.145 57.3726 133.01 56.7446 132.679 56.2155C132.349 55.6865 131.843 55.2896 131.251 55.0935L131.025 55.0302Z" fill="#333333"/>
<path d="M132.414 56.9641C132.414 56.9641 133.279 56.5838 133.772 56.9143C134.266 57.2448 133.881 58.6708 132.179 57.8514L132.414 56.9641Z" fill="#F4A28C"/>
<path d="M127.96 71.251C129.453 66.4432 136.561 67.2898 136.882 72.3103C136.943 73.5192 136.897 74.731 136.747 75.932C135.692 84.9861 136.335 106.204 106.343 93.8682L106.945 90.6404C106.945 90.6404 118.896 93.8094 123.921 88.9473C127.303 85.6335 126.212 76.8419 127.96 71.251Z" fill="#F4A28C"/>
<path d="M126.036 81.2877L136.901 82.8133C136.901 82.8133 140.975 69.5173 133.338 67.2538C125.701 64.9903 126.036 81.2877 126.036 81.2877Z" fill="#3374B9"/>
<path opacity="0.46" d="M126.036 81.2877L136.901 82.8133C136.901 82.8133 140.975 69.5173 133.338 67.2538C125.701 64.9903 126.036 81.2877 126.036 81.2877Z" fill="white"/>
<path d="M106.945 90.5994C106.945 90.5994 101.59 90.4138 102.418 92.6773C103.247 94.9408 106.343 93.8272 106.343 93.8272L106.945 90.5994Z" fill="#F4A28C"/>
<path d="M97.4801 79.3545H83.2632C82.1586 79.3545 81.2632 80.2499 81.2632 81.3545V85.2452C81.2632 86.3498 82.1586 87.2452 83.2632 87.2452H97.4801C98.5847 87.2452 99.4801 86.3498 99.4801 85.2452V81.3545C99.4801 80.2499 98.5847 79.3545 97.4801 79.3545Z" fill="#3374B9"/>
<path d="M69.8955 49.7344H44.2949V57.0411H69.8955V49.7344Z" fill="white"/>
<path d="M69.8999 49.7344H60.3931V57.0411H69.8999V49.7344Z" fill="#34C672"/>
<path d="M69.8955 61.6357H44.2949V64.5421H69.8955V61.6357Z" fill="#C1DAF4"/>
<path opacity="0.57" d="M69.8955 68.2178H44.2949V71.1242H69.8955V68.2178Z" fill="#C1DAF4"/>
<path opacity="0.58" d="M14.8508 120.968C14.8508 120.968 10.9938 119.913 10.1562 116.328C10.1562 116.328 16.1275 115.119 16.2995 121.308L14.8508 120.968Z" fill="#3374B9"/>
<path opacity="0.73" d="M15.3216 120.597C15.3216 120.597 12.6053 116.337 15.0002 112.357C15.0002 112.357 19.5272 115.241 17.5217 120.606L15.3216 120.597Z" fill="#3374B9"/>
<path d="M16.0142 120.596C16.0142 120.596 17.4402 116.101 21.7409 115.25C21.7409 115.25 22.5467 118.17 18.9568 120.61L16.0142 120.596Z" fill="#3374B9"/>
<path d="M13.2212 120.487L14.0044 125.834L18.9253 125.852L19.6496 120.514L13.2212 120.487Z" fill="#24285B"/>
<path d="M89.5 56.6C89.4146 56.6 89.3301 56.6168 89.2512 56.6494C89.1724 56.6821 89.1007 56.73 89.0403 56.7903C88.98 56.8507 88.9321 56.9224 88.8994 57.0012C88.8668 57.0801 88.85 57.1646 88.85 57.25V59.85H87.55C87.3776 59.85 87.2123 59.9185 87.0904 60.0404C86.9685 60.1623 86.9 60.3276 86.9 60.5C86.9 60.6724 86.9685 60.8377 87.0904 60.9596C87.2123 61.0815 87.3776 61.15 87.55 61.15H89.5C89.5854 61.15 89.6699 61.1332 89.7488 61.1006C89.8276 61.0679 89.8993 61.02 89.9597 60.9597C90.02 60.8993 90.0679 60.8276 90.1006 60.7488C90.1332 60.6699 90.15 60.5854 90.15 60.5V57.25C90.15 57.1646 90.1332 57.0801 90.1006 57.0012C90.0679 56.9224 90.02 56.8507 89.9597 56.7903C89.8993 56.73 89.8276 56.6821 89.7488 56.6494C89.6699 56.6168 89.5854 56.6 89.5 56.6V56.6ZM89.5 54C88.2144 54 86.9577 54.3812 85.8888 55.0954C84.8199 55.8097 83.9868 56.8248 83.4948 58.0126C83.0028 59.2003 82.8741 60.5072 83.1249 61.7681C83.3757 63.029 83.9948 64.1871 84.9038 65.0962C85.8128 66.0052 86.971 66.6243 88.2319 66.8751C89.4928 67.1259 90.7997 66.9972 91.9874 66.5052C93.1752 66.0132 94.1903 65.1801 94.9046 64.1112C95.6188 63.0423 96 61.7856 96 60.5C95.998 58.7767 95.3126 57.1245 94.094 55.906C92.8755 54.6874 91.2233 54.002 89.5 54V54ZM89.5 65.7C88.4715 65.7 87.4662 65.395 86.611 64.8236C85.7559 64.2523 85.0894 63.4401 84.6958 62.49C84.3023 61.5398 84.1993 60.4942 84.3999 59.4855C84.6006 58.4768 85.0958 57.5503 85.823 56.823C86.5503 56.0958 87.4768 55.6006 88.4855 55.3999C89.4942 55.1993 90.5398 55.3023 91.49 55.6958C92.4401 56.0894 93.2523 56.7559 93.8236 57.611C94.395 58.4662 94.7 59.4715 94.7 60.5C94.6984 61.8786 94.1501 63.2004 93.1752 64.1752C92.2004 65.1501 90.8786 65.6984 89.5 65.7V65.7Z" fill="#EB7500"/>
</svg>
