<svg width="160" height="160" viewBox="0 0 160 160" fill="none" xmlns="http://www.w3.org/2000/svg">
<path opacity="0.45" d="M80 132.538C118.66 132.538 150 128.258 150 122.979C150 117.699 118.66 113.419 80 113.419C41.3401 113.419 10 117.699 10 122.979C10 128.258 41.3401 132.538 80 132.538Z" fill="#E6E6E6"/>
<path opacity="0.58" d="M117.286 114.407C117.286 114.407 111.718 112.912 110.486 107.735C110.486 107.735 119.099 105.959 119.381 114.854L117.286 114.407Z" fill="#34C672"/>
<path opacity="0.73" d="M117.969 113.853C117.969 113.853 114.057 107.722 117.452 101.964C117.452 101.964 124.022 106.116 121.143 113.853H117.969Z" fill="#34C672"/>
<path d="M118.951 113.853C118.951 113.853 120.976 107.353 127.182 106.098C127.182 106.098 128.363 110.305 123.191 113.853H118.951Z" fill="#34C672"/>
<path d="M114.934 113.724L116.097 121.433H123.197L124.212 113.724H114.934Z" fill="#55708D"/>
<path d="M103.758 27H51.1045V121.433H103.758V27Z" fill="#C9C9C9"/>
<path d="M99.0448 37.7678H55.4614V104.225H99.0448V37.7678Z" fill="white"/>
<path opacity="0.08" d="M103.756 45.7261H82.7412V64.1661H103.756V45.7261Z" fill="black"/>
<path opacity="0.08" d="M103.754 72.7563H79.5103V91.1963H103.754V72.7563Z" fill="black"/>
<path opacity="0.56" d="M77.5903 117.89C80.4363 117.89 82.7435 115.583 82.7435 112.736C82.7435 109.89 80.4363 107.583 77.5903 107.583C74.7442 107.583 72.437 109.89 72.437 112.736C72.437 115.583 74.7442 117.89 77.5903 117.89Z" fill="white"/>
<path opacity="0.08" d="M70.8554 63.1558L79.5103 64.4475L79.2427 65.0242C78.3795 66.9694 77.8836 69.0575 77.7802 71.1832C77.7156 72.2166 77.1297 73.6283 75.1829 75.2892C71.8612 78.1218 69.7251 87.2426 65.3147 90.8042C64.0092 91.8926 62.95 93.2459 62.2071 94.7746C61.4642 96.3033 61.0547 97.9724 61.0057 99.6713L60.1476 121.428H51.5942L53.4811 88.1607L55.7464 76.6778L61.2825 70.994L66.3573 64.4475L68.664 63.1558H70.8554Z" fill="black"/>
<path opacity="0.12" d="M87.7401 30.6907H72.9771V32.8452H87.7401V30.6907Z" fill="black"/>
<path d="M67.6311 34.4046C68.9586 34.4046 70.0348 33.3285 70.0348 32.001C70.0348 30.6735 68.9586 29.5974 67.6311 29.5974C66.3037 29.5974 65.2275 30.6735 65.2275 32.001C65.2275 33.3285 66.3037 34.4046 67.6311 34.4046Z" fill="white"/>
<path d="M55.728 75.5336L64.0138 65.2041L65.8038 66.7727L58.7406 78.5831L55.728 75.5336Z" fill="#3373BA"/>
<path d="M42.0016 58.5191L43.5287 63.1095L39.8979 65.4162L38.5923 57.4626L42.0016 58.5191Z" fill="#F4A28C"/>
<path d="M37.3484 53.0291C37.537 52.5918 37.8319 52.2085 38.2064 51.9143C38.5808 51.62 39.0229 51.4241 39.4925 51.3443C39.962 51.2645 40.444 51.3034 40.8946 51.4575C41.3453 51.6115 41.7502 51.8759 42.0726 52.2264C43.6181 53.8734 45.482 56.4984 43.3736 57.9286C40.1442 60.1154 37.187 56.0279 37.187 56.0279C36.9441 55.0342 37.0003 53.9909 37.3484 53.0291Z" fill="#F4A28C"/>
<path d="M39.7058 55.8433C39.7058 55.8433 38.88 55.1513 38.5017 56.134C38.1233 57.1167 39.5904 57.5872 40.0241 57.0936C40.4578 56.6 39.7058 55.8433 39.7058 55.8433Z" fill="#F4A28C"/>
<path d="M35.6584 67.6675C36.2074 66.4531 37.0116 65.3712 38.0163 64.4955C39.021 63.6198 40.2025 62.9708 41.4806 62.5927C46.4124 61.1118 55.5009 62.7311 58.2689 67.3492C62.0612 73.665 56.5112 93.7382 56.5112 93.7382L39.9304 95.0253C39.9304 95.0253 30.8327 78.5645 35.6584 67.6675Z" fill="#3373BA"/>
<path d="M56.5123 93.729L54.3301 122.231H50.8839L47.8021 100.086L40.1807 95.0162L56.5123 93.729Z" fill="#4B4B4B"/>
<path d="M40.1818 95.0161L35.4253 122.231H39.1207L47.1066 99.6203L40.1818 95.0161Z" fill="#4B4B4B"/>
<path opacity="0.08" d="M42.9152 62.1499C42.9152 62.1499 35.1599 87.1272 57.5537 88.7834L56.511 93.7475L39.9303 95.0346C39.9303 95.0346 34.0896 85.8585 34.3341 72.9731C34.3341 72.9731 34.4771 66.6019 38.9476 63.7877C40.1382 62.9651 41.491 62.4067 42.9152 62.1499Z" fill="black"/>
<path d="M36.2909 122.171L34.0626 123.814C33.9812 123.876 33.9211 123.962 33.8908 124.06C33.8605 124.157 33.8613 124.262 33.8933 124.36C33.9252 124.457 33.9866 124.542 34.0691 124.603C34.1515 124.664 34.2508 124.697 34.3532 124.699H38.0855C38.2156 124.698 38.34 124.646 38.4316 124.553C38.5232 124.461 38.5745 124.336 38.5745 124.206V122.171H36.2909Z" fill="#3373BA"/>
<path d="M53.901 122.171L56.0001 123.814C56.0824 123.876 56.1428 123.964 56.1728 124.063C56.2028 124.162 56.2008 124.268 56.1671 124.366C56.1334 124.464 56.0698 124.549 55.9851 124.609C55.9005 124.669 55.7992 124.7 55.6956 124.699H53.0383C52.8493 124.702 52.6617 124.668 52.4863 124.597C52.311 124.527 52.1514 124.422 52.0169 124.29C51.8824 124.157 51.7758 123.999 51.7032 123.824C51.6307 123.65 51.5936 123.463 51.5942 123.274V122.167L53.901 122.171Z" fill="#3373BA"/>
<path d="M49.675 62.4543C48.849 63.7805 48.4111 65.3116 48.4111 66.874C48.4111 68.4364 48.849 69.9676 49.675 71.2937C51.4835 74.3478 56.7474 80.29 60.3413 84.2114C60.7473 84.656 61.2533 84.9977 61.8174 85.2082C62.3815 85.4188 62.9875 85.4922 63.5856 85.4223C64.1836 85.3525 64.7564 85.1414 65.2568 84.8065C65.7572 84.4716 66.1708 84.0225 66.4634 83.4963L74.2002 69.882L71.5797 68.2027L64.4981 78.583C64.4981 78.583 59.6401 62.6527 49.675 62.4543Z" fill="#3373BA"/>
<path opacity="0.2" d="M49.675 62.4543C48.849 63.7805 48.4111 65.3116 48.4111 66.874C48.4111 68.4364 48.849 69.9676 49.675 71.2937C51.4835 74.3478 56.7474 80.29 60.3413 84.2114C60.7473 84.656 61.2533 84.9977 61.8174 85.2082C62.3815 85.4188 62.9875 85.4922 63.5856 85.4223C64.1836 85.3525 64.7564 85.1414 65.2568 84.8065C65.7572 84.4716 66.1708 84.0225 66.4634 83.4963L74.2002 69.882L71.5797 68.2027L64.4981 78.583C64.4981 78.583 59.6401 62.6527 49.675 62.4543Z" fill="white"/>
<path d="M73.2783 69.2963C73.2783 69.2963 77.6657 67.6862 75.8756 65.2042C74.0856 62.7221 71.5713 68.2029 71.5713 68.2029L73.2783 69.2963Z" fill="#F4A28C"/>
<path d="M77.2636 62.0884L73.3101 60.3174L70.7281 66.0813L74.6816 67.8523L77.2636 62.0884Z" fill="#55708D"/>
<path d="M38.8328 58.9205L36.3693 56.3785C36.1153 56.114 35.918 55.8003 35.7895 55.4568C35.661 55.1133 35.6039 54.7472 35.6219 54.3809C35.6819 53.0891 35.9587 51.0269 37.0059 49.4768C38.6852 47.0501 40.9227 46.132 41.4764 48.2312C42.03 50.3303 42.1499 47.839 43.5017 48.9509C44.8534 50.0627 44.5766 50.7224 43.5017 51.3129C42.4267 51.9035 40.1984 52.7616 40.0001 54.5424C39.8017 56.3232 41.5087 57.7303 38.8328 58.9205Z" fill="#24285B"/>
<path d="M64.4346 65.5731C64.4346 65.5731 64.9836 61.7855 68.6559 62.15C72.3282 62.5144 70.9857 63.451 69.5048 63.534C69.2035 63.5973 68.9247 63.7403 68.6975 63.948C68.4703 64.1557 68.303 64.4206 68.213 64.715C67.9962 65.3794 67.401 66.2375 65.8186 66.7819L64.4346 65.5731Z" fill="#F4A28C"/>
<path d="M126.814 42.9084H82.7412V61.3484H126.814V42.9084Z" fill="#2FBECC"/>
<path d="M97.9744 54.2936L96.3677 54.1102C95.9819 54.0659 95.6023 54.1987 95.3303 54.4707L94.1664 55.6346C92.3763 54.7237 90.9087 53.2625 89.9978 51.466L91.1681 50.2958C91.4401 50.0238 91.5729 49.6442 91.5286 49.2584L91.3452 47.6643C91.2693 47.0254 90.7316 46.5447 90.0864 46.5447H88.9921C88.2773 46.5447 87.6827 47.1393 87.7269 47.8541C88.0622 53.2562 92.3826 57.5703 97.7783 57.9056C98.4931 57.9498 99.0877 57.3552 99.0877 56.6404V55.5461C99.0941 54.9072 98.6133 54.3695 97.9744 54.2936Z" fill="white"/>
<path d="M123.583 70.219H79.5103V88.659H123.583V70.219Z" fill="#4EA8DC"/>
<path d="M121.202 47.9958H107.745V50.7639H121.202V47.9958Z" fill="white"/>
<path opacity="0.46" d="M121.202 52.457H107.745V55.2251H121.202V52.457Z" fill="white"/>
<path d="M117.217 75.2891H102.634V78.0571H117.217V75.2891Z" fill="white"/>
<path opacity="0.46" d="M117.217 79.7502H102.634V82.5183H117.217V79.7502Z" fill="white"/>
<path d="M91.6998 86.1168C95.4682 86.1168 98.5231 83.0619 98.5231 79.2935C98.5231 75.5251 95.4682 72.4702 91.6998 72.4702C87.9314 72.4702 84.8765 75.5251 84.8765 79.2935C84.8765 83.0619 87.9314 86.1168 91.6998 86.1168Z" fill="white" fill-opacity="0.16"/>
<path d="M91.8651 80.1979C93.3123 80.1979 94.4855 79.0247 94.4855 77.5775C94.4855 76.1302 93.3123 74.957 91.8651 74.957C90.4178 74.957 89.2446 76.1302 89.2446 77.5775C89.2446 79.0247 90.4178 80.1979 91.8651 80.1979Z" fill="white"/>
<path opacity="0.32" d="M87.1187 84.3592C87.1187 84.3592 87.6861 80.3547 91.6906 80.1471C95.935 79.9303 96.2625 84.3592 96.2625 84.3592C95.0087 85.491 93.3797 86.1174 91.6906 86.1174C90.0015 86.1174 88.3725 85.491 87.1187 84.3592Z" fill="white"/>
<path d="M30.7193 61.2272L26.9316 59.6771V56.0786H12.0532V65.3471H26.9316V62.2284L30.7193 61.2272Z" fill="#E6E6E6"/>
<path opacity="0.12" d="M16.164 61.8456C16.7882 61.8456 17.2943 61.3395 17.2943 60.7153C17.2943 60.091 16.7882 59.585 16.164 59.585C15.5397 59.585 15.0337 60.091 15.0337 60.7153C15.0337 61.3395 15.5397 61.8456 16.164 61.8456Z" fill="black"/>
<path opacity="0.12" d="M19.4657 61.8456C20.09 61.8456 20.596 61.3395 20.596 60.7153C20.596 60.091 20.09 59.585 19.4657 59.585C18.8415 59.585 18.3354 60.091 18.3354 60.7153C18.3354 61.3395 18.8415 61.8456 19.4657 61.8456Z" fill="black"/>
<path opacity="0.12" d="M22.6923 61.8456C23.3166 61.8456 23.8226 61.3395 23.8226 60.7153C23.8226 60.091 23.3166 59.585 22.6923 59.585C22.0681 59.585 21.562 60.091 21.562 60.7153C21.562 61.3395 22.0681 61.8456 22.6923 61.8456Z" fill="black"/>
</svg>
