<svg width="312" height="148" viewBox="0 0 312 148" fill="none" xmlns="http://www.w3.org/2000/svg">
<path d="M295.5 139.442C295.5 143.584 292.142 146.942 288 146.942L24 146.942C19.8579 146.942 16.5 143.584 16.5 139.442L16.5 54.1743L295.5 54.1743L295.5 139.442Z" fill="#F2F8FF" stroke="#EDEDED"/>
<g filter="url(#filter0_d_87_409)">
<path d="M16 20C16 15.5817 19.5817 12 24 12H288C292.418 12 296 15.5817 296 20V53.6744H16V20Z" fill="white"/>
<path d="M16.5 20C16.5 15.8579 19.8579 12.5 24 12.5H288C292.142 12.5 295.5 15.8579 295.5 20V53.1744H16.5V20Z" stroke="#EDEDED"/>
</g>
<path d="M117.256 34.1395H116.741L116.559 33.9637C117.341 33.0521 117.744 31.8084 117.523 30.4865C117.217 28.6763 115.706 27.2307 113.883 27.0093C111.128 26.6707 108.81 28.9888 109.149 31.7432C109.37 33.5665 110.816 35.0772 112.626 35.3832C113.948 35.6046 115.192 35.2009 116.103 34.4195L116.279 34.6018V35.1163L119.047 37.8837C119.314 38.1507 119.75 38.1507 120.017 37.8837C120.284 37.6167 120.284 37.1804 120.017 36.9135L117.256 34.1395ZM113.349 34.1395C111.728 34.1395 110.419 32.8307 110.419 31.2093C110.419 29.5879 111.728 28.2791 113.349 28.2791C114.97 28.2791 116.279 29.5879 116.279 31.2093C116.279 32.8307 114.97 34.1395 113.349 34.1395Z" fill="#6C757D"/>
<path d="M151.173 39.0232C151.889 39.0232 152.475 38.4372 152.475 37.7209H149.87C149.87 38.4372 150.45 39.0232 151.173 39.0232ZM155.08 35.1163V31.8604C155.08 29.8614 154.012 28.1879 152.149 27.7451V27.3023C152.149 26.7618 151.713 26.3256 151.173 26.3256C150.632 26.3256 150.196 26.7618 150.196 27.3023V27.7451C148.327 28.1879 147.266 29.8549 147.266 31.8604V35.1163L146.426 35.9563C146.015 36.3665 146.302 37.0697 146.882 37.0697H155.457C156.037 37.0697 156.33 36.3665 155.92 35.9563L155.08 35.1163Z" fill="#6C757D"/>
<circle cx="188.775" cy="33.0542" r="8.68217" fill="#E5E5E5"/>
<path d="M264.822 34.6018L267.349 32.0753L269.875 34.6018C270.129 34.8558 270.54 34.8558 270.794 34.6018C271.047 34.3479 271.047 33.9376 270.794 33.6837L267.805 30.6949C267.551 30.4409 267.141 30.4409 266.887 30.6949L263.898 33.6837C263.644 33.9376 263.644 34.3479 263.898 34.6018C264.152 34.8493 264.568 34.8558 264.822 34.6018Z" fill="#6C757D"/>
<path d="M241.844 89.3418C241.844 90.2005 241.708 90.9818 241.436 91.6858C241.164 92.3898 240.78 92.9925 240.284 93.4938C239.788 93.9952 239.191 94.3845 238.492 94.6618C237.799 94.9338 237.031 95.0698 236.188 95.0698H231.908V83.6058H236.188C237.031 83.6058 237.799 83.7445 238.492 84.0218C239.191 84.2938 239.788 84.6832 240.284 85.1898C240.78 85.6912 241.164 86.2938 241.436 86.9978C241.708 87.7018 241.844 88.4832 241.844 89.3418ZM240.252 89.3418C240.252 88.6378 240.156 88.0085 239.964 87.4538C239.772 86.8992 239.5 86.4298 239.148 86.0458C238.796 85.6618 238.369 85.3685 237.868 85.1658C237.367 84.9632 236.807 84.8618 236.188 84.8618H233.46V93.8138H236.188C236.807 93.8138 237.367 93.7125 237.868 93.5098C238.369 93.3072 238.796 93.0165 239.148 92.6378C239.5 92.2538 239.772 91.7845 239.964 91.2298C240.156 90.6752 240.252 90.0458 240.252 89.3418ZM247.933 91.4218C247.277 91.4432 246.717 91.4965 246.253 91.5818C245.794 91.6618 245.418 91.7685 245.125 91.9018C244.837 92.0352 244.626 92.1925 244.493 92.3738C244.365 92.5552 244.301 92.7578 244.301 92.9818C244.301 93.1952 244.335 93.3792 244.405 93.5338C244.474 93.6885 244.567 93.8165 244.685 93.9178C244.807 94.0138 244.949 94.0858 245.109 94.1338C245.274 94.1765 245.45 94.1978 245.637 94.1978C245.887 94.1978 246.117 94.1738 246.325 94.1258C246.533 94.0725 246.727 93.9978 246.909 93.9018C247.095 93.8058 247.271 93.6912 247.437 93.5578C247.607 93.4245 247.773 93.2725 247.933 93.1018V91.4218ZM243.333 88.1098C243.781 87.6778 244.263 87.3552 244.781 87.1418C245.298 86.9285 245.871 86.8218 246.501 86.8218C246.954 86.8218 247.357 86.8965 247.709 87.0458C248.061 87.1952 248.357 87.4032 248.597 87.6698C248.837 87.9365 249.018 88.2592 249.141 88.6378C249.263 89.0165 249.325 89.4325 249.325 89.8858V95.0698H248.693C248.554 95.0698 248.447 95.0485 248.373 95.0058C248.298 94.9578 248.239 94.8672 248.197 94.7338L248.037 93.9658C247.823 94.1632 247.615 94.3392 247.413 94.4938C247.21 94.6432 246.997 94.7712 246.773 94.8778C246.549 94.9792 246.309 95.0565 246.053 95.1098C245.802 95.1685 245.522 95.1978 245.213 95.1978C244.898 95.1978 244.602 95.1552 244.325 95.0698C244.047 94.9792 243.805 94.8458 243.597 94.6698C243.394 94.4938 243.231 94.2725 243.109 94.0058C242.991 93.7338 242.933 93.4138 242.933 93.0458C242.933 92.7258 243.021 92.4192 243.197 92.1258C243.373 91.8272 243.658 91.5632 244.053 91.3338C244.447 91.1045 244.962 90.9178 245.597 90.7738C246.231 90.6245 247.01 90.5392 247.933 90.5178V89.8858C247.933 89.2565 247.797 88.7818 247.525 88.4618C247.253 88.1365 246.855 87.9738 246.333 87.9738C245.981 87.9738 245.685 88.0192 245.445 88.1098C245.21 88.1952 245.005 88.2938 244.829 88.4058C244.658 88.5125 244.509 88.6112 244.381 88.7018C244.258 88.7872 244.135 88.8298 244.013 88.8298C243.917 88.8298 243.834 88.8058 243.765 88.7578C243.695 88.7045 243.637 88.6405 243.589 88.5658L243.333 88.1098ZM256.214 88.3018C256.15 88.4192 256.051 88.4778 255.918 88.4778C255.838 88.4778 255.747 88.4485 255.646 88.3898C255.545 88.3312 255.419 88.2672 255.27 88.1978C255.126 88.1232 254.953 88.0565 254.75 87.9978C254.547 87.9338 254.307 87.9018 254.03 87.9018C253.79 87.9018 253.574 87.9338 253.382 87.9978C253.19 88.0565 253.025 88.1392 252.886 88.2458C252.753 88.3525 252.649 88.4778 252.574 88.6218C252.505 88.7605 252.47 88.9125 252.47 89.0778C252.47 89.2858 252.529 89.4592 252.646 89.5978C252.769 89.7365 252.929 89.8565 253.126 89.9578C253.323 90.0592 253.547 90.1498 253.798 90.2298C254.049 90.3045 254.305 90.3872 254.566 90.4778C254.833 90.5632 255.091 90.6592 255.342 90.7658C255.593 90.8725 255.817 91.0058 256.014 91.1658C256.211 91.3258 256.369 91.5232 256.486 91.7578C256.609 91.9872 256.67 92.2645 256.67 92.5898C256.67 92.9632 256.603 93.3098 256.47 93.6298C256.337 93.9445 256.139 94.2192 255.878 94.4538C255.617 94.6832 255.297 94.8645 254.918 94.9978C254.539 95.1312 254.102 95.1978 253.606 95.1978C253.041 95.1978 252.529 95.1072 252.07 94.9258C251.611 94.7392 251.222 94.5018 250.902 94.2138L251.238 93.6698C251.281 93.6005 251.331 93.5472 251.39 93.5098C251.449 93.4725 251.523 93.4538 251.614 93.4538C251.71 93.4538 251.811 93.4912 251.918 93.5658C252.025 93.6405 252.153 93.7232 252.302 93.8138C252.457 93.9045 252.643 93.9872 252.862 94.0618C253.081 94.1365 253.353 94.1738 253.678 94.1738C253.955 94.1738 254.198 94.1392 254.406 94.0698C254.614 93.9952 254.787 93.8965 254.926 93.7738C255.065 93.6512 255.166 93.5098 255.23 93.3498C255.299 93.1898 255.334 93.0192 255.334 92.8378C255.334 92.6138 255.273 92.4298 255.15 92.2858C255.033 92.1365 254.875 92.0112 254.678 91.9098C254.481 91.8032 254.254 91.7125 253.998 91.6378C253.747 91.5578 253.489 91.4752 253.222 91.3898C252.961 91.3045 252.702 91.2085 252.446 91.1018C252.195 90.9898 251.971 90.8512 251.774 90.6858C251.577 90.5205 251.417 90.3178 251.294 90.0778C251.177 89.8325 251.118 89.5365 251.118 89.1898C251.118 88.8805 251.182 88.5845 251.31 88.3018C251.438 88.0138 251.625 87.7632 251.87 87.5498C252.115 87.3312 252.417 87.1578 252.774 87.0298C253.131 86.9018 253.539 86.8378 253.998 86.8378C254.531 86.8378 255.009 86.9232 255.43 87.0938C255.857 87.2592 256.225 87.4885 256.534 87.7818L256.214 88.3018ZM259.848 88.0458C260.194 87.6778 260.578 87.3845 261 87.1658C261.421 86.9472 261.906 86.8378 262.456 86.8378C262.898 86.8378 263.288 86.9125 263.624 87.0618C263.965 87.2058 264.248 87.4138 264.472 87.6858C264.701 87.9525 264.874 88.2752 264.992 88.6538C265.109 89.0325 265.168 89.4512 265.168 89.9098V95.0698H263.736V89.9098C263.736 89.2965 263.594 88.8218 263.312 88.4858C263.034 88.1445 262.61 87.9738 262.04 87.9738C261.618 87.9738 261.224 88.0752 260.856 88.2778C260.493 88.4805 260.157 88.7552 259.848 89.1018V95.0698H258.416V83.2858H259.848V88.0458ZM268.77 93.1178C269.031 93.4698 269.316 93.7178 269.626 93.8618C269.94 94.0058 270.284 94.0778 270.658 94.0778C271.42 94.0778 272.004 93.8085 272.41 93.2698C272.815 92.7312 273.018 91.9285 273.018 90.8618C273.018 89.8698 272.836 89.1418 272.474 88.6778C272.116 88.2085 271.604 87.9738 270.938 87.9738C270.474 87.9738 270.068 88.0805 269.722 88.2938C269.38 88.5072 269.063 88.8085 268.77 89.1978V93.1178ZM268.77 88.1338C269.111 87.7392 269.495 87.4245 269.922 87.1898C270.354 86.9552 270.85 86.8378 271.41 86.8378C271.884 86.8378 272.311 86.9285 272.69 87.1098C273.074 87.2912 273.399 87.5552 273.666 87.9018C273.932 88.2432 274.135 88.6592 274.274 89.1498C274.418 89.6405 274.49 90.1925 274.49 90.8058C274.49 91.4618 274.41 92.0592 274.25 92.5978C274.09 93.1365 273.858 93.5978 273.554 93.9818C273.255 94.3605 272.89 94.6565 272.458 94.8698C272.026 95.0778 271.54 95.1818 271.002 95.1818C270.468 95.1818 270.018 95.0832 269.65 94.8858C269.287 94.6832 268.97 94.3978 268.698 94.0298L268.626 94.7658C268.583 94.9685 268.46 95.0698 268.258 95.0698H267.338V83.2858H268.77V88.1338ZM248.207 105.838C248.799 105.838 249.332 105.936 249.807 106.134C250.281 106.331 250.687 106.611 251.023 106.974C251.359 107.336 251.615 107.776 251.791 108.294C251.972 108.806 252.063 109.379 252.063 110.014C252.063 110.654 251.972 111.23 251.791 111.742C251.615 112.254 251.359 112.691 251.023 113.054C250.687 113.416 250.281 113.696 249.807 113.894C249.332 114.086 248.799 114.182 248.207 114.182C247.609 114.182 247.071 114.086 246.591 113.894C246.116 113.696 245.711 113.416 245.375 113.054C245.039 112.691 244.78 112.254 244.599 111.742C244.423 111.23 244.335 110.654 244.335 110.014C244.335 109.379 244.423 108.806 244.599 108.294C244.78 107.776 245.039 107.336 245.375 106.974C245.711 106.611 246.116 106.331 246.591 106.134C247.071 105.936 247.609 105.838 248.207 105.838ZM248.207 113.07C249.007 113.07 249.604 112.803 249.999 112.27C250.393 111.731 250.591 110.982 250.591 110.022C250.591 109.056 250.393 108.304 249.999 107.766C249.604 107.227 249.007 106.958 248.207 106.958C247.801 106.958 247.447 107.027 247.143 107.166C246.844 107.304 246.593 107.504 246.391 107.766C246.193 108.027 246.044 108.35 245.943 108.734C245.847 109.112 245.799 109.542 245.799 110.022C245.799 110.982 245.996 111.731 246.391 112.27C246.791 112.803 247.396 113.07 248.207 113.07ZM258.261 110.422C257.605 110.443 257.045 110.496 256.581 110.582C256.122 110.662 255.746 110.768 255.453 110.902C255.165 111.035 254.954 111.192 254.821 111.374C254.693 111.555 254.629 111.758 254.629 111.982C254.629 112.195 254.664 112.379 254.733 112.534C254.802 112.688 254.896 112.816 255.013 112.918C255.136 113.014 255.277 113.086 255.437 113.134C255.602 113.176 255.778 113.198 255.965 113.198C256.216 113.198 256.445 113.174 256.653 113.126C256.861 113.072 257.056 112.998 257.237 112.902C257.424 112.806 257.6 112.691 257.765 112.558C257.936 112.424 258.101 112.272 258.261 112.102V110.422ZM253.661 107.11C254.109 106.678 254.592 106.355 255.109 106.142C255.626 105.928 256.2 105.822 256.829 105.822C257.282 105.822 257.685 105.896 258.037 106.046C258.389 106.195 258.685 106.403 258.925 106.67C259.165 106.936 259.346 107.259 259.469 107.638C259.592 108.016 259.653 108.432 259.653 108.886V114.07H259.021C258.882 114.07 258.776 114.048 258.701 114.006C258.626 113.958 258.568 113.867 258.525 113.734L258.365 112.966C258.152 113.163 257.944 113.339 257.741 113.494C257.538 113.643 257.325 113.771 257.101 113.878C256.877 113.979 256.637 114.056 256.381 114.11C256.13 114.168 255.85 114.198 255.541 114.198C255.226 114.198 254.93 114.155 254.653 114.07C254.376 113.979 254.133 113.846 253.925 113.67C253.722 113.494 253.56 113.272 253.437 113.006C253.32 112.734 253.261 112.414 253.261 112.046C253.261 111.726 253.349 111.419 253.525 111.126C253.701 110.827 253.986 110.563 254.381 110.334C254.776 110.104 255.29 109.918 255.925 109.774C256.56 109.624 257.338 109.539 258.261 109.518V108.886C258.261 108.256 258.125 107.782 257.853 107.462C257.581 107.136 257.184 106.974 256.661 106.974C256.309 106.974 256.013 107.019 255.773 107.11C255.538 107.195 255.333 107.294 255.157 107.406C254.986 107.512 254.837 107.611 254.709 107.702C254.586 107.787 254.464 107.83 254.341 107.83C254.245 107.83 254.162 107.806 254.093 107.758C254.024 107.704 253.965 107.64 253.917 107.566L253.661 107.11ZM263.174 107.59C263.43 107.035 263.745 106.603 264.118 106.294C264.491 105.979 264.947 105.822 265.486 105.822C265.657 105.822 265.819 105.84 265.974 105.878C266.134 105.915 266.275 105.974 266.398 106.054L266.294 107.118C266.262 107.251 266.182 107.318 266.054 107.318C265.979 107.318 265.87 107.302 265.726 107.27C265.582 107.238 265.419 107.222 265.238 107.222C264.982 107.222 264.753 107.259 264.55 107.334C264.353 107.408 264.174 107.52 264.014 107.67C263.859 107.814 263.718 107.995 263.59 108.214C263.467 108.427 263.355 108.672 263.254 108.95V114.07H261.822V105.966H262.638C262.793 105.966 262.899 105.995 262.958 106.054C263.017 106.112 263.057 106.214 263.078 106.358L263.174 107.59ZM272.618 107.894C272.351 107.536 272.063 107.288 271.754 107.15C271.444 107.006 271.098 106.934 270.714 106.934C269.962 106.934 269.383 107.203 268.978 107.742C268.572 108.28 268.37 109.048 268.37 110.046C268.37 110.574 268.415 111.027 268.506 111.406C268.596 111.779 268.73 112.088 268.906 112.334C269.082 112.574 269.298 112.75 269.554 112.862C269.81 112.974 270.1 113.03 270.426 113.03C270.895 113.03 271.303 112.923 271.65 112.71C272.002 112.496 272.324 112.195 272.618 111.806V107.894ZM274.042 102.286V114.07H273.194C272.991 114.07 272.863 113.971 272.81 113.774L272.682 112.79C272.335 113.206 271.94 113.542 271.498 113.798C271.055 114.054 270.543 114.182 269.962 114.182C269.498 114.182 269.076 114.094 268.698 113.918C268.319 113.736 267.996 113.472 267.73 113.126C267.463 112.779 267.258 112.347 267.114 111.83C266.97 111.312 266.898 110.718 266.898 110.046C266.898 109.448 266.978 108.894 267.138 108.382C267.298 107.864 267.527 107.416 267.826 107.038C268.124 106.659 268.49 106.363 268.922 106.15C269.359 105.931 269.85 105.822 270.394 105.822C270.89 105.822 271.314 105.907 271.666 106.078C272.023 106.243 272.34 106.475 272.618 106.774V102.286H274.042Z" fill="#C4C4C4"/>
<path d="M199.1 83.6058V95.0698H197.548V89.8538H191.364V95.0698H189.812V83.6058H191.364V88.7178H197.548V83.6058H199.1ZM204.861 86.8378C205.453 86.8378 205.986 86.9365 206.461 87.1338C206.936 87.3312 207.341 87.6112 207.677 87.9738C208.013 88.3365 208.269 88.7765 208.445 89.2938C208.626 89.8058 208.717 90.3792 208.717 91.0138C208.717 91.6538 208.626 92.2298 208.445 92.7418C208.269 93.2538 208.013 93.6912 207.677 94.0538C207.341 94.4165 206.936 94.6965 206.461 94.8938C205.986 95.0858 205.453 95.1818 204.861 95.1818C204.264 95.1818 203.725 95.0858 203.245 94.8938C202.77 94.6965 202.365 94.4165 202.029 94.0538C201.693 93.6912 201.434 93.2538 201.253 92.7418C201.077 92.2298 200.989 91.6538 200.989 91.0138C200.989 90.3792 201.077 89.8058 201.253 89.2938C201.434 88.7765 201.693 88.3365 202.029 87.9738C202.365 87.6112 202.77 87.3312 203.245 87.1338C203.725 86.9365 204.264 86.8378 204.861 86.8378ZM204.861 94.0698C205.661 94.0698 206.258 93.8032 206.653 93.2698C207.048 92.7312 207.245 91.9818 207.245 91.0218C207.245 90.0565 207.048 89.3045 206.653 88.7658C206.258 88.2272 205.661 87.9578 204.861 87.9578C204.456 87.9578 204.101 88.0272 203.797 88.1658C203.498 88.3045 203.248 88.5045 203.045 88.7658C202.848 89.0272 202.698 89.3498 202.597 89.7338C202.501 90.1125 202.453 90.5418 202.453 91.0218C202.453 91.9818 202.65 92.7312 203.045 93.2698C203.445 93.8032 204.05 94.0698 204.861 94.0698ZM188.914 114.07V105.966H189.77C189.973 105.966 190.098 106.064 190.146 106.262L190.25 107.094C190.549 106.726 190.885 106.424 191.258 106.19C191.631 105.955 192.063 105.838 192.554 105.838C193.098 105.838 193.538 105.99 193.874 106.294C194.215 106.598 194.461 107.008 194.61 107.526C194.727 107.232 194.877 106.979 195.058 106.766C195.245 106.552 195.453 106.376 195.682 106.238C195.911 106.099 196.154 105.998 196.41 105.934C196.671 105.87 196.935 105.838 197.202 105.838C197.629 105.838 198.007 105.907 198.338 106.046C198.674 106.179 198.957 106.376 199.186 106.638C199.421 106.899 199.599 107.222 199.722 107.606C199.845 107.984 199.906 108.419 199.906 108.91V114.07H198.474V108.91C198.474 108.275 198.335 107.795 198.058 107.47C197.781 107.139 197.381 106.974 196.858 106.974C196.623 106.974 196.399 107.016 196.186 107.102C195.978 107.182 195.794 107.302 195.634 107.462C195.474 107.622 195.346 107.824 195.25 108.07C195.159 108.31 195.114 108.59 195.114 108.91V114.07H193.682V108.91C193.682 108.259 193.551 107.774 193.29 107.454C193.029 107.134 192.647 106.974 192.146 106.974C191.794 106.974 191.469 107.07 191.17 107.262C190.871 107.448 190.597 107.704 190.346 108.03V114.07H188.914ZM207.494 109.134C207.494 108.803 207.446 108.502 207.35 108.23C207.259 107.952 207.123 107.715 206.942 107.518C206.766 107.315 206.55 107.16 206.294 107.054C206.038 106.942 205.747 106.886 205.422 106.886C204.739 106.886 204.198 107.086 203.798 107.486C203.403 107.88 203.158 108.43 203.062 109.134H207.494ZM208.646 112.934C208.47 113.147 208.259 113.334 208.014 113.494C207.769 113.648 207.505 113.776 207.222 113.878C206.945 113.979 206.657 114.054 206.358 114.102C206.059 114.155 205.763 114.182 205.47 114.182C204.91 114.182 204.393 114.088 203.918 113.902C203.449 113.71 203.041 113.432 202.694 113.07C202.353 112.702 202.086 112.248 201.894 111.71C201.702 111.171 201.606 110.552 201.606 109.854C201.606 109.288 201.691 108.76 201.862 108.27C202.038 107.779 202.289 107.355 202.614 106.998C202.939 106.635 203.337 106.352 203.806 106.15C204.275 105.942 204.803 105.838 205.39 105.838C205.875 105.838 206.323 105.92 206.734 106.086C207.15 106.246 207.507 106.48 207.806 106.79C208.11 107.094 208.347 107.472 208.518 107.926C208.689 108.374 208.774 108.886 208.774 109.462C208.774 109.686 208.75 109.835 208.702 109.91C208.654 109.984 208.563 110.022 208.43 110.022H203.014C203.03 110.534 203.099 110.979 203.222 111.358C203.35 111.736 203.526 112.054 203.75 112.31C203.974 112.56 204.241 112.75 204.55 112.878C204.859 113 205.206 113.062 205.59 113.062C205.947 113.062 206.254 113.022 206.51 112.942C206.771 112.856 206.995 112.766 207.182 112.67C207.369 112.574 207.523 112.486 207.646 112.406C207.774 112.32 207.883 112.278 207.974 112.278C208.091 112.278 208.182 112.323 208.246 112.414L208.646 112.934Z" fill="#3374B9"/>
<path d="M214.492 95.2378C214.422 95.4245 214.313 95.5632 214.164 95.6538C214.02 95.7445 213.87 95.7898 213.716 95.7898H213.116L217.924 83.8138C217.988 83.6432 218.084 83.5125 218.212 83.4218C218.345 83.3312 218.497 83.2858 218.668 83.2858H219.276L214.492 95.2378Z" fill="#C4C4C4"/>
<g filter="url(#filter1_d_87_409)">
<rect x="145" y="48" width="130" height="80" rx="8" fill="white"/>
<rect x="145.5" y="48.5" width="129" height="79" rx="7.5" stroke="#E5E5E5"/>
</g>
<g clip-path="url(#clip0_87_409)">
<path d="M167.744 91.2742L165 88.5297C164.459 87.9883 163.65 87.8828 162.998 88.2039L160.5 85.7055V84.25L157.5 82L156 83.5L158.25 86.5H159.705L162.204 88.9984C161.885 89.65 161.988 90.4586 162.53 91L165.274 93.7445C165.616 94.0867 166.169 94.0867 166.509 93.7445L167.744 92.5094C168.084 92.1672 168.084 91.6141 167.744 91.2742V91.2742ZM163.774 87.2734C164.437 87.2734 165.061 87.5312 165.53 88L165.984 88.4547C166.355 88.293 166.706 88.068 167.011 87.7633C167.88 86.8937 168.176 85.6703 167.899 84.5594C167.848 84.3484 167.583 84.2758 167.428 84.4305L165.684 86.1742L164.093 85.9094L163.828 84.318L165.572 82.5742C165.727 82.4195 165.652 82.1547 165.438 82.1008C164.327 81.8266 163.104 82.1219 162.237 82.9891C161.569 83.657 161.255 84.5383 161.271 85.4172L163.195 87.3414C163.385 87.2969 163.582 87.2734 163.774 87.2734ZM161.339 89.1953L160.01 87.8664L156.438 91.4406C155.852 92.0266 155.852 92.9758 156.438 93.5617C157.024 94.1477 157.973 94.1477 158.559 93.5617L161.456 90.6648C161.278 90.1984 161.224 89.6898 161.339 89.1953V89.1953ZM157.5 93.0625C157.191 93.0625 156.937 92.8094 156.937 92.5C156.937 92.1883 157.188 91.9375 157.5 91.9375C157.812 91.9375 158.062 92.1883 158.062 92.5C158.062 92.8094 157.812 93.0625 157.5 93.0625Z" fill="#333333"/>
</g>
<rect x="146" y="54" width="128" height="22" fill="#3373BA" fill-opacity="0.16"/>
<path d="M179.065 68.295C179.258 68.295 179.435 68.2867 179.595 68.27C179.758 68.25 179.912 68.2217 180.055 68.185C180.198 68.1483 180.333 68.105 180.46 68.055C180.587 68.0017 180.713 67.9417 180.84 67.875V66.295H179.73C179.667 66.295 179.615 66.2767 179.575 66.24C179.538 66.2033 179.52 66.1583 179.52 66.105V65.555H181.72V68.305C181.54 68.435 181.352 68.5483 181.155 68.645C180.962 68.7417 180.753 68.8233 180.53 68.89C180.31 68.9533 180.073 69 179.82 69.03C179.567 69.0633 179.292 69.08 178.995 69.08C178.475 69.08 177.998 68.9917 177.565 68.815C177.132 68.635 176.758 68.385 176.445 68.065C176.132 67.7417 175.887 67.355 175.71 66.905C175.537 66.455 175.45 65.96 175.45 65.42C175.45 64.8733 175.535 64.375 175.705 63.925C175.878 63.475 176.123 63.09 176.44 62.77C176.76 62.4467 177.145 62.1967 177.595 62.02C178.048 61.8433 178.555 61.755 179.115 61.755C179.398 61.755 179.662 61.7767 179.905 61.82C180.148 61.86 180.373 61.92 180.58 62C180.79 62.0767 180.983 62.1717 181.16 62.285C181.337 62.395 181.502 62.52 181.655 62.66L181.38 63.1C181.323 63.19 181.25 63.235 181.16 63.235C181.107 63.235 181.048 63.2167 180.985 63.18C180.902 63.1333 180.808 63.0767 180.705 63.01C180.602 62.9433 180.475 62.88 180.325 62.82C180.178 62.7567 180.003 62.7033 179.8 62.66C179.6 62.6167 179.362 62.595 179.085 62.595C178.682 62.595 178.317 62.6617 177.99 62.795C177.663 62.925 177.385 63.1133 177.155 63.36C176.925 63.6033 176.748 63.9 176.625 64.25C176.502 64.5967 176.44 64.9867 176.44 65.42C176.44 65.8733 176.503 66.2783 176.63 66.635C176.76 66.9883 176.942 67.2883 177.175 67.535C177.408 67.7817 177.685 67.97 178.005 68.1C178.325 68.23 178.678 68.295 179.065 68.295ZM185.079 63.855C185.382 63.855 185.662 63.9067 185.919 64.01C186.175 64.11 186.397 64.2567 186.584 64.45C186.77 64.64 186.915 64.8767 187.019 65.16C187.125 65.44 187.179 65.76 187.179 66.12C187.179 66.26 187.164 66.3533 187.134 66.4C187.104 66.4467 187.047 66.47 186.964 66.47H183.594C183.6 66.79 183.644 67.0683 183.724 67.305C183.804 67.5417 183.914 67.74 184.054 67.9C184.194 68.0567 184.36 68.175 184.554 68.255C184.747 68.3317 184.964 68.37 185.204 68.37C185.427 68.37 185.619 68.345 185.779 68.295C185.942 68.2417 186.082 68.185 186.199 68.125C186.315 68.065 186.412 68.01 186.489 67.96C186.569 67.9067 186.637 67.88 186.694 67.88C186.767 67.88 186.824 67.9083 186.864 67.965L187.114 68.29C187.004 68.4233 186.872 68.54 186.719 68.64C186.565 68.7367 186.4 68.8167 186.224 68.88C186.05 68.9433 185.87 68.99 185.684 69.02C185.497 69.0533 185.312 69.07 185.129 69.07C184.779 69.07 184.455 69.0117 184.159 68.895C183.865 68.775 183.61 68.6017 183.394 68.375C183.18 68.145 183.014 67.8617 182.894 67.525C182.774 67.1883 182.714 66.8017 182.714 66.365C182.714 66.0117 182.767 65.6817 182.874 65.375C182.984 65.0683 183.14 64.8033 183.344 64.58C183.547 64.3533 183.795 64.1767 184.089 64.05C184.382 63.92 184.712 63.855 185.079 63.855ZM185.099 64.51C184.669 64.51 184.33 64.635 184.084 64.885C183.837 65.1317 183.684 65.475 183.624 65.915H186.379C186.379 65.7083 186.35 65.52 186.294 65.35C186.237 65.1767 186.154 65.0283 186.044 64.905C185.934 64.7783 185.799 64.6817 185.639 64.615C185.482 64.545 185.302 64.51 185.099 64.51ZM188.318 69V63.935H188.848C188.975 63.935 189.055 63.9967 189.088 64.12L189.158 64.67C189.378 64.4267 189.623 64.23 189.893 64.08C190.166 63.93 190.481 63.855 190.838 63.855C191.115 63.855 191.358 63.9017 191.568 63.995C191.781 64.085 191.958 64.215 192.098 64.385C192.241 64.5517 192.35 64.7533 192.423 64.99C192.496 65.2267 192.533 65.4883 192.533 65.775V69H191.643V65.775C191.643 65.3917 191.555 65.095 191.378 64.885C191.205 64.6717 190.938 64.565 190.578 64.565C190.315 64.565 190.068 64.6283 189.838 64.755C189.611 64.8817 189.401 65.0533 189.208 65.27V69H188.318ZM195.88 63.855C196.183 63.855 196.463 63.9067 196.72 64.01C196.976 64.11 197.198 64.2567 197.385 64.45C197.571 64.64 197.716 64.8767 197.82 65.16C197.926 65.44 197.98 65.76 197.98 66.12C197.98 66.26 197.965 66.3533 197.935 66.4C197.905 66.4467 197.848 66.47 197.765 66.47H194.395C194.401 66.79 194.445 67.0683 194.525 67.305C194.605 67.5417 194.715 67.74 194.855 67.9C194.995 68.0567 195.161 68.175 195.355 68.255C195.548 68.3317 195.765 68.37 196.005 68.37C196.228 68.37 196.42 68.345 196.58 68.295C196.743 68.2417 196.883 68.185 197 68.125C197.116 68.065 197.213 68.01 197.29 67.96C197.37 67.9067 197.438 67.88 197.495 67.88C197.568 67.88 197.625 67.9083 197.665 67.965L197.915 68.29C197.805 68.4233 197.673 68.54 197.52 68.64C197.366 68.7367 197.201 68.8167 197.025 68.88C196.851 68.9433 196.671 68.99 196.485 69.02C196.298 69.0533 196.113 69.07 195.93 69.07C195.58 69.07 195.256 69.0117 194.96 68.895C194.666 68.775 194.411 68.6017 194.195 68.375C193.981 68.145 193.815 67.8617 193.695 67.525C193.575 67.1883 193.515 66.8017 193.515 66.365C193.515 66.0117 193.568 65.6817 193.675 65.375C193.785 65.0683 193.941 64.8033 194.145 64.58C194.348 64.3533 194.596 64.1767 194.89 64.05C195.183 63.92 195.513 63.855 195.88 63.855ZM195.9 64.51C195.47 64.51 195.131 64.635 194.885 64.885C194.638 65.1317 194.485 65.475 194.425 65.915H197.18C197.18 65.7083 197.151 65.52 197.095 65.35C197.038 65.1767 196.955 65.0283 196.845 64.905C196.735 64.7783 196.6 64.6817 196.44 64.615C196.283 64.545 196.103 64.51 195.9 64.51ZM199.119 69V63.935H199.629C199.725 63.935 199.792 63.9533 199.829 63.99C199.865 64.0267 199.89 64.09 199.904 64.18L199.964 64.97C200.137 64.6167 200.35 64.3417 200.604 64.145C200.86 63.945 201.16 63.845 201.504 63.845C201.644 63.845 201.77 63.8617 201.884 63.895C201.997 63.925 202.102 63.9683 202.199 64.025L202.084 64.69C202.06 64.7733 202.009 64.815 201.929 64.815C201.882 64.815 201.81 64.8 201.714 64.77C201.617 64.7367 201.482 64.72 201.309 64.72C200.999 64.72 200.739 64.81 200.529 64.99C200.322 65.17 200.149 65.4317 200.009 65.775V69H199.119ZM206.686 69H206.291C206.205 69 206.135 68.9867 206.081 68.96C206.028 68.9333 205.993 68.8767 205.976 68.79L205.876 68.32C205.743 68.44 205.613 68.5483 205.486 68.645C205.36 68.7383 205.226 68.8183 205.086 68.885C204.946 68.9483 204.796 68.9967 204.636 69.03C204.48 69.0633 204.305 69.08 204.111 69.08C203.915 69.08 203.73 69.0533 203.556 69C203.386 68.9433 203.238 68.86 203.111 68.75C202.985 68.64 202.883 68.5017 202.806 68.335C202.733 68.165 202.696 67.965 202.696 67.735C202.696 67.535 202.751 67.3433 202.861 67.16C202.971 66.9733 203.148 66.8083 203.391 66.665C203.638 66.5217 203.96 66.405 204.356 66.315C204.753 66.2217 205.238 66.1683 205.811 66.155V65.76C205.811 65.3667 205.726 65.07 205.556 64.87C205.39 64.6667 205.141 64.565 204.811 64.565C204.595 64.565 204.411 64.5933 204.261 64.65C204.115 64.7033 203.986 64.765 203.876 64.835C203.77 64.9017 203.676 64.9633 203.596 65.02C203.52 65.0733 203.443 65.1 203.366 65.1C203.306 65.1 203.253 65.085 203.206 65.055C203.163 65.0217 203.128 64.9817 203.101 64.935L202.941 64.65C203.221 64.38 203.523 64.1783 203.846 64.045C204.17 63.9117 204.528 63.845 204.921 63.845C205.205 63.845 205.456 63.8917 205.676 63.985C205.896 64.0783 206.081 64.2083 206.231 64.375C206.381 64.5417 206.495 64.7433 206.571 64.98C206.648 65.2167 206.686 65.4767 206.686 65.76V69ZM204.376 68.455C204.533 68.455 204.676 68.44 204.806 68.41C204.936 68.3767 205.058 68.3317 205.171 68.275C205.288 68.215 205.398 68.1433 205.501 68.06C205.608 67.9767 205.711 67.8817 205.811 67.775V66.72C205.401 66.7333 205.053 66.7667 204.766 66.82C204.48 66.87 204.246 66.9367 204.066 67.02C203.886 67.1033 203.755 67.2017 203.671 67.315C203.591 67.4283 203.551 67.555 203.551 67.695C203.551 67.8283 203.573 67.9433 203.616 68.04C203.66 68.1367 203.718 68.2167 203.791 68.28C203.865 68.34 203.951 68.385 204.051 68.415C204.151 68.4417 204.26 68.455 204.376 68.455ZM209.025 61.635V69H208.135V61.635H209.025ZM213.817 69H212.847V61.835H213.817V69ZM215.593 69V63.935H216.123C216.25 63.935 216.33 63.9967 216.363 64.12L216.433 64.67C216.653 64.4267 216.898 64.23 217.168 64.08C217.442 63.93 217.757 63.855 218.113 63.855C218.39 63.855 218.633 63.9017 218.843 63.995C219.057 64.085 219.233 64.215 219.373 64.385C219.517 64.5517 219.625 64.7533 219.698 64.99C219.772 65.2267 219.808 65.4883 219.808 65.775V69H218.918V65.775C218.918 65.3917 218.83 65.095 218.653 64.885C218.48 64.6717 218.213 64.565 217.853 64.565C217.59 64.565 217.343 64.6283 217.113 64.755C216.887 64.8817 216.677 65.0533 216.483 65.27V69H215.593ZM221.35 69V64.695L220.79 64.63C220.72 64.6133 220.662 64.5883 220.615 64.555C220.572 64.5183 220.55 64.4667 220.55 64.4V64.035H221.35V63.545C221.35 63.255 221.39 62.9983 221.47 62.775C221.553 62.5483 221.67 62.3583 221.82 62.205C221.973 62.0483 222.157 61.93 222.37 61.85C222.583 61.77 222.823 61.73 223.09 61.73C223.317 61.73 223.527 61.7633 223.72 61.83L223.7 62.275C223.697 62.3417 223.668 62.3817 223.615 62.395C223.562 62.4083 223.487 62.415 223.39 62.415H223.235C223.082 62.415 222.942 62.435 222.815 62.475C222.692 62.515 222.585 62.58 222.495 62.67C222.405 62.76 222.335 62.8783 222.285 63.025C222.238 63.1717 222.215 63.3533 222.215 63.57V64.035H223.68V64.68H222.245V69H221.35ZM226.569 63.855C226.939 63.855 227.272 63.9167 227.569 64.04C227.869 64.1633 228.122 64.3383 228.329 64.565C228.539 64.7917 228.699 65.0667 228.809 65.39C228.922 65.71 228.979 66.0683 228.979 66.465C228.979 66.865 228.922 67.225 228.809 67.545C228.699 67.865 228.539 68.1383 228.329 68.365C228.122 68.5917 227.869 68.7667 227.569 68.89C227.272 69.01 226.939 69.07 226.569 69.07C226.199 69.07 225.864 69.01 225.564 68.89C225.267 68.7667 225.014 68.5917 224.804 68.365C224.594 68.1383 224.432 67.865 224.319 67.545C224.206 67.225 224.149 66.865 224.149 66.465C224.149 66.0683 224.206 65.71 224.319 65.39C224.432 65.0667 224.594 64.7917 224.804 64.565C225.014 64.3383 225.267 64.1633 225.564 64.04C225.864 63.9167 226.199 63.855 226.569 63.855ZM226.569 68.375C227.069 68.375 227.442 68.2083 227.689 67.875C227.936 67.5383 228.059 67.07 228.059 66.47C228.059 65.8667 227.936 65.3967 227.689 65.06C227.442 64.7233 227.069 64.555 226.569 64.555C226.316 64.555 226.096 64.5983 225.909 64.685C225.722 64.7717 225.566 64.8967 225.439 65.06C225.316 65.2233 225.222 65.425 225.159 65.665C225.099 65.9017 225.069 66.17 225.069 66.47C225.069 66.77 225.099 67.0383 225.159 67.275C225.222 67.5117 225.316 67.7117 225.439 67.875C225.566 68.035 225.722 68.1583 225.909 68.245C226.096 68.3317 226.316 68.375 226.569 68.375ZM230.076 69V63.935H230.586C230.682 63.935 230.749 63.9533 230.786 63.99C230.822 64.0267 230.847 64.09 230.861 64.18L230.921 64.97C231.094 64.6167 231.307 64.3417 231.561 64.145C231.817 63.945 232.117 63.845 232.461 63.845C232.601 63.845 232.727 63.8617 232.841 63.895C232.954 63.925 233.059 63.9683 233.156 64.025L233.041 64.69C233.017 64.7733 232.966 64.815 232.886 64.815C232.839 64.815 232.767 64.8 232.671 64.77C232.574 64.7367 232.439 64.72 232.266 64.72C231.956 64.72 231.696 64.81 231.486 64.99C231.279 65.17 231.106 65.4317 230.966 65.775V69H230.076ZM234.109 69V63.935H234.639C234.766 63.935 234.846 63.9967 234.879 64.12L234.944 64.64C235.131 64.41 235.339 64.2217 235.569 64.075C235.802 63.9283 236.072 63.855 236.379 63.855C236.722 63.855 236.999 63.95 237.209 64.14C237.422 64.33 237.576 64.5867 237.669 64.91C237.739 64.7267 237.831 64.5683 237.944 64.435C238.061 64.3017 238.191 64.1917 238.334 64.105C238.477 64.0183 238.629 63.955 238.789 63.915C238.952 63.875 239.117 63.855 239.284 63.855C239.551 63.855 239.787 63.8983 239.994 63.985C240.204 64.0683 240.381 64.1917 240.524 64.355C240.671 64.5183 240.782 64.72 240.859 64.96C240.936 65.1967 240.974 65.4683 240.974 65.775V69H240.084V65.775C240.084 65.3783 239.997 65.0783 239.824 64.875C239.651 64.6683 239.399 64.565 239.069 64.565C238.922 64.565 238.782 64.5917 238.649 64.645C238.519 64.695 238.404 64.77 238.304 64.87C238.204 64.97 238.124 65.0967 238.064 65.25C238.007 65.4 237.979 65.575 237.979 65.775V69H237.089V65.775C237.089 65.3683 237.007 65.065 236.844 64.865C236.681 64.665 236.442 64.565 236.129 64.565C235.909 64.565 235.704 64.625 235.514 64.745C235.327 64.8617 235.156 65.0217 234.999 65.225V69H234.109ZM246.042 69H245.647C245.56 69 245.49 68.9867 245.437 68.96C245.383 68.9333 245.348 68.8767 245.332 68.79L245.232 68.32C245.098 68.44 244.968 68.5483 244.842 68.645C244.715 68.7383 244.582 68.8183 244.442 68.885C244.302 68.9483 244.152 68.9967 243.992 69.03C243.835 69.0633 243.66 69.08 243.467 69.08C243.27 69.08 243.085 69.0533 242.912 69C242.742 68.9433 242.593 68.86 242.467 68.75C242.34 68.64 242.238 68.5017 242.162 68.335C242.088 68.165 242.052 67.965 242.052 67.735C242.052 67.535 242.107 67.3433 242.217 67.16C242.327 66.9733 242.503 66.8083 242.747 66.665C242.993 66.5217 243.315 66.405 243.712 66.315C244.108 66.2217 244.593 66.1683 245.167 66.155V65.76C245.167 65.3667 245.082 65.07 244.912 64.87C244.745 64.6667 244.497 64.565 244.167 64.565C243.95 64.565 243.767 64.5933 243.617 64.65C243.47 64.7033 243.342 64.765 243.232 64.835C243.125 64.9017 243.032 64.9633 242.952 65.02C242.875 65.0733 242.798 65.1 242.722 65.1C242.662 65.1 242.608 65.085 242.562 65.055C242.518 65.0217 242.483 64.9817 242.457 64.935L242.297 64.65C242.577 64.38 242.878 64.1783 243.202 64.045C243.525 63.9117 243.883 63.845 244.277 63.845C244.56 63.845 244.812 63.8917 245.032 63.985C245.252 64.0783 245.437 64.2083 245.587 64.375C245.737 64.5417 245.85 64.7433 245.927 64.98C246.003 65.2167 246.042 65.4767 246.042 65.76V69ZM243.732 68.455C243.888 68.455 244.032 68.44 244.162 68.41C244.292 68.3767 244.413 68.3317 244.527 68.275C244.643 68.215 244.753 68.1433 244.857 68.06C244.963 67.9767 245.067 67.8817 245.167 67.775V66.72C244.757 66.7333 244.408 66.7667 244.122 66.82C243.835 66.87 243.602 66.9367 243.422 67.02C243.242 67.1033 243.11 67.2017 243.027 67.315C242.947 67.4283 242.907 67.555 242.907 67.695C242.907 67.8283 242.928 67.9433 242.972 68.04C243.015 68.1367 243.073 68.2167 243.147 68.28C243.22 68.34 243.307 68.385 243.407 68.415C243.507 68.4417 243.615 68.455 243.732 68.455ZM248.925 69.08C248.525 69.08 248.217 68.9683 248 68.745C247.787 68.5217 247.68 68.2 247.68 67.78V64.68H247.07C247.017 64.68 246.972 64.665 246.935 64.635C246.898 64.6017 246.88 64.5517 246.88 64.485V64.13L247.71 64.025L247.915 62.46C247.922 62.41 247.943 62.37 247.98 62.34C248.017 62.3067 248.063 62.29 248.12 62.29H248.57V64.035H250.02V64.68H248.57V67.72C248.57 67.9333 248.622 68.0917 248.725 68.195C248.828 68.2983 248.962 68.35 249.125 68.35C249.218 68.35 249.298 68.3383 249.365 68.315C249.435 68.2883 249.495 68.26 249.545 68.23C249.595 68.2 249.637 68.1733 249.67 68.15C249.707 68.1233 249.738 68.11 249.765 68.11C249.812 68.11 249.853 68.1383 249.89 68.195L250.15 68.62C249.997 68.7633 249.812 68.8767 249.595 68.96C249.378 69.04 249.155 69.08 248.925 69.08ZM252.111 63.935V69H251.221V63.935H252.111ZM252.311 62.345C252.311 62.4317 252.292 62.5133 252.256 62.59C252.222 62.6633 252.176 62.73 252.116 62.79C252.059 62.8467 251.992 62.8917 251.916 62.925C251.839 62.9583 251.757 62.975 251.671 62.975C251.584 62.975 251.502 62.9583 251.426 62.925C251.352 62.8917 251.286 62.8467 251.226 62.79C251.169 62.73 251.124 62.6633 251.091 62.59C251.057 62.5133 251.041 62.4317 251.041 62.345C251.041 62.2583 251.057 62.1767 251.091 62.1C251.124 62.02 251.169 61.9517 251.226 61.895C251.286 61.835 251.352 61.7883 251.426 61.755C251.502 61.7217 251.584 61.705 251.671 61.705C251.757 61.705 251.839 61.7217 251.916 61.755C251.992 61.7883 252.059 61.835 252.116 61.895C252.176 61.9517 252.222 62.02 252.256 62.1C252.292 62.1767 252.311 62.2583 252.311 62.345ZM255.729 63.855C256.099 63.855 256.433 63.9167 256.729 64.04C257.029 64.1633 257.283 64.3383 257.489 64.565C257.699 64.7917 257.859 65.0667 257.969 65.39C258.083 65.71 258.139 66.0683 258.139 66.465C258.139 66.865 258.083 67.225 257.969 67.545C257.859 67.865 257.699 68.1383 257.489 68.365C257.283 68.5917 257.029 68.7667 256.729 68.89C256.433 69.01 256.099 69.07 255.729 69.07C255.359 69.07 255.024 69.01 254.724 68.89C254.428 68.7667 254.174 68.5917 253.964 68.365C253.754 68.1383 253.593 67.865 253.479 67.545C253.366 67.225 253.309 66.865 253.309 66.465C253.309 66.0683 253.366 65.71 253.479 65.39C253.593 65.0667 253.754 64.7917 253.964 64.565C254.174 64.3383 254.428 64.1633 254.724 64.04C255.024 63.9167 255.359 63.855 255.729 63.855ZM255.729 68.375C256.229 68.375 256.603 68.2083 256.849 67.875C257.096 67.5383 257.219 67.07 257.219 66.47C257.219 65.8667 257.096 65.3967 256.849 65.06C256.603 64.7233 256.229 64.555 255.729 64.555C255.476 64.555 255.256 64.5983 255.069 64.685C254.883 64.7717 254.726 64.8967 254.599 65.06C254.476 65.2233 254.383 65.425 254.319 65.665C254.259 65.9017 254.229 66.17 254.229 66.47C254.229 66.77 254.259 67.0383 254.319 67.275C254.383 67.5117 254.476 67.7117 254.599 67.875C254.726 68.035 254.883 68.1583 255.069 68.245C255.256 68.3317 255.476 68.375 255.729 68.375ZM259.236 69V63.935H259.766C259.893 63.935 259.973 63.9967 260.006 64.12L260.076 64.67C260.296 64.4267 260.541 64.23 260.811 64.08C261.084 63.93 261.399 63.855 261.756 63.855C262.033 63.855 262.276 63.9017 262.486 63.995C262.699 64.085 262.876 64.215 263.016 64.385C263.159 64.5517 263.268 64.7533 263.341 64.99C263.414 65.2267 263.451 65.4883 263.451 65.775V69H262.561V65.775C262.561 65.3917 262.473 65.095 262.296 64.885C262.123 64.6717 261.856 64.565 261.496 64.565C261.233 64.565 260.986 64.6283 260.756 64.755C260.529 64.8817 260.319 65.0533 260.126 65.27V69H259.236Z" fill="#333333"/>
<path d="M162 59.1875C158.79 59.1875 156.188 61.791 156.188 65C156.188 68.2109 158.79 70.8125 162 70.8125C165.21 70.8125 167.812 68.2109 167.812 65C167.812 61.791 165.21 59.1875 162 59.1875ZM162 61.7656C162.544 61.7656 162.984 62.2063 162.984 62.75C162.984 63.2937 162.544 63.7344 162 63.7344C161.456 63.7344 161.016 63.2937 161.016 62.75C161.016 62.2063 161.456 61.7656 162 61.7656ZM163.312 67.7188C163.312 67.8741 163.187 68 163.031 68H160.969C160.813 68 160.688 67.8741 160.688 67.7188V67.1562C160.688 67.0009 160.813 66.875 160.969 66.875H161.25V65.375H160.969C160.813 65.375 160.688 65.2491 160.688 65.0938V64.5312C160.688 64.3759 160.813 64.25 160.969 64.25H162.469C162.624 64.25 162.75 64.3759 162.75 64.5312V66.875H163.031C163.187 66.875 163.312 67.0009 163.312 67.1562V67.7188Z" fill="#333333"/>
<path d="M179.54 85.3272C179.51 85.3772 179.478 85.4155 179.445 85.4422C179.412 85.4655 179.368 85.4772 179.315 85.4772C179.258 85.4772 179.192 85.4489 179.115 85.3922C179.042 85.3355 178.947 85.2739 178.83 85.2072C178.717 85.1372 178.578 85.0739 178.415 85.0172C178.255 84.9605 178.06 84.9322 177.83 84.9322C177.613 84.9322 177.422 84.9622 177.255 85.0222C177.088 85.0789 176.948 85.1572 176.835 85.2572C176.725 85.3572 176.642 85.4755 176.585 85.6122C176.528 85.7455 176.5 85.8905 176.5 86.0472C176.5 86.2472 176.548 86.4139 176.645 86.5472C176.745 86.6772 176.875 86.7889 177.035 86.8822C177.198 86.9755 177.382 87.0572 177.585 87.1272C177.792 87.1939 178.002 87.2639 178.215 87.3372C178.432 87.4105 178.642 87.4939 178.845 87.5872C179.052 87.6772 179.235 87.7922 179.395 87.9322C179.558 88.0722 179.688 88.2439 179.785 88.4472C179.885 88.6505 179.935 88.9005 179.935 89.1972C179.935 89.5105 179.882 89.8055 179.775 90.0822C179.668 90.3555 179.512 90.5939 179.305 90.7972C179.102 91.0005 178.85 91.1605 178.55 91.2772C178.253 91.3939 177.915 91.4522 177.535 91.4522C177.072 91.4522 176.648 91.3689 176.265 91.2022C175.885 91.0322 175.56 90.8039 175.29 90.5172L175.57 90.0572C175.597 90.0205 175.628 89.9905 175.665 89.9672C175.705 89.9405 175.748 89.9272 175.795 89.9272C175.865 89.9272 175.945 89.9655 176.035 90.0422C176.125 90.1155 176.237 90.1972 176.37 90.2872C176.507 90.3772 176.67 90.4605 176.86 90.5372C177.053 90.6105 177.288 90.6472 177.565 90.6472C177.795 90.6472 178 90.6155 178.18 90.5522C178.36 90.4889 178.512 90.4005 178.635 90.2872C178.762 90.1705 178.858 90.0322 178.925 89.8722C178.992 89.7122 179.025 89.5339 179.025 89.3372C179.025 89.1205 178.975 88.9439 178.875 88.8072C178.778 88.6672 178.65 88.5505 178.49 88.4572C178.33 88.3639 178.147 88.2855 177.94 88.2222C177.737 88.1555 177.527 88.0889 177.31 88.0222C177.097 87.9522 176.887 87.8722 176.68 87.7822C176.477 87.6922 176.295 87.5755 176.135 87.4322C175.975 87.2889 175.845 87.1105 175.745 86.8972C175.648 86.6805 175.6 86.4139 175.6 86.0972C175.6 85.8439 175.648 85.5989 175.745 85.3622C175.845 85.1255 175.988 84.9155 176.175 84.7322C176.362 84.5489 176.592 84.4022 176.865 84.2922C177.142 84.1822 177.458 84.1272 177.815 84.1272C178.215 84.1272 178.58 84.1905 178.91 84.3172C179.24 84.4439 179.528 84.6272 179.775 84.8672L179.54 85.3272ZM182.518 92.8672C182.488 92.9339 182.449 92.9872 182.403 93.0272C182.359 93.0672 182.291 93.0872 182.198 93.0872H181.538L182.463 91.0772L180.373 86.3072H181.143C181.219 86.3072 181.279 86.3272 181.323 86.3672C181.366 86.4039 181.398 86.4455 181.418 86.4922L182.773 89.6822C182.803 89.7555 182.828 89.8289 182.848 89.9022C182.871 89.9755 182.891 90.0505 182.908 90.1272C182.931 90.0505 182.954 89.9755 182.978 89.9022C183.001 89.8289 183.028 89.7539 183.058 89.6772L184.373 86.4922C184.393 86.4389 184.426 86.3955 184.473 86.3622C184.523 86.3255 184.576 86.3072 184.633 86.3072H185.343L182.518 92.8672ZM189.05 87.1422C189.01 87.2155 188.948 87.2522 188.865 87.2522C188.815 87.2522 188.758 87.2339 188.695 87.1972C188.632 87.1605 188.553 87.1205 188.46 87.0772C188.37 87.0305 188.262 86.9889 188.135 86.9522C188.008 86.9122 187.858 86.8922 187.685 86.8922C187.535 86.8922 187.4 86.9122 187.28 86.9522C187.16 86.9889 187.057 87.0405 186.97 87.1072C186.887 87.1739 186.822 87.2522 186.775 87.3422C186.732 87.4289 186.71 87.5239 186.71 87.6272C186.71 87.7572 186.747 87.8655 186.82 87.9522C186.897 88.0389 186.997 88.1139 187.12 88.1772C187.243 88.2405 187.383 88.2972 187.54 88.3472C187.697 88.3939 187.857 88.4455 188.02 88.5022C188.187 88.5555 188.348 88.6155 188.505 88.6822C188.662 88.7489 188.802 88.8322 188.925 88.9322C189.048 89.0322 189.147 89.1555 189.22 89.3022C189.297 89.4455 189.335 89.6189 189.335 89.8222C189.335 90.0555 189.293 90.2722 189.21 90.4722C189.127 90.6689 189.003 90.8405 188.84 90.9872C188.677 91.1305 188.477 91.2439 188.24 91.3272C188.003 91.4105 187.73 91.4522 187.42 91.4522C187.067 91.4522 186.747 91.3955 186.46 91.2822C186.173 91.1655 185.93 91.0172 185.73 90.8372L185.94 90.4972C185.967 90.4539 185.998 90.4205 186.035 90.3972C186.072 90.3739 186.12 90.3622 186.18 90.3622C186.24 90.3622 186.303 90.3855 186.37 90.4322C186.437 90.4789 186.517 90.5305 186.61 90.5872C186.707 90.6439 186.822 90.6955 186.955 90.7422C187.092 90.7889 187.262 90.8122 187.465 90.8122C187.638 90.8122 187.79 90.7905 187.92 90.7472C188.05 90.7005 188.158 90.6389 188.245 90.5622C188.332 90.4855 188.395 90.3972 188.435 90.2972C188.478 90.1972 188.5 90.0905 188.5 89.9772C188.5 89.8372 188.462 89.7222 188.385 89.6322C188.312 89.5389 188.213 89.4605 188.09 89.3972C187.967 89.3305 187.825 89.2739 187.665 89.2272C187.508 89.1772 187.347 89.1255 187.18 89.0722C187.017 89.0189 186.855 88.9589 186.695 88.8922C186.538 88.8222 186.398 88.7355 186.275 88.6322C186.152 88.5289 186.052 88.4022 185.975 88.2522C185.902 88.0989 185.865 87.9139 185.865 87.6972C185.865 87.5039 185.905 87.3189 185.985 87.1422C186.065 86.9622 186.182 86.8055 186.335 86.6722C186.488 86.5355 186.677 86.4272 186.9 86.3472C187.123 86.2672 187.378 86.2272 187.665 86.2272C187.998 86.2272 188.297 86.2805 188.56 86.3872C188.827 86.4905 189.057 86.6339 189.25 86.8172L189.05 87.1422ZM192.021 91.4522C191.621 91.4522 191.313 91.3405 191.096 91.1172C190.883 90.8939 190.776 90.5722 190.776 90.1522V87.0522H190.166C190.113 87.0522 190.068 87.0372 190.031 87.0072C189.994 86.9739 189.976 86.9239 189.976 86.8572V86.5022L190.806 86.3972L191.011 84.8322C191.018 84.7822 191.039 84.7422 191.076 84.7122C191.113 84.6789 191.159 84.6622 191.216 84.6622H191.666V86.4072H193.116V87.0522H191.666V90.0922C191.666 90.3055 191.718 90.4639 191.821 90.5672C191.924 90.6705 192.058 90.7222 192.221 90.7222C192.314 90.7222 192.394 90.7105 192.461 90.6872C192.531 90.6605 192.591 90.6322 192.641 90.6022C192.691 90.5722 192.733 90.5455 192.766 90.5222C192.803 90.4955 192.834 90.4822 192.861 90.4822C192.908 90.4822 192.949 90.5105 192.986 90.5672L193.246 90.9922C193.093 91.1355 192.908 91.2489 192.691 91.3322C192.474 91.4122 192.251 91.4522 192.021 91.4522ZM196.221 86.2272C196.525 86.2272 196.805 86.2789 197.061 86.3822C197.318 86.4822 197.54 86.6289 197.726 86.8222C197.913 87.0122 198.058 87.2489 198.161 87.5322C198.268 87.8122 198.321 88.1322 198.321 88.4922C198.321 88.6322 198.306 88.7255 198.276 88.7722C198.246 88.8189 198.19 88.8422 198.106 88.8422H194.736C194.743 89.1622 194.786 89.4405 194.866 89.6772C194.946 89.9139 195.056 90.1122 195.196 90.2722C195.336 90.4289 195.503 90.5472 195.696 90.6272C195.89 90.7039 196.106 90.7422 196.346 90.7422C196.57 90.7422 196.761 90.7172 196.921 90.6672C197.085 90.6139 197.225 90.5572 197.341 90.4972C197.458 90.4372 197.555 90.3822 197.631 90.3322C197.711 90.2789 197.78 90.2522 197.836 90.2522C197.91 90.2522 197.966 90.2805 198.006 90.3372L198.256 90.6622C198.146 90.7955 198.015 90.9122 197.861 91.0122C197.708 91.1089 197.543 91.1889 197.366 91.2522C197.193 91.3155 197.013 91.3622 196.826 91.3922C196.64 91.4255 196.455 91.4422 196.271 91.4422C195.921 91.4422 195.598 91.3839 195.301 91.2672C195.008 91.1472 194.753 90.9739 194.536 90.7472C194.323 90.5172 194.156 90.2339 194.036 89.8972C193.916 89.5605 193.856 89.1739 193.856 88.7372C193.856 88.3839 193.91 88.0539 194.016 87.7472C194.126 87.4405 194.283 87.1755 194.486 86.9522C194.69 86.7255 194.938 86.5489 195.231 86.4222C195.525 86.2922 195.855 86.2272 196.221 86.2272ZM196.241 86.8822C195.811 86.8822 195.473 87.0072 195.226 87.2572C194.98 87.5039 194.826 87.8472 194.766 88.2872H197.521C197.521 88.0805 197.493 87.8922 197.436 87.7222C197.38 87.5489 197.296 87.4005 197.186 87.2772C197.076 87.1505 196.941 87.0539 196.781 86.9872C196.625 86.9172 196.445 86.8822 196.241 86.8822ZM199.46 91.3722V86.3072H199.99C200.117 86.3072 200.197 86.3689 200.23 86.4922L200.295 87.0122C200.482 86.7822 200.69 86.5939 200.92 86.4472C201.154 86.3005 201.424 86.2272 201.73 86.2272C202.074 86.2272 202.35 86.3222 202.56 86.5122C202.774 86.7022 202.927 86.9589 203.02 87.2822C203.09 87.0989 203.182 86.9405 203.295 86.8072C203.412 86.6739 203.542 86.5639 203.685 86.4772C203.829 86.3905 203.98 86.3272 204.14 86.2872C204.304 86.2472 204.469 86.2272 204.635 86.2272C204.902 86.2272 205.139 86.2705 205.345 86.3572C205.555 86.4405 205.732 86.5639 205.875 86.7272C206.022 86.8905 206.134 87.0922 206.21 87.3322C206.287 87.5689 206.325 87.8405 206.325 88.1472V91.3722H205.435V88.1472C205.435 87.7505 205.349 87.4505 205.175 87.2472C205.002 87.0405 204.75 86.9372 204.42 86.9372C204.274 86.9372 204.134 86.9639 204 87.0172C203.87 87.0672 203.755 87.1422 203.655 87.2422C203.555 87.3422 203.475 87.4689 203.415 87.6222C203.359 87.7722 203.33 87.9472 203.33 88.1472V91.3722H202.44V88.1472C202.44 87.7405 202.359 87.4372 202.195 87.2372C202.032 87.0372 201.794 86.9372 201.48 86.9372C201.26 86.9372 201.055 86.9972 200.865 87.1172C200.679 87.2339 200.507 87.3939 200.35 87.5972V91.3722H199.46ZM214.627 84.2072V85.0222H212.312V91.3722H211.342V85.0222H209.017V84.2072H214.627ZM216.501 86.2272C216.871 86.2272 217.204 86.2889 217.501 86.4122C217.801 86.5355 218.054 86.7105 218.261 86.9372C218.471 87.1639 218.631 87.4389 218.741 87.7622C218.854 88.0822 218.911 88.4405 218.911 88.8372C218.911 89.2372 218.854 89.5972 218.741 89.9172C218.631 90.2372 218.471 90.5105 218.261 90.7372C218.054 90.9639 217.801 91.1389 217.501 91.2622C217.204 91.3822 216.871 91.4422 216.501 91.4422C216.131 91.4422 215.796 91.3822 215.496 91.2622C215.199 91.1389 214.946 90.9639 214.736 90.7372C214.526 90.5105 214.364 90.2372 214.251 89.9172C214.137 89.5972 214.081 89.2372 214.081 88.8372C214.081 88.4405 214.137 88.0822 214.251 87.7622C214.364 87.4389 214.526 87.1639 214.736 86.9372C214.946 86.7105 215.199 86.5355 215.496 86.4122C215.796 86.2889 216.131 86.2272 216.501 86.2272ZM216.501 90.7472C217.001 90.7472 217.374 90.5805 217.621 90.2472C217.867 89.9105 217.991 89.4422 217.991 88.8422C217.991 88.2389 217.867 87.7689 217.621 87.4322C217.374 87.0955 217.001 86.9272 216.501 86.9272C216.247 86.9272 216.027 86.9705 215.841 87.0572C215.654 87.1439 215.497 87.2689 215.371 87.4322C215.247 87.5955 215.154 87.7972 215.091 88.0372C215.031 88.2739 215.001 88.5422 215.001 88.8422C215.001 89.1422 215.031 89.4105 215.091 89.6472C215.154 89.8839 215.247 90.0839 215.371 90.2472C215.497 90.4072 215.654 90.5305 215.841 90.6172C216.027 90.7039 216.247 90.7472 216.501 90.7472ZM222.057 86.2272C222.427 86.2272 222.761 86.2889 223.057 86.4122C223.357 86.5355 223.611 86.7105 223.817 86.9372C224.027 87.1639 224.187 87.4389 224.297 87.7622C224.411 88.0822 224.467 88.4405 224.467 88.8372C224.467 89.2372 224.411 89.5972 224.297 89.9172C224.187 90.2372 224.027 90.5105 223.817 90.7372C223.611 90.9639 223.357 91.1389 223.057 91.2622C222.761 91.3822 222.427 91.4422 222.057 91.4422C221.687 91.4422 221.352 91.3822 221.052 91.2622C220.756 91.1389 220.502 90.9639 220.292 90.7372C220.082 90.5105 219.921 90.2372 219.807 89.9172C219.694 89.5972 219.637 89.2372 219.637 88.8372C219.637 88.4405 219.694 88.0822 219.807 87.7622C219.921 87.4389 220.082 87.1639 220.292 86.9372C220.502 86.7105 220.756 86.5355 221.052 86.4122C221.352 86.2889 221.687 86.2272 222.057 86.2272ZM222.057 90.7472C222.557 90.7472 222.931 90.5805 223.177 90.2472C223.424 89.9105 223.547 89.4422 223.547 88.8422C223.547 88.2389 223.424 87.7689 223.177 87.4322C222.931 87.0955 222.557 86.9272 222.057 86.9272C221.804 86.9272 221.584 86.9705 221.397 87.0572C221.211 87.1439 221.054 87.2689 220.927 87.4322C220.804 87.5955 220.711 87.7972 220.647 88.0372C220.587 88.2739 220.557 88.5422 220.557 88.8422C220.557 89.1422 220.587 89.4105 220.647 89.6472C220.711 89.8839 220.804 90.0839 220.927 90.2472C221.054 90.4072 221.211 90.5305 221.397 90.6172C221.584 90.7039 221.804 90.7472 222.057 90.7472ZM226.554 84.0072V91.3722H225.664V84.0072H226.554ZM231.023 87.1422C230.983 87.2155 230.921 87.2522 230.838 87.2522C230.788 87.2522 230.731 87.2339 230.668 87.1972C230.604 87.1605 230.526 87.1205 230.433 87.0772C230.343 87.0305 230.234 86.9889 230.108 86.9522C229.981 86.9122 229.831 86.8922 229.658 86.8922C229.508 86.8922 229.373 86.9122 229.253 86.9522C229.133 86.9889 229.029 87.0405 228.943 87.1072C228.859 87.1739 228.794 87.2522 228.748 87.3422C228.704 87.4289 228.683 87.5239 228.683 87.6272C228.683 87.7572 228.719 87.8655 228.793 87.9522C228.869 88.0389 228.969 88.1139 229.093 88.1772C229.216 88.2405 229.356 88.2972 229.513 88.3472C229.669 88.3939 229.829 88.4455 229.993 88.5022C230.159 88.5555 230.321 88.6155 230.478 88.6822C230.634 88.7489 230.774 88.8322 230.898 88.9322C231.021 89.0322 231.119 89.1555 231.193 89.3022C231.269 89.4455 231.308 89.6189 231.308 89.8222C231.308 90.0555 231.266 90.2722 231.183 90.4722C231.099 90.6689 230.976 90.8405 230.813 90.9872C230.649 91.1305 230.449 91.2439 230.213 91.3272C229.976 91.4105 229.703 91.4522 229.393 91.4522C229.039 91.4522 228.719 91.3955 228.433 91.2822C228.146 91.1655 227.903 91.0172 227.703 90.8372L227.913 90.4972C227.939 90.4539 227.971 90.4205 228.008 90.3972C228.044 90.3739 228.093 90.3622 228.153 90.3622C228.213 90.3622 228.276 90.3855 228.343 90.4322C228.409 90.4789 228.489 90.5305 228.583 90.5872C228.679 90.6439 228.794 90.6955 228.928 90.7422C229.064 90.7889 229.234 90.8122 229.438 90.8122C229.611 90.8122 229.763 90.7905 229.893 90.7472C230.023 90.7005 230.131 90.6389 230.218 90.5622C230.304 90.4855 230.368 90.3972 230.408 90.2972C230.451 90.1972 230.473 90.0905 230.473 89.9772C230.473 89.8372 230.434 89.7222 230.358 89.6322C230.284 89.5389 230.186 89.4605 230.063 89.3972C229.939 89.3305 229.798 89.2739 229.638 89.2272C229.481 89.1772 229.319 89.1255 229.153 89.0722C228.989 89.0189 228.828 88.9589 228.668 88.8922C228.511 88.8222 228.371 88.7355 228.248 88.6322C228.124 88.5289 228.024 88.4022 227.948 88.2522C227.874 88.0989 227.838 87.9139 227.838 87.6972C227.838 87.5039 227.878 87.3189 227.958 87.1422C228.038 86.9622 228.154 86.8055 228.308 86.6722C228.461 86.5355 228.649 86.4272 228.873 86.3472C229.096 86.2672 229.351 86.2272 229.638 86.2272C229.971 86.2272 230.269 86.2805 230.533 86.3872C230.799 86.4905 231.029 86.6339 231.223 86.8172L231.023 87.1422Z" fill="#333333"/>
<path d="M179.98 115.301V116.116H175.915V108.951H176.88V115.301H179.98ZM182.615 110.971C182.985 110.971 183.319 111.033 183.615 111.156C183.912 111.28 184.165 111.455 184.375 111.681C184.585 111.908 184.745 112.183 184.855 112.506C184.969 112.826 185.025 113.185 185.025 113.581C185.025 113.981 184.969 114.341 184.855 114.661C184.745 114.981 184.585 115.255 184.375 115.481C184.165 115.708 183.912 115.883 183.615 116.006C183.319 116.126 182.985 116.186 182.615 116.186C182.242 116.186 181.905 116.126 181.605 116.006C181.309 115.883 181.055 115.708 180.845 115.481C180.635 115.255 180.474 114.981 180.36 114.661C180.25 114.341 180.195 113.981 180.195 113.581C180.195 113.185 180.25 112.826 180.36 112.506C180.474 112.183 180.635 111.908 180.845 111.681C181.055 111.455 181.309 111.28 181.605 111.156C181.905 111.033 182.242 110.971 182.615 110.971ZM182.615 115.491C183.115 115.491 183.489 115.325 183.735 114.991C183.982 114.655 184.105 114.186 184.105 113.586C184.105 112.983 183.982 112.513 183.735 112.176C183.489 111.84 183.115 111.671 182.615 111.671C182.362 111.671 182.14 111.715 181.95 111.801C181.764 111.888 181.607 112.013 181.48 112.176C181.357 112.34 181.264 112.541 181.2 112.781C181.14 113.018 181.11 113.286 181.11 113.586C181.11 114.186 181.234 114.655 181.48 114.991C181.73 115.325 182.109 115.491 182.615 115.491ZM187.89 113.641C188.07 113.641 188.228 113.616 188.365 113.566C188.502 113.516 188.617 113.446 188.71 113.356C188.803 113.266 188.873 113.16 188.92 113.036C188.967 112.91 188.99 112.771 188.99 112.621C188.99 112.311 188.895 112.065 188.705 111.881C188.518 111.698 188.247 111.606 187.89 111.606C187.53 111.606 187.255 111.698 187.065 111.881C186.878 112.065 186.785 112.311 186.785 112.621C186.785 112.771 186.808 112.91 186.855 113.036C186.905 113.16 186.977 113.266 187.07 113.356C187.163 113.446 187.278 113.516 187.415 113.566C187.552 113.616 187.71 113.641 187.89 113.641ZM189.495 116.391C189.495 116.268 189.46 116.168 189.39 116.091C189.32 116.015 189.225 115.955 189.105 115.911C188.988 115.868 188.852 115.838 188.695 115.821C188.538 115.801 188.372 115.786 188.195 115.776C188.022 115.766 187.845 115.756 187.665 115.746C187.485 115.736 187.312 115.72 187.145 115.696C186.958 115.783 186.805 115.893 186.685 116.026C186.568 116.156 186.51 116.31 186.51 116.486C186.51 116.6 186.538 116.705 186.595 116.801C186.655 116.901 186.745 116.986 186.865 117.056C186.985 117.13 187.135 117.186 187.315 117.226C187.498 117.27 187.713 117.291 187.96 117.291C188.2 117.291 188.415 117.27 188.605 117.226C188.795 117.183 188.955 117.121 189.085 117.041C189.218 116.961 189.32 116.866 189.39 116.756C189.46 116.646 189.495 116.525 189.495 116.391ZM190.4 111.251V111.581C190.4 111.691 190.33 111.761 190.19 111.791L189.615 111.866C189.728 112.086 189.785 112.33 189.785 112.596C189.785 112.843 189.737 113.068 189.64 113.271C189.547 113.471 189.417 113.643 189.25 113.786C189.083 113.93 188.883 114.04 188.65 114.116C188.417 114.193 188.163 114.231 187.89 114.231C187.653 114.231 187.43 114.203 187.22 114.146C187.113 114.213 187.032 114.285 186.975 114.361C186.918 114.435 186.89 114.51 186.89 114.586C186.89 114.706 186.938 114.798 187.035 114.861C187.135 114.921 187.265 114.965 187.425 114.991C187.585 115.018 187.767 115.035 187.97 115.041C188.177 115.048 188.387 115.06 188.6 115.076C188.817 115.09 189.027 115.115 189.23 115.151C189.437 115.188 189.62 115.248 189.78 115.331C189.94 115.415 190.068 115.53 190.165 115.676C190.265 115.823 190.315 116.013 190.315 116.246C190.315 116.463 190.26 116.673 190.15 116.876C190.043 117.08 189.888 117.26 189.685 117.416C189.482 117.576 189.232 117.703 188.935 117.796C188.642 117.893 188.31 117.941 187.94 117.941C187.57 117.941 187.247 117.905 186.97 117.831C186.693 117.758 186.463 117.66 186.28 117.536C186.097 117.413 185.958 117.27 185.865 117.106C185.775 116.946 185.73 116.778 185.73 116.601C185.73 116.351 185.808 116.14 185.965 115.966C186.122 115.793 186.337 115.655 186.61 115.551C186.46 115.485 186.34 115.396 186.25 115.286C186.163 115.173 186.12 115.021 186.12 114.831C186.12 114.758 186.133 114.683 186.16 114.606C186.187 114.526 186.227 114.448 186.28 114.371C186.337 114.291 186.405 114.216 186.485 114.146C186.565 114.076 186.658 114.015 186.765 113.961C186.515 113.821 186.32 113.636 186.18 113.406C186.04 113.173 185.97 112.903 185.97 112.596C185.97 112.35 186.017 112.126 186.11 111.926C186.207 111.723 186.34 111.551 186.51 111.411C186.68 111.268 186.882 111.158 187.115 111.081C187.352 111.005 187.61 110.966 187.89 110.966C188.11 110.966 188.315 110.991 188.505 111.041C188.695 111.088 188.868 111.158 189.025 111.251H190.4ZM193.377 110.971C193.747 110.971 194.08 111.033 194.377 111.156C194.674 111.28 194.927 111.455 195.137 111.681C195.347 111.908 195.507 112.183 195.617 112.506C195.73 112.826 195.787 113.185 195.787 113.581C195.787 113.981 195.73 114.341 195.617 114.661C195.507 114.981 195.347 115.255 195.137 115.481C194.927 115.708 194.674 115.883 194.377 116.006C194.08 116.126 193.747 116.186 193.377 116.186C193.004 116.186 192.667 116.126 192.367 116.006C192.07 115.883 191.817 115.708 191.607 115.481C191.397 115.255 191.235 114.981 191.122 114.661C191.012 114.341 190.957 113.981 190.957 113.581C190.957 113.185 191.012 112.826 191.122 112.506C191.235 112.183 191.397 111.908 191.607 111.681C191.817 111.455 192.07 111.28 192.367 111.156C192.667 111.033 193.004 110.971 193.377 110.971ZM193.377 115.491C193.877 115.491 194.25 115.325 194.497 114.991C194.744 114.655 194.867 114.186 194.867 113.586C194.867 112.983 194.744 112.513 194.497 112.176C194.25 111.84 193.877 111.671 193.377 111.671C193.124 111.671 192.902 111.715 192.712 111.801C192.525 111.888 192.369 112.013 192.242 112.176C192.119 112.34 192.025 112.541 191.962 112.781C191.902 113.018 191.872 113.286 191.872 113.586C191.872 114.186 191.995 114.655 192.242 114.991C192.492 115.325 192.87 115.491 193.377 115.491ZM201.081 111.051V116.116H200.551C200.424 116.116 200.344 116.055 200.311 115.931L200.241 115.386C200.021 115.63 199.774 115.826 199.501 115.976C199.228 116.123 198.914 116.196 198.561 116.196C198.284 116.196 198.039 116.151 197.826 116.061C197.616 115.968 197.439 115.838 197.296 115.671C197.153 115.505 197.044 115.303 196.971 115.066C196.901 114.83 196.866 114.568 196.866 114.281V111.051H197.756V114.281C197.756 114.665 197.843 114.961 198.016 115.171C198.193 115.381 198.461 115.486 198.821 115.486C199.084 115.486 199.329 115.425 199.556 115.301C199.786 115.175 199.998 115.001 200.191 114.781V111.051H201.081ZM204.047 116.196C203.647 116.196 203.339 116.085 203.122 115.861C202.909 115.638 202.802 115.316 202.802 114.896V111.796H202.192C202.139 111.796 202.094 111.781 202.057 111.751C202.02 111.718 202.002 111.668 202.002 111.601V111.246L202.832 111.141L203.037 109.576C203.047 109.526 203.069 109.486 203.102 109.456C203.139 109.423 203.185 109.406 203.242 109.406H203.692V111.151H205.157V111.796H203.692V114.836C203.692 115.05 203.744 115.208 203.847 115.311C203.95 115.415 204.084 115.466 204.247 115.466C204.34 115.466 204.42 115.455 204.487 115.431C204.557 115.405 204.617 115.376 204.667 115.346C204.717 115.316 204.759 115.29 204.792 115.266C204.829 115.24 204.86 115.226 204.887 115.226C204.934 115.226 204.975 115.255 205.012 115.311L205.272 115.736C205.119 115.88 204.934 115.993 204.717 116.076C204.5 116.156 204.277 116.196 204.047 116.196Z" fill="#E85559"/>
<path d="M167.648 112.398L163.711 116.336C163.359 116.688 162.75 116.441 162.75 115.938V113.688H159.562C159.251 113.688 159 113.437 159 113.125V110.875C159 110.563 159.251 110.313 159.562 110.313H162.75V108.063C162.75 107.561 163.357 107.313 163.711 107.664L167.648 111.602C167.866 111.822 167.866 112.178 167.648 112.398ZM160.5 116.219V115.281C160.5 115.127 160.373 115 160.219 115H158.25C157.835 115 157.5 114.665 157.5 114.25V109.75C157.5 109.335 157.835 109 158.25 109H160.219C160.373 109 160.5 108.873 160.5 108.719V107.781C160.5 107.627 160.373 107.5 160.219 107.5H158.25C157.008 107.5 156 108.508 156 109.75V114.25C156 115.492 157.008 116.5 158.25 116.5H160.219C160.373 116.5 160.5 116.373 160.5 116.219Z" fill="#E85559"/>
<rect x="204.186" y="26.9767" width="51.4419" height="11.7209" rx="2" fill="#E5E5E5"/>
<defs>
<filter id="filter0_d_87_409" x="0" y="0" width="312" height="73.6744" filterUnits="userSpaceOnUse" color-interpolation-filters="sRGB">
<feFlood flood-opacity="0" result="BackgroundImageFix"/>
<feColorMatrix in="SourceAlpha" type="matrix" values="0 0 0 0 0 0 0 0 0 0 0 0 0 0 0 0 0 0 127 0" result="hardAlpha"/>
<feOffset dy="4"/>
<feGaussianBlur stdDeviation="8"/>
<feComposite in2="hardAlpha" operator="out"/>
<feColorMatrix type="matrix" values="0 0 0 0 0.2 0 0 0 0 0.2 0 0 0 0 0.2 0 0 0 0.08 0"/>
<feBlend mode="normal" in2="BackgroundImageFix" result="effect1_dropShadow_87_409"/>
<feBlend mode="normal" in="SourceGraphic" in2="effect1_dropShadow_87_409" result="shape"/>
</filter>
<filter id="filter1_d_87_409" x="129" y="36" width="162" height="112" filterUnits="userSpaceOnUse" color-interpolation-filters="sRGB">
<feFlood flood-opacity="0" result="BackgroundImageFix"/>
<feColorMatrix in="SourceAlpha" type="matrix" values="0 0 0 0 0 0 0 0 0 0 0 0 0 0 0 0 0 0 127 0" result="hardAlpha"/>
<feOffset dy="4"/>
<feGaussianBlur stdDeviation="8"/>
<feComposite in2="hardAlpha" operator="out"/>
<feColorMatrix type="matrix" values="0 0 0 0 0.2 0 0 0 0 0.2 0 0 0 0 0.2 0 0 0 0.04 0"/>
<feBlend mode="normal" in2="BackgroundImageFix" result="effect1_dropShadow_87_409"/>
<feBlend mode="normal" in="SourceGraphic" in2="effect1_dropShadow_87_409" result="shape"/>
</filter>
<clipPath id="clip0_87_409">
<rect width="12" height="12" fill="white" transform="translate(156 82)"/>
</clipPath>
</defs>
</svg>
