<svg width="160" height="160" viewBox="0 0 160 160" fill="none" xmlns="http://www.w3.org/2000/svg">
<path d="M42.8789 54.2754C42.8789 54.2754 28.728 58.0304 32.7711 77.4324C36.8142 96.8343 24.3513 96.0712 13.7381 94.3832L13.0659 99.3563C13.0659 99.3563 40.8624 107.948 44.5619 83.5224C48.2613 59.0968 42.8789 54.2754 42.8789 54.2754Z" fill="#3374B9"/>
<path opacity="0.46" d="M42.8789 54.2754C42.8789 54.2754 28.728 58.0304 32.7711 77.4324C36.8142 96.8343 24.3513 96.0712 13.7381 94.3832L13.0659 99.3563C13.0659 99.3563 40.8624 107.948 44.5619 83.5224C48.2613 59.0968 42.8789 54.2754 42.8789 54.2754Z" fill="white"/>
<path opacity="0.45" d="M80 138.786C121.421 138.786 155 134.061 155 128.233C155 122.405 121.421 117.681 80 117.681C38.5786 117.681 5 122.405 5 128.233C5 134.061 38.5786 138.786 80 138.786Z" fill="#E6E6E6"/>
<path d="M43.9408 40.9065C43.9408 40.9065 43.1928 43.6053 43.3141 45.5106C43.3262 45.6966 43.3752 45.8784 43.4583 46.0453C43.5414 46.2122 43.6568 46.3609 43.798 46.4827C43.9391 46.6046 44.103 46.6971 44.2802 46.7549C44.4575 46.8127 44.6444 46.8347 44.8303 46.8196C45.427 46.8147 46.0097 46.6375 46.5082 46.3094C47.0067 45.9812 47.3998 45.5161 47.6402 44.9698L48.9138 42.7209C49.1177 42.243 49.1693 41.714 49.0617 41.2057C48.9541 40.6975 48.6925 40.2348 48.3124 39.8806C46.958 38.4756 44.3097 39.2438 43.9408 40.9065Z" fill="#F4A28C"/>
<path d="M48.3676 43.2773L50.566 52.1773L45.5728 53.0364L45.967 46.3855L48.3676 43.2773Z" fill="#F4A28C"/>
<path d="M43.5562 42.6299L42.5909 43.5446C42.5365 43.5969 42.4961 43.6619 42.4735 43.7338C42.4508 43.8057 42.4466 43.8822 42.4611 43.9562C42.4757 44.0301 42.5087 44.0993 42.557 44.1572C42.6053 44.2151 42.6673 44.2599 42.7375 44.2876L43.7483 44.6818L43.5562 42.6299Z" fill="#F4A28C"/>
<path opacity="0.31" d="M45.9567 46.5776C45.9567 46.5776 47.6599 45.7892 48.1248 45.0918C48.1248 45.0918 48.0288 48.7559 45.7646 49.8223L45.9567 46.5776Z" fill="#CE8172"/>
<path d="M46.7197 43.4441C46.7197 43.4441 46.937 42.3879 47.7305 42.6203C48.524 42.8528 48.2056 44.374 47.0937 44.3185L46.7197 43.4441Z" fill="#F4A28C"/>
<path d="M49.9543 42.0954L49.3731 43.1062C49.3731 43.1062 48.6706 45.6938 46.9472 47.028C45.2239 48.3622 42.803 48.0893 42.5908 46.2699C42.3532 44.1826 43.7532 44.683 45.6231 44.5971C47.4931 44.5112 47.21 42.0044 47.21 42.0044C46.8617 42.0052 46.5185 41.9209 46.2103 41.7589C45.902 41.5968 45.6379 41.3619 45.4412 41.0745C44.9202 40.3742 44.2226 39.8248 43.4196 39.4825C41.7569 38.78 43.7835 36.6068 43.7835 36.6068C42.6716 35.9953 43.5257 34.7015 44.5972 34.3073C45.6686 33.9131 45.9769 35.1715 46.7956 35.4141C47.6143 35.6567 47.301 34.3528 48.8576 34.6762C50.4142 34.9997 49.5803 36.1621 50.5355 37.0162C50.5355 37.0162 51.6271 36.1823 52.4712 38.0775C52.9765 39.1591 52.7036 39.6695 52.2235 39.9525C51.2931 40.4566 50.5108 41.1954 49.9543 42.0954Z" fill="#333333"/>
<path d="M136.765 21H66.5713V33.3164H136.765V21Z" fill="#A5A5A5"/>
<path d="M137.038 114.674H66.8447V126.99H137.038V114.674Z" fill="#A5A5A5"/>
<path d="M61.9879 106.001H36.9307V126.99H61.9879V106.001Z" fill="#A5A5A5"/>
<path d="M111.445 72.9735C134.38 66.4337 131.863 33.3154 131.863 33.3154H70.8724C70.8724 33.3154 69.2905 64.6497 91.9623 72.3872C92.2362 72.4856 92.4721 72.6679 92.6365 72.908C92.8009 73.1482 92.8855 73.434 92.8782 73.7249C92.8709 74.0159 92.7722 74.2971 92.596 74.5287C92.4198 74.7604 92.1751 74.9306 91.8966 75.0152C68.962 81.555 71.4738 114.673 71.4738 114.673H132.464C132.464 114.673 134.041 83.339 111.374 75.6015C111.098 75.5051 110.86 75.3233 110.693 75.0825C110.527 74.8416 110.442 74.5542 110.45 74.2616C110.457 73.9691 110.558 73.6866 110.737 73.455C110.916 73.2235 111.164 73.0548 111.445 72.9735Z" fill="#E6E6E6"/>
<path d="M70.883 106.001H45.8257V126.99H70.883V106.001Z" fill="#C9C9C9"/>
<path d="M91.1286 46.5467C89.663 46.2289 88.1368 46.3411 86.7334 46.8697C85.33 47.3983 84.1091 48.3208 83.2172 49.5264C82.3254 50.7321 81.8007 52.1696 81.706 53.6662C81.6113 55.1629 81.9507 56.655 82.6835 57.9635C84.9173 62.0066 88.9352 66.4338 95.9955 67.5255C108.661 69.4914 117.677 66.3075 122.887 52.576C123.196 51.7729 123.292 50.9036 123.165 50.0526C123.039 49.2015 122.694 48.3977 122.165 47.7191C121.636 47.0406 120.941 46.5104 120.146 46.1801C119.352 45.8498 118.485 45.7306 117.631 45.8341H117.475C112.299 46.6023 111.723 53.3139 104.243 51.2064C100.372 50.135 95.6316 47.5019 91.1286 46.5467Z" fill="#C9C9C9"/>
<path d="M75.8555 112.218C75.8513 110.268 76.3937 108.357 77.421 106.699C78.4483 105.042 79.9194 103.706 81.6675 102.843C86.4852 100.563 91.5631 98.8792 96.7888 97.8295C111.951 94.5698 114.24 105.501 120.188 106.462C126.137 107.422 127.668 112.218 127.668 112.218H75.8555Z" fill="#C9C9C9"/>
<path d="M97.6738 67.7588L99.2557 101.281H102.9L101.939 67.7588H97.6738Z" fill="#C9C9C9"/>
<path d="M104.819 66.3788V101.281H105.825L106.831 65.6611L104.819 66.3788Z" fill="#C9C9C9"/>
<path d="M45.3757 122.766C45.3757 122.766 44.6783 124.696 42.9347 124.843C41.1911 124.989 40.7312 126.698 42.303 127.142C43.8747 127.587 47.9179 125.571 47.9179 125.571L47.8067 123.044L45.3757 122.766Z" fill="#333333"/>
<path d="M45.5728 53.0369L50.5661 52.1777C50.5661 52.1777 67.1682 52.1777 70.0741 57.8887C72.9801 63.5996 72.3737 84.7401 62.7662 102.115L43.1014 102.686C43.1014 102.686 44.1931 89.9254 40.529 82.9762C36.8649 76.0271 25.4734 61.2596 45.5728 53.0369Z" fill="#3374B9"/>
<path d="M62.7666 102.116L53.1641 100.665C51.775 100.456 50.3563 100.567 49.0168 100.991C47.6772 101.414 46.4523 102.138 45.4358 103.108C44.4193 104.078 43.6381 105.267 43.1521 106.585C42.6661 107.903 42.4881 109.315 42.6318 110.713L43.8902 122.928H48.6106L48.2012 111.491C48.1774 110.851 48.2958 110.214 48.5479 109.625C48.7999 109.037 49.1794 108.511 49.6588 108.087C50.1383 107.662 50.7059 107.35 51.3208 107.171C51.9356 106.992 52.5824 106.952 53.2147 107.053C57.2932 107.716 62.3673 107.427 62.7666 102.116Z" fill="#24285B"/>
<path d="M35.5862 122.766C35.5862 122.766 34.8888 124.696 33.1452 124.843C31.4016 124.989 30.9417 126.698 32.5134 127.142C34.0852 127.587 38.1283 125.571 38.1283 125.571L38.0121 123.044L35.5862 122.766Z" fill="#333333"/>
<path opacity="0.08" d="M60.204 57.3574C58.1538 58.8198 56.5669 60.8405 55.6324 63.1791C54.6978 65.5177 54.455 68.0755 54.9328 70.5481C56.5349 79.3116 63.5699 95.3931 49.1006 92.5731L49.9648 99.2745L59.7845 98.3446L67.7343 93.038L69.675 78.316L60.204 57.3574Z" fill="black"/>
<path d="M52.9765 102.116L43.3741 100.665C41.9849 100.456 40.5663 100.567 39.2267 100.991C37.8872 101.414 36.6623 102.138 35.6458 103.108C34.6292 104.078 33.8481 105.267 33.3621 106.585C32.876 107.903 32.6981 109.315 32.8417 110.713L34.1002 122.928H38.8155L38.4112 111.491C38.3874 110.851 38.5058 110.214 38.7579 109.625C39.0099 109.037 39.3893 108.511 39.8688 108.087C40.3483 107.662 40.9159 107.35 41.5307 107.171C42.1456 106.992 42.7924 106.952 43.4246 107.053C47.5031 107.716 52.5722 107.427 52.9765 102.116Z" fill="#24285B"/>
<path d="M59.1624 60.2184C59.6223 55.1645 65.8942 53.0216 69.2449 56.8221C70.842 58.6314 72.1155 61.2797 72.3682 65.1661C73.1263 76.8963 82.5822 111.505 45.5825 100.579L46.5225 96.2275C46.5225 96.2275 57.8484 98.7544 63.7867 93.0688C68.7244 88.3484 57.9949 72.9896 59.1624 60.2184Z" fill="#3374B9"/>
<path opacity="0.46" d="M59.1624 60.2184C59.6223 55.1645 65.8942 53.0216 69.2449 56.8221C70.842 58.6314 72.1155 61.2797 72.3682 65.1661C73.1263 76.8963 82.5822 111.505 45.5825 100.579L46.5225 96.2275C46.5225 96.2275 57.8484 98.7544 63.7867 93.0688C68.7244 88.3484 57.9949 72.9896 59.1624 60.2184Z" fill="white"/>
<path d="M28.444 100.794L20.8867 80.252H43.1188L47.736 99.5727L53.2517 100.508V103.156L28.444 100.794Z" fill="#34C672"/>
<path d="M34.5795 91.7049C35.817 91.7049 36.8202 90.7018 36.8202 89.4643C36.8202 88.2268 35.817 87.2236 34.5795 87.2236C33.342 87.2236 32.3389 88.2268 32.3389 89.4643C32.3389 90.7018 33.342 91.7049 34.5795 91.7049Z" fill="white"/>
<path opacity="0.08" d="M24.3716 89.2148L43.2926 102.161L28.6402 100.769L24.3716 89.2148Z" fill="black"/>
<path d="M43.753 53.8403C43.753 53.8403 43.2476 52.2079 45.5724 51.0101C47.8972 49.8123 52.4709 48.1546 54.0478 52.4252C54.0478 52.4252 48.9332 55.7304 43.753 53.8403Z" fill="#3374B9"/>
<path opacity="0.46" d="M43.753 53.8403C43.753 53.8403 43.2476 52.2079 45.5724 51.0101C47.8972 49.8123 52.4709 48.1546 54.0478 52.4252C54.0478 52.4252 48.9332 55.7304 43.753 53.8403Z" fill="white"/>
<path d="M13.7435 94.3827C13.7435 94.3827 10.4585 91.6941 9.19499 93.4629C7.93152 95.2318 13.0713 98.2641 13.0713 98.2641L13.7435 94.3827Z" fill="#F4A28C"/>
<path d="M48.332 42.3574C48.332 42.3574 49.6915 41.5539 50.1969 42.6354C50.7022 43.7169 49.1861 44.5609 48.1753 43.9039C48.4119 43.4241 48.4675 42.875 48.332 42.3574Z" fill="#F4A28C"/>
</svg>
