<svg width="160" height="160" viewBox="0 0 160 160" fill="none" xmlns="http://www.w3.org/2000/svg">
<path d="M55.1128 74.4672H51.731V73.1164H55.1128C55.5594 73.1164 55.9876 72.9391 56.3033 72.6233C56.6191 72.3076 56.7964 71.8794 56.7964 71.4328C56.7964 70.9863 56.6191 70.5581 56.3033 70.2423C55.9876 69.9266 55.5594 69.7492 55.1128 69.7492H51.731V68.3984H55.1128C55.9176 68.3984 56.6894 68.7181 57.2585 69.2872C57.8275 69.8562 58.1472 70.6281 58.1472 71.4328C58.1472 72.2376 57.8275 73.0094 57.2585 73.5785C56.6894 74.1475 55.9176 74.4672 55.1128 74.4672Z" fill="#3374B9"/>
<path opacity="0.61" d="M55.1128 74.4672H51.731V73.1164H55.1128C55.5594 73.1164 55.9876 72.9391 56.3033 72.6233C56.6191 72.3076 56.7964 71.8794 56.7964 71.4328C56.7964 70.9863 56.6191 70.5581 56.3033 70.2423C55.9876 69.9266 55.5594 69.7492 55.1128 69.7492H51.731V68.3984H55.1128C55.9176 68.3984 56.6894 68.7181 57.2585 69.2872C57.8275 69.8562 58.1472 70.6281 58.1472 71.4328C58.1472 72.2376 57.8275 73.0094 57.2585 73.5785C56.6894 74.1475 55.9176 74.4672 55.1128 74.4672Z" fill="white"/>
<path opacity="0.45" d="M80 137.832C119.212 137.832 151 133.41 151 127.956C151 122.501 119.212 118.079 80 118.079C40.7878 118.079 9 122.501 9 127.956C9 133.41 40.7878 137.832 80 137.832Z" fill="#E6E6E6"/>
<path d="M124.141 48.9782C123.475 59.2902 118.551 85.0043 85.2661 70.542L86.4114 67.1454C86.4114 67.1454 102.861 70.0477 107.212 63.9446C110.892 58.7764 110.833 41.8278 118.958 42.6353C120.473 42.8199 121.858 43.5829 122.824 44.765C123.79 45.947 124.262 47.4565 124.141 48.9782Z" fill="#3374B9"/>
<path opacity="0.08" d="M124.141 48.9782C123.475 59.2902 118.551 85.0043 85.2661 70.542L86.4114 67.1454C86.4114 67.1454 102.861 70.0477 107.212 63.9446C110.892 58.7764 110.833 41.8278 118.958 42.6353C120.473 42.8199 121.858 43.5829 122.824 44.765C123.79 45.947 124.262 47.4565 124.141 48.9782Z" fill="black"/>
<path d="M93.503 29.7638C93.503 29.7638 94.1784 33.4785 95.4607 35.7249C95.5837 35.9426 95.7486 36.1337 95.9458 36.2873C96.143 36.441 96.3687 36.554 96.6099 36.62C96.851 36.686 97.1028 36.7035 97.3508 36.6717C97.5988 36.6399 97.838 36.5593 98.0546 36.4346C99.1803 35.7787 100.502 34.5699 100.384 32.5192L100.605 29.0394C100.576 28.3386 100.331 27.664 99.9017 27.1089C99.4729 26.5539 98.8822 26.1459 98.2113 25.9414C95.7397 25.0409 92.9794 27.5222 93.503 29.7638Z" fill="#F4A28C"/>
<path d="M100.634 30.1846L107.96 37.5797L103.585 42.3319L98.9893 33.493L100.634 30.1846Z" fill="#F4A28C"/>
<path d="M98.226 31.8285C98.226 31.8285 97.8687 30.419 98.9503 30.2379C100.032 30.0568 100.561 32.0928 99.1803 32.685L98.226 31.8285Z" fill="#F4A28C"/>
<path d="M94.0509 32.083L93.4293 33.7617C93.3938 33.8569 93.3828 33.9595 93.3973 34.0601C93.4118 34.1607 93.4512 34.256 93.5121 34.3374C93.573 34.4187 93.6534 34.4835 93.7458 34.5257C93.8382 34.5679 93.9398 34.5863 94.0411 34.579L95.5094 34.4616L94.0509 32.083Z" fill="#F4A28C"/>
<path d="M112.62 123.942C112.62 123.942 111.641 125.729 109.913 125.611C108.186 125.494 107.466 127.08 108.935 127.77C110.403 128.46 114.68 127.075 114.68 127.075L114.95 124.588L112.62 123.942Z" fill="#4B4B4B"/>
<path d="M133.244 121.667C133.244 121.667 134.345 123.385 133.4 124.843C132.456 126.302 133.528 127.697 134.825 126.733C136.122 125.768 136.993 121.349 136.993 121.349L134.942 119.915L133.244 121.667Z" fill="#4B4B4B"/>
<path opacity="0.31" d="M99.7285 34.9128C100.071 34.157 100.288 33.3502 100.37 32.5244C100.37 32.5244 103.218 35.1575 101.309 37.957L99.7285 34.9128Z" fill="#CE8172"/>
<path d="M111.763 85.5529L111.553 124.75H116.623L123.113 85.0488L111.763 85.5529Z" fill="#24285B"/>
<path d="M104.397 39.6005C106.947 37.5597 110.094 36.4067 113.358 36.3164C118.644 36.2626 133.386 37.168 132.377 55.1982C131.628 68.5594 131.247 83.3398 131.247 83.3398L111.836 86.5749C111.836 86.5749 88.6526 53.7691 104.397 39.6005Z" fill="#3374B9"/>
<path opacity="0.08" d="M117.225 44.1328C117.225 44.1328 113.158 49.027 115.674 57.9736C118.189 66.9202 121.723 77.7118 109.605 83.1346L111.837 86.5605L131.247 83.3255L131.502 75.0641L134.619 59.7649L117.225 44.1328Z" fill="black"/>
<path opacity="0.79" d="M69.0664 75.7441H36.29V127.955H69.0664V75.7441Z" fill="#A5A5A5"/>
<path d="M78.9477 75.7441H50.5957V127.955H78.9477V75.7441Z" fill="#E6E6E6"/>
<path d="M70.8187 78.7988L70.2999 81.7892H56.3809V94.4064H79.5304V84.1286V81.7892V78.7988H70.8187Z" fill="#EB7500"/>
<path opacity="0.08" d="M70.8187 78.7988L70.2999 81.7892H56.3809V94.4064H79.5304V84.1286V81.7892V78.7988H70.8187Z" fill="black"/>
<path d="M74.2001 78.7988L73.6813 81.7892H59.7622V94.4064H82.9117V84.1286V81.7892V78.7988H74.2001Z" fill="#EB7500"/>
<path d="M111.529 61.4338L112.478 64.9625L99.6846 70.4489L105.7 84.4707L126.979 75.3431L122.08 63.9249L120.965 61.3212L119.535 57.998L111.529 61.4338Z" fill="#EB7500"/>
<path opacity="0.08" d="M111.529 61.4338L112.478 64.9625L99.6846 70.4489L105.7 84.4707L126.979 75.3431L122.08 63.9249L120.965 61.3212L119.535 57.998L111.529 61.4338Z" fill="black"/>
<path d="M114.636 60.0978L115.585 63.6314L102.792 69.1129L108.807 83.1348L130.082 74.012L125.188 62.589L124.072 59.9901L122.643 56.667L114.636 60.0978Z" fill="#EB7500"/>
<path d="M76.995 78.7988L76.4762 81.7892H62.562V94.4064H85.7115V84.1286V81.7892V78.7988H76.995Z" fill="#EB7500"/>
<path opacity="0.08" d="M76.995 78.7988L76.4762 81.7892H62.562V94.4064H85.7115V84.1286V81.7892V78.7988H76.995Z" fill="black"/>
<path d="M83.9284 74.8571L62.1777 78.0225L64.3309 92.8184L86.0816 89.653L83.9284 74.8571Z" fill="#24285B"/>
<path opacity="0.12" d="M83.9284 74.8571L62.1777 78.0225L64.3309 92.8184L86.0816 89.653L83.9284 74.8571Z" fill="white"/>
<path d="M85.07 72.738L63.3193 75.9033L65.4725 90.6992L87.2232 87.5339L85.07 72.738Z" fill="#24285B"/>
<path d="M80.3768 78.7988L79.858 81.7892H65.9438V94.4064H89.0934V84.1286V81.7892V78.7988H80.3768Z" fill="#EB7500"/>
<path d="M91.5653 85.5625H55.084V99.8046H91.5653V85.5625Z" fill="#A5A5A5"/>
<path opacity="0.08" d="M125.306 62.8682C123.157 65.6363 120.87 68.294 118.454 70.831C116.6 72.7047 114.516 74.336 112.253 75.686C110.936 76.4936 109.551 77.9325 110.481 80.1838H117.729L127.2 67.3366L125.306 62.8682Z" fill="black"/>
<path d="M91.56 85.5625H66.5898V99.8046H91.56V85.5625Z" fill="#F2F2F2"/>
<path d="M83.9695 106.388H55.084V120.63H83.9695V106.388Z" fill="#F2F2F2"/>
<path d="M53.9186 66.9297H45.6523V75.935H53.9186V66.9297Z" fill="#3374B9"/>
<path d="M79.5154 94.1118C80.6209 94.1118 81.5171 93.2156 81.5171 92.1101C81.5171 91.0046 80.6209 90.1084 79.5154 90.1084C78.4099 90.1084 77.5137 91.0046 77.5137 92.1101C77.5137 93.2156 78.4099 94.1118 79.5154 94.1118Z" fill="#A5A5A5"/>
<path d="M69.9568 114.942C71.0623 114.942 71.9585 114.046 71.9585 112.94C71.9585 111.835 71.0623 110.938 69.9568 110.938C68.8513 110.938 67.9551 111.835 67.9551 112.94C67.9551 114.046 68.8513 114.942 69.9568 114.942Z" fill="#A5A5A5"/>
<path d="M86.201 67.7623C84.8268 67.7081 83.4549 67.9157 82.1584 68.3741C79.9902 69.1376 77.9836 71.0708 79.5302 73.3319C80.7244 75.0743 82.4178 74.1737 83.0491 72.7789C83.6805 71.384 84.0622 70.0332 85.2662 70.5422L86.201 67.7623Z" fill="#F4A28C"/>
<path d="M124.008 38.656C127.13 39.8226 129.99 41.5938 132.426 43.8681C134.861 46.1424 136.824 48.8751 138.201 51.9094C139.409 54.4665 139.99 57.2743 139.897 60.1007C139.805 62.927 139.04 65.6906 137.668 68.163C134.795 73.1845 128.907 78.8177 116.833 81.255L115.429 77.7263L126.959 67.6002C127.574 67.0623 128.072 66.4037 128.421 65.6654C128.771 64.9271 128.965 64.1249 128.992 63.3084C129.018 62.492 128.877 61.6788 128.576 60.9193C128.275 60.1598 127.822 59.4703 127.243 58.8934C123.817 55.4675 119.462 50.4265 117.499 45.1065C117.167 44.2003 117.103 43.218 117.313 42.2761C117.523 41.3343 117.999 40.4726 118.685 39.7934C119.37 39.1141 120.236 38.6459 121.18 38.4443C122.123 38.2426 123.105 38.3161 124.008 38.656Z" fill="#3374B9"/>
<path opacity="0.2" d="M124.008 38.656C127.13 39.8226 129.99 41.5938 132.426 43.8681C134.861 46.1424 136.824 48.8751 138.201 51.9094C139.409 54.4665 139.99 57.2743 139.897 60.1007C139.805 62.927 139.04 65.6906 137.668 68.163C134.795 73.1845 128.907 78.8177 116.833 81.255L115.429 77.7263L126.959 67.6002C127.574 67.0623 128.072 66.4037 128.421 65.6654C128.771 64.9271 128.965 64.1249 128.992 63.3084C129.018 62.492 128.877 61.6788 128.576 60.9193C128.275 60.1598 127.822 59.4703 127.243 58.8934C123.817 55.4675 119.462 50.4265 117.499 45.1065C117.167 44.2003 117.103 43.218 117.313 42.2761C117.523 41.3343 117.999 40.4726 118.685 39.7934C119.37 39.1141 120.236 38.6459 121.18 38.4443C122.123 38.2426 123.105 38.3161 124.008 38.656Z" fill="white"/>
<path d="M115.674 78.3823C115.674 78.3823 110.291 77.795 109.801 79.8506C109.312 81.9062 108.979 83.1493 108.979 83.1493C111.703 83.0868 114.356 82.2702 116.643 80.7903L115.674 78.3823Z" fill="#F4A28C"/>
<path d="M131.247 83.3398C131.461 85.8434 131.49 88.3593 131.335 90.8671C131.203 93.9553 130.4 99.0991 129.793 102.657C129.361 105.231 129.827 107.875 131.115 110.145L136.009 118.852L132.456 122.395L126.627 114.819C123.651 110.932 121.614 106.41 120.675 101.605L118.82 92.1396L114.146 86.198L131.247 83.3398Z" fill="#24285B"/>
<path d="M91.3498 25.3443C91.3498 25.3443 89.8375 28.8387 93.4494 29.01C97.0613 29.1813 97.0172 28.4472 97.0172 28.4472C97.0172 28.4472 97.2424 33.1162 100.37 32.5338L101.667 31.2222C101.667 31.2222 103.135 25.2659 100.59 23.9592C100.59 23.9592 95.5098 18.7371 91.3498 25.3443Z" fill="#333333"/>
<path d="M98.1675 32.3914C98.1675 32.3914 98.3584 29.3472 100.071 30.1058C101.784 30.8644 100.654 34.1826 98.1675 32.3914Z" fill="#F4A28C"/>
<path opacity="0.45" d="M51.7311 66.9297C51.7311 66.9297 57.5503 63.1955 51.7311 57.9734C45.9119 52.7513 43.6312 64.8252 39.3879 56.6666C35.1447 48.508 45.9119 39.7034 34.0043 39.0476C22.0968 38.3917 29.5457 30.8694 19.2924 29.9835C9.03906 29.0977 6.26895 47.26 14.0997 48.4591C21.9304 49.6582 29.438 50.1427 27.314 57.6455C25.1899 65.1483 33.187 67.1891 36.9408 65.3538C40.6947 63.5185 45.6525 66.9297 45.6525 66.9297H51.7311Z" fill="#E6E6E6"/>
<path opacity="0.58" d="M30.784 120.619C30.784 120.619 24.9844 119.063 23.7021 113.679C23.7021 113.679 32.6683 111.829 32.962 121.089L30.784 120.619Z" fill="#34C672"/>
<path opacity="0.73" d="M31.4985 120.022C31.4985 120.022 27.4266 113.659 30.9602 107.649C30.9602 107.649 37.812 111.951 34.807 120.022H31.4985Z" fill="#34C672"/>
<path d="M32.541 120.022C32.541 120.022 34.6504 113.258 41.1058 111.951C41.1058 111.951 42.3392 116.356 36.9556 120.022H32.541Z" fill="#34C672"/>
<path d="M28.3418 119.89L29.5507 127.916H36.9409L37.998 119.89H28.3418Z" fill="#24285B"/>
</svg>
