<svg width="52" height="52" viewBox="0 0 52 52" fill="none" xmlns="http://www.w3.org/2000/svg">
<path d="M41.1667 6.5H10.8333C8.45 6.5 6.5 8.45 6.5 10.8333V41.1667C6.5 43.55 8.45 45.5 10.8333 45.5H41.1667C43.55 45.5 45.5 43.55 45.5 41.1667V10.8333C45.5 8.45 43.55 6.5 41.1667 6.5ZM41.1667 10.8333V30.3333H33.4533C32.6733 30.3333 31.98 30.745 31.59 31.4167C30.4633 33.3667 28.405 34.6667 26 34.6667C23.595 34.6667 21.5367 33.3667 20.41 31.4167C20.02 30.745 19.305 30.3333 18.5467 30.3333H10.8333V10.8333H41.1667Z" fill="#C2C2C2"/>
</svg>
