<svg width="229" height="229" viewBox="0 0 229 229" fill="none" xmlns="http://www.w3.org/2000/svg">
<path d="M221.5 114.75C221.5 143.062 210.253 170.214 190.234 190.234C170.214 210.253 143.062 221.5 114.75 221.5C86.4382 221.5 59.2856 210.253 39.2661 190.234C19.2466 170.214 8.00002 143.062 8.00002 114.75C8.00001 86.4381 19.2465 59.2855 39.266 39.266C59.2855 19.2465 86.4381 8 114.75 8C143.062 8 170.214 19.2465 190.234 39.266C210.253 59.2855 221.5 86.4381 221.5 114.75Z" fill="#34C672" fill-opacity="0.16"/>
<path d="M195.202 33.4524C150.6 -11.1508 78.0541 -11.1508 33.4518 33.4524C-11.1505 78.0541 -11.1506 150.599 33.4518 195.203C78.0541 239.804 150.6 239.804 195.202 195.203C239.805 150.599 239.805 78.0541 195.202 33.4524ZM184.419 44.2346C223.194 83.0093 223.194 145.644 184.419 184.418C145.645 223.193 83.0097 223.193 44.2352 184.418C5.4605 145.644 5.46061 83.0093 44.2352 44.2346C83.0097 5.45998 145.644 5.45998 184.419 44.2346Z" fill="#34C672"/>
<path fill-rule="evenodd" clip-rule="evenodd" d="M160.42 84.0006C158.709 83.9805 157.041 84.5367 155.684 85.5792L99.956 127.368L74.1322 101.544C73.4299 100.811 72.5884 100.226 71.6568 99.8221C70.7253 99.4186 69.7226 99.2056 68.7075 99.1947C67.6924 99.1839 66.6853 99.3754 65.7454 99.7588C64.8054 100.142 63.9515 100.709 63.2337 101.427C62.5158 102.145 61.9485 102.998 61.565 103.938C61.1815 104.878 60.9896 105.887 61.0004 106.902C61.0113 107.917 61.2247 108.919 61.6281 109.85C62.0316 110.782 62.617 111.624 63.35 112.326L93.85 142.826C95.1475 144.128 96.8717 144.917 98.7051 145.049C100.538 145.181 102.358 144.646 103.828 143.543L164.828 97.793C166.124 96.8496 167.09 95.5208 167.588 93.9972C168.086 92.4737 168.092 90.8329 167.604 89.3061C167.116 87.7792 166.159 86.4438 164.869 85.4917C163.58 84.5396 162.023 84.0192 160.42 84.0024V84.0006Z" fill="#34C672"/>
</svg>
