<svg width="123" height="30" viewBox="0 0 123 30" fill="none" xmlns="http://www.w3.org/2000/svg">
<rect x="7.49988" y="5.48721" width="10.6064" height="10.6064" transform="rotate(45 7.49988 5.48721)" fill="white"/>
<rect x="23.5527" y="5.48721" width="10.6064" height="10.6064" transform="rotate(45 23.5527 5.48721)" fill="white"/>
<rect x="15.5262" y="13.5137" width="10.6064" height="10.6064" transform="rotate(45 15.5262 13.5137)" fill="white"/>
<path fill-rule="evenodd" clip-rule="evenodd" d="M8.07332 4.91388L8.02657 4.96062L15.5264 12.4605L23.0263 4.96062L22.9796 4.91388H8.07332Z" fill="white"/>
<path fill-rule="evenodd" clip-rule="evenodd" d="M8.07329 20.9669L8.02657 21.0136L15.5264 28.5134L23.0263 21.0136L22.9796 20.9669H8.07329Z" fill="white"/>
<path fill-rule="evenodd" clip-rule="evenodd" d="M11.0517 4.39318C11.0951 1.9595 13.0815 0 15.5255 0C17.9696 0 19.9559 1.9595 19.9993 4.39318H19.3489C19.3056 2.31897 17.6107 0.650823 15.5261 0.650823C13.4415 0.650823 11.7465 2.31897 11.7032 4.39318H11.0517Z" fill="white"/>
<path d="M34.305 23.596C34.627 23.596 34.9 23.5563 35.124 23.477C35.3527 23.393 35.5393 23.2787 35.684 23.134C35.8287 22.9893 35.9337 22.8213 35.999 22.63C36.0643 22.434 36.097 22.224 36.097 22C36.097 21.552 35.95 21.202 35.656 20.95C35.3667 20.698 34.9163 20.572 34.305 20.572H33.353V23.596H34.305ZM39.331 29H37.189C36.7923 29 36.5077 28.8507 36.335 28.552L34.641 25.591C34.5617 25.465 34.473 25.374 34.375 25.318C34.277 25.2573 34.137 25.227 33.955 25.227H33.353V29H30.987V18.801H34.305C35.0423 18.801 35.67 18.878 36.188 19.032C36.7107 19.1813 37.1353 19.3913 37.462 19.662C37.7933 19.9327 38.0337 20.2523 38.183 20.621C38.3323 20.9897 38.407 21.391 38.407 21.825C38.407 22.1563 38.3627 22.469 38.274 22.763C38.1853 23.057 38.0547 23.33 37.882 23.582C37.7093 23.8293 37.4947 24.051 37.238 24.247C36.986 24.443 36.6943 24.604 36.363 24.73C36.517 24.8093 36.6617 24.9097 36.797 25.031C36.9323 25.1477 37.0537 25.2877 37.161 25.451L39.331 29ZM44.3348 27.131C44.6521 27.131 44.9345 27.0797 45.1818 26.977C45.4338 26.8697 45.6461 26.718 45.8188 26.522C45.9915 26.326 46.1221 26.088 46.2108 25.808C46.3041 25.5233 46.3508 25.2013 46.3508 24.842V18.801H48.7168V24.842C48.7168 25.4673 48.6141 26.0413 48.4088 26.564C48.2081 27.0867 47.9188 27.537 47.5408 27.915C47.1628 28.293 46.7031 28.587 46.1618 28.797C45.6205 29.007 45.0115 29.112 44.3348 29.112C43.6535 29.112 43.0421 29.007 42.5008 28.797C41.9595 28.587 41.4998 28.293 41.1218 27.915C40.7438 27.537 40.4545 27.0867 40.2538 26.564C40.0531 26.0413 39.9528 25.4673 39.9528 24.842V18.801H42.3188V24.835C42.3188 25.1943 42.3631 25.5163 42.4518 25.801C42.5451 26.081 42.6781 26.3213 42.8508 26.522C43.0235 26.718 43.2335 26.8697 43.4808 26.977C43.7328 27.0797 44.0175 27.131 44.3348 27.131ZM59.4691 18.801V29H58.2371C58.0551 29 57.9011 28.972 57.7751 28.916C57.6538 28.8553 57.5325 28.7527 57.4111 28.608L52.6021 22.525C52.6208 22.707 52.6325 22.8843 52.6371 23.057C52.6465 23.225 52.6511 23.3837 52.6511 23.533V29H50.5651V18.801H51.8111C51.9138 18.801 52.0001 18.8057 52.0701 18.815C52.1401 18.8243 52.2031 18.843 52.2591 18.871C52.3151 18.8943 52.3688 18.9293 52.4201 18.976C52.4715 19.0227 52.5298 19.0857 52.5951 19.165L57.4461 25.29C57.4228 25.094 57.4065 24.905 57.3971 24.723C57.3878 24.5363 57.3831 24.3613 57.3831 24.198V18.801H59.4691ZM76.1542 18.801V29H74.0682V23.134C74.0682 22.9987 74.0705 22.8517 74.0752 22.693C74.0845 22.5343 74.0985 22.3733 74.1172 22.21L71.4082 27.453C71.3242 27.6163 71.2098 27.74 71.0652 27.824C70.9252 27.908 70.7642 27.95 70.5822 27.95H70.2602C70.0782 27.95 69.9148 27.908 69.7702 27.824C69.6302 27.74 69.5182 27.6163 69.4342 27.453L66.7252 22.196C66.7392 22.364 66.7508 22.5297 66.7602 22.693C66.7695 22.8517 66.7742 22.9987 66.7742 23.134V29H64.6882V18.801H66.4942C66.5968 18.801 66.6855 18.8033 66.7602 18.808C66.8395 18.8127 66.9095 18.8267 66.9702 18.85C67.0308 18.8733 67.0845 18.9107 67.1312 18.962C67.1825 19.0087 67.2315 19.0763 67.2782 19.165L69.9032 24.338C69.9965 24.5153 70.0852 24.6997 70.1692 24.891C70.2578 25.0823 70.3418 25.2783 70.4212 25.479C70.5005 25.2737 70.5822 25.073 70.6662 24.877C70.7548 24.681 70.8482 24.4943 70.9462 24.317L73.5642 19.165C73.6108 19.0763 73.6575 19.0087 73.7042 18.962C73.7555 18.9107 73.8115 18.8733 73.8722 18.85C73.9328 18.8267 74.0005 18.8127 74.0752 18.808C74.1545 18.8033 74.2455 18.801 74.3482 18.801H76.1542ZM83.5176 25.101L82.5726 22.308C82.5026 22.1307 82.428 21.923 82.3486 21.685C82.2693 21.4423 82.19 21.181 82.1106 20.901C82.0406 21.1857 81.966 21.4493 81.8866 21.692C81.8073 21.9347 81.7326 22.1447 81.6626 22.322L80.7246 25.101H83.5176ZM87.2766 29H85.4426C85.2373 29 85.0716 28.9533 84.9456 28.86C84.8196 28.762 84.724 28.6383 84.6586 28.489L84.0566 26.711H80.1786L79.5766 28.489C79.5253 28.6197 79.432 28.7387 79.2966 28.846C79.166 28.9487 79.0026 29 78.8066 29H76.9586L80.9066 18.801H83.3286L87.2766 29ZM91.3988 23.596C91.7208 23.596 91.9938 23.5563 92.2178 23.477C92.4464 23.393 92.6331 23.2787 92.7778 23.134C92.9224 22.9893 93.0274 22.8213 93.0928 22.63C93.1581 22.434 93.1908 22.224 93.1908 22C93.1908 21.552 93.0438 21.202 92.7498 20.95C92.4604 20.698 92.0101 20.572 91.3988 20.572H90.4468V23.596H91.3988ZM96.4248 29H94.2828C93.8861 29 93.6014 28.8507 93.4288 28.552L91.7348 25.591C91.6554 25.465 91.5668 25.374 91.4688 25.318C91.3708 25.2573 91.2308 25.227 91.0487 25.227H90.4468V29H88.0808V18.801H91.3988C92.1361 18.801 92.7638 18.878 93.2818 19.032C93.8044 19.1813 94.2291 19.3913 94.5558 19.662C94.8871 19.9327 95.1274 20.2523 95.2768 20.621C95.4261 20.9897 95.5008 21.391 95.5008 21.825C95.5008 22.1563 95.4564 22.469 95.3678 22.763C95.2791 23.057 95.1484 23.33 94.9758 23.582C94.8031 23.8293 94.5884 24.051 94.3318 24.247C94.0798 24.443 93.7881 24.604 93.4568 24.73C93.6108 24.8093 93.7554 24.9097 93.8908 25.031C94.0261 25.1477 94.1474 25.2877 94.2548 25.451L96.4248 29ZM99.6479 22.931H100.026C100.376 22.931 100.628 22.8213 100.782 22.602L103.078 19.27C103.213 19.0927 103.358 18.9713 103.512 18.906C103.671 18.836 103.867 18.801 104.1 18.801H106.158L103.134 22.924C102.919 23.2087 102.688 23.414 102.441 23.54C102.618 23.6053 102.779 23.6963 102.924 23.813C103.069 23.9297 103.204 24.0813 103.33 24.268L106.41 29H104.296C104.161 29 104.044 28.9907 103.946 28.972C103.853 28.9533 103.771 28.9253 103.701 28.888C103.631 28.8507 103.57 28.8063 103.519 28.755C103.468 28.699 103.419 28.636 103.372 28.566L101.062 25.017C100.978 24.8863 100.871 24.7953 100.74 24.744C100.614 24.688 100.441 24.66 100.222 24.66H99.6479V29H97.2819V18.801H99.6479V22.931ZM109.547 20.621V23.001H112.753V24.751H109.547V27.18H113.733V29H107.167V18.801H113.733V20.621H109.547ZM122.521 20.677H119.651V29H117.285V20.677H114.415V18.801H122.521V20.677Z" fill="white"/>
</svg>
