<svg width="59" height="55" viewBox="0 0 59 55" fill="none" xmlns="http://www.w3.org/2000/svg">
<rect x="14.2498" y="10.4257" width="20.1522" height="20.1522" transform="rotate(45 14.2498 10.4257)" fill="#3373BA"/>
<rect x="44.7502" y="10.4257" width="20.1522" height="20.1522" transform="rotate(45 44.7502 10.4257)" fill="#3373BA"/>
<rect x="29.4998" y="25.676" width="20.1522" height="20.1522" transform="rotate(45 29.4998 25.676)" fill="#4EA8DC"/>
<path fill-rule="evenodd" clip-rule="evenodd" d="M15.3393 9.33636L15.2505 9.42516L29.5002 23.6749L43.75 9.42516L43.6612 9.33636H15.3393Z" fill="#4EA8DC"/>
<path fill-rule="evenodd" clip-rule="evenodd" d="M15.3392 39.837L15.2505 39.9258L29.5002 54.1755L43.75 39.9258L43.6613 39.837H15.3392Z" fill="#3373BA"/>
<path fill-rule="evenodd" clip-rule="evenodd" d="M20.9995 8.34707C21.082 3.72306 24.8561 0 29.4998 0C34.1435 0 37.9176 3.72306 38 8.34707H36.763C36.6807 4.40606 33.4603 1.23658 29.4995 1.23658C25.5388 1.23658 22.3184 4.40606 22.2361 8.34707H20.9995Z" fill="#4EA8DC"/>
</svg>
