<svg width="216" height="57" viewBox="0 0 216 57" fill="none" xmlns="http://www.w3.org/2000/svg">
<rect x="14.2498" y="10.4257" width="20.1522" height="20.1522" transform="rotate(45 14.2498 10.4257)" fill="#3373BA"/>
<rect x="44.7502" y="10.4257" width="20.1522" height="20.1522" transform="rotate(45 44.7502 10.4257)" fill="#3373BA"/>
<rect x="29.4998" y="25.676" width="20.1522" height="20.1522" transform="rotate(45 29.4998 25.676)" fill="#4EA8DC"/>
<path fill-rule="evenodd" clip-rule="evenodd" d="M15.3393 9.33636L15.2505 9.42516L29.5002 23.6749L43.75 9.42516L43.6612 9.33636H15.3393Z" fill="#4EA8DC"/>
<path fill-rule="evenodd" clip-rule="evenodd" d="M15.3392 39.837L15.2505 39.9258L29.5002 54.1755L43.75 39.9258L43.6613 39.837H15.3392Z" fill="#3373BA"/>
<path fill-rule="evenodd" clip-rule="evenodd" d="M20.9995 8.34707C21.082 3.72306 24.8561 0 29.4998 0C34.1435 0 37.9176 3.72306 38 8.34707H36.763C36.6807 4.40606 33.4603 1.23658 29.4995 1.23658C25.5388 1.23658 22.3184 4.40606 22.2361 8.34707H20.9995Z" fill="#4EA8DC"/>
<path d="M64.38 42.736C64.932 42.736 65.4 42.668 65.784 42.532C66.176 42.388 66.496 42.192 66.744 41.944C66.992 41.696 67.172 41.408 67.284 41.08C67.396 40.744 67.452 40.384 67.452 40C67.452 39.232 67.2 38.632 66.696 38.2C66.2 37.768 65.428 37.552 64.38 37.552H62.748V42.736H64.38ZM72.996 52H69.324C68.644 52 68.156 51.744 67.86 51.232L64.956 46.156C64.82 45.94 64.668 45.784 64.5 45.688C64.332 45.584 64.092 45.532 63.78 45.532H62.748V52H58.692V34.516H64.38C65.644 34.516 66.72 34.648 67.608 34.912C68.504 35.168 69.232 35.528 69.792 35.992C70.36 36.456 70.772 37.004 71.028 37.636C71.284 38.268 71.412 38.956 71.412 39.7C71.412 40.268 71.336 40.804 71.184 41.308C71.032 41.812 70.808 42.28 70.512 42.712C70.216 43.136 69.848 43.516 69.408 43.852C68.976 44.188 68.476 44.464 67.908 44.68C68.172 44.816 68.42 44.988 68.652 45.196C68.884 45.396 69.092 45.636 69.276 45.916L72.996 52ZM81.5739 48.796C82.1179 48.796 82.6019 48.708 83.0259 48.532C83.4579 48.348 83.8219 48.088 84.1179 47.752C84.4139 47.416 84.6379 47.008 84.7899 46.528C84.9499 46.04 85.0299 45.488 85.0299 44.872V34.516H89.0859V44.872C89.0859 45.944 88.9099 46.928 88.5579 47.824C88.2139 48.72 87.7179 49.492 87.0699 50.14C86.4219 50.788 85.6339 51.292 84.7059 51.652C83.7779 52.012 82.7339 52.192 81.5739 52.192C80.4059 52.192 79.3579 52.012 78.4299 51.652C77.5019 51.292 76.7139 50.788 76.0659 50.14C75.4179 49.492 74.9219 48.72 74.5779 47.824C74.2339 46.928 74.0619 45.944 74.0619 44.872V34.516H78.1179V44.86C78.1179 45.476 78.1939 46.028 78.3459 46.516C78.5059 46.996 78.7339 47.408 79.0299 47.752C79.3259 48.088 79.6859 48.348 80.1099 48.532C80.5419 48.708 81.0299 48.796 81.5739 48.796ZM107.519 34.516V52H105.407C105.095 52 104.831 51.952 104.615 51.856C104.407 51.752 104.199 51.576 103.991 51.328L95.7465 40.9C95.7785 41.212 95.7985 41.516 95.8065 41.812C95.8225 42.1 95.8305 42.372 95.8305 42.628V52H92.2545V34.516H94.3905C94.5665 34.516 94.7145 34.524 94.8345 34.54C94.9545 34.556 95.0625 34.588 95.1585 34.636C95.2545 34.676 95.3465 34.736 95.4345 34.816C95.5225 34.896 95.6225 35.004 95.7345 35.14L104.051 45.64C104.011 45.304 103.983 44.98 103.967 44.668C103.951 44.348 103.943 44.048 103.943 43.768V34.516H107.519ZM136.121 34.516V52H132.545V41.944C132.545 41.712 132.549 41.46 132.557 41.188C132.573 40.916 132.597 40.64 132.629 40.36L127.985 49.348C127.841 49.628 127.645 49.84 127.397 49.984C127.157 50.128 126.881 50.2 126.569 50.2H126.017C125.705 50.2 125.425 50.128 125.177 49.984C124.937 49.84 124.745 49.628 124.601 49.348L119.957 40.336C119.981 40.624 120.001 40.908 120.017 41.188C120.033 41.46 120.041 41.712 120.041 41.944V52H116.465V34.516H119.561C119.737 34.516 119.889 34.52 120.017 34.528C120.153 34.536 120.273 34.56 120.377 34.6C120.481 34.64 120.573 34.704 120.653 34.792C120.741 34.872 120.825 34.988 120.905 35.14L125.405 44.008C125.565 44.312 125.717 44.628 125.861 44.956C126.013 45.284 126.157 45.62 126.293 45.964C126.429 45.612 126.569 45.268 126.713 44.932C126.865 44.596 127.025 44.276 127.193 43.972L131.681 35.14C131.761 34.988 131.841 34.872 131.921 34.792C132.009 34.704 132.105 34.64 132.209 34.6C132.313 34.56 132.429 34.536 132.557 34.528C132.693 34.52 132.849 34.516 133.025 34.516H136.121ZM148.745 45.316L147.125 40.528C147.005 40.224 146.877 39.868 146.741 39.46C146.605 39.044 146.469 38.596 146.333 38.116C146.213 38.604 146.085 39.056 145.949 39.472C145.813 39.888 145.685 40.248 145.565 40.552L143.957 45.316H148.745ZM155.189 52H152.045C151.693 52 151.409 51.92 151.193 51.76C150.977 51.592 150.813 51.38 150.701 51.124L149.669 48.076H143.021L141.989 51.124C141.901 51.348 141.741 51.552 141.509 51.736C141.285 51.912 141.005 52 140.669 52H137.5L144.269 34.516H148.421L155.189 52ZM162.255 42.736C162.807 42.736 163.275 42.668 163.659 42.532C164.051 42.388 164.371 42.192 164.619 41.944C164.867 41.696 165.047 41.408 165.159 41.08C165.271 40.744 165.327 40.384 165.327 40C165.327 39.232 165.075 38.632 164.571 38.2C164.075 37.768 163.303 37.552 162.255 37.552H160.623V42.736H162.255ZM170.871 52H167.199C166.519 52 166.031 51.744 165.735 51.232L162.831 46.156C162.695 45.94 162.543 45.784 162.375 45.688C162.207 45.584 161.967 45.532 161.655 45.532H160.623V52H156.567V34.516H162.255C163.519 34.516 164.595 34.648 165.483 34.912C166.379 35.168 167.107 35.528 167.667 35.992C168.235 36.456 168.647 37.004 168.903 37.636C169.159 38.268 169.287 38.956 169.287 39.7C169.287 40.268 169.211 40.804 169.059 41.308C168.907 41.812 168.683 42.28 168.387 42.712C168.091 43.136 167.723 43.516 167.283 43.852C166.851 44.188 166.351 44.464 165.783 44.68C166.047 44.816 166.295 44.988 166.527 45.196C166.759 45.396 166.967 45.636 167.151 45.916L170.871 52ZM176.396 41.596H177.044C177.644 41.596 178.076 41.408 178.34 41.032L182.276 35.32C182.508 35.016 182.756 34.808 183.02 34.696C183.292 34.576 183.628 34.516 184.028 34.516H187.556L182.372 41.584C182.004 42.072 181.608 42.424 181.184 42.64C181.488 42.752 181.764 42.908 182.012 43.108C182.26 43.308 182.492 43.568 182.708 43.888L187.988 52H184.364C184.132 52 183.932 51.984 183.764 51.952C183.604 51.92 183.464 51.872 183.344 51.808C183.224 51.744 183.12 51.668 183.032 51.58C182.944 51.484 182.86 51.376 182.78 51.256L178.82 45.172C178.676 44.948 178.492 44.792 178.268 44.704C178.052 44.608 177.756 44.56 177.38 44.56H176.396V52H172.34V34.516H176.396V41.596ZM193.366 37.636V41.716H198.862V44.716H193.366V48.88H200.542V52H189.286V34.516H200.542V37.636H193.366ZM215.608 37.732H210.688V52H206.632V37.732H201.712V34.516H215.608V37.732Z" fill="#3373BA"/>
</svg>
