<svg width="32" height="29" viewBox="0 0 32 29" fill="none" xmlns="http://www.w3.org/2000/svg">
<rect x="7.49988" y="5.48721" width="10.6064" height="10.6064" transform="rotate(45 7.49988 5.48721)" fill="white"/>
<rect x="23.5527" y="5.48721" width="10.6064" height="10.6064" transform="rotate(45 23.5527 5.48721)" fill="white"/>
<rect x="15.5262" y="13.5137" width="10.6064" height="10.6064" transform="rotate(45 15.5262 13.5137)" fill="white"/>
<path fill-rule="evenodd" clip-rule="evenodd" d="M8.07329 4.91388L8.02655 4.96062L15.5264 12.4605L23.0263 4.96062L22.9795 4.91388H8.07329Z" fill="white"/>
<path fill-rule="evenodd" clip-rule="evenodd" d="M8.07327 20.9669L8.02655 21.0136L15.5264 28.5134L23.0263 21.0136L22.9796 20.9669H8.07327Z" fill="white"/>
<path fill-rule="evenodd" clip-rule="evenodd" d="M11.0517 4.39318C11.0951 1.9595 13.0815 0 15.5255 0C17.9696 0 19.9559 1.9595 19.9993 4.39318H19.3489C19.3056 2.31897 17.6107 0.650823 15.5261 0.650823C13.4415 0.650823 11.7465 2.31897 11.7032 4.39318H11.0517Z" fill="white"/>
</svg>
