<svg width="48" height="48" viewBox="0 0 48 48" fill="none" xmlns="http://www.w3.org/2000/svg">
<rect x="4" y="10" width="25.1351" height="30.8108" rx="8" fill="#34C672" fill-opacity="0.32"/>
<path d="M26.75 4H11.75C10.7554 4 9.80161 4.39509 9.09835 5.09835C8.39509 5.80161 8 6.75544 8 7.75V37.75C8 38.7446 8.39509 39.6984 9.09835 40.4016C9.80161 41.1049 10.7554 41.5 11.75 41.5H34.25C35.2446 41.5 36.1984 41.1049 36.9016 40.4016C37.6049 39.6984 38 38.7446 38 37.75V15.25L26.75 4Z" stroke="#34C672" stroke-width="4" stroke-linecap="round" stroke-linejoin="round"/>
<path d="M26.75 4V15.25H38" stroke="#34C672" stroke-width="4" stroke-linecap="round" stroke-linejoin="round"/>
<path d="M30.5 24.625H15.5" stroke="#34C672" stroke-width="4" stroke-linecap="round" stroke-linejoin="round"/>
<path d="M30.5 32.125H15.5" stroke="#34C672" stroke-width="4" stroke-linecap="round" stroke-linejoin="round"/>
<path d="M19.25 17.125H17.375H15.5" stroke="#34C672" stroke-width="4" stroke-linecap="round" stroke-linejoin="round"/>
</svg>
