<svg width="28" height="28" viewBox="0 0 28 28" fill="none" xmlns="http://www.w3.org/2000/svg">
<rect x="9.88232" y="9.11768" width="8.23529" height="14.1176" fill="#4EA8DC" fill-opacity="0.32"/>
<path d="M22 9H6C4.89543 9 4 9.89543 4 11V21C4 22.1046 4.89543 23 6 23H22C23.1046 23 24 22.1046 24 21V11C24 9.89543 23.1046 9 22 9Z" stroke="#3374B9" stroke-width="3" stroke-linecap="round" stroke-linejoin="round"/>
<path d="M18 23V7C18 6.46957 17.7893 5.96086 17.4142 5.58579C17.0391 5.21071 16.5304 5 16 5H12C11.4696 5 10.9609 5.21071 10.5858 5.58579C10.2107 5.96086 10 6.46957 10 7V23" stroke="#3374B9" stroke-width="3" stroke-linecap="round" stroke-linejoin="round"/>
</svg>
