<svg width="24" height="24" viewBox="0 0 24 24" fill="none" xmlns="http://www.w3.org/2000/svg">
<rect x="5.11768" y="8.82349" width="10.0588" height="4.76471" rx="1" fill="white" fill-opacity="0.32"/>
<path d="M9.54548 20.1818C9.99735 20.1818 10.3637 19.8155 10.3637 19.3636C10.3637 18.9117 9.99735 18.5454 9.54548 18.5454C9.09361 18.5454 8.72729 18.9117 8.72729 19.3636C8.72729 19.8155 9.09361 20.1818 9.54548 20.1818Z" stroke="white" stroke-width="2" stroke-linecap="round" stroke-linejoin="round"/>
<path d="M18.5455 20.1818C18.9973 20.1818 19.3637 19.8155 19.3637 19.3636C19.3637 18.9117 18.9973 18.5454 18.5455 18.5454C18.0936 18.5454 17.7273 18.9117 17.7273 19.3636C17.7273 19.8155 18.0936 20.1818 18.5455 20.1818Z" stroke="white" stroke-width="2" stroke-linecap="round" stroke-linejoin="round"/>
<path d="M3 3H6.27273L8.46545 13.9555C8.54027 14.3321 8.7452 14.6705 9.04436 14.9113C9.34351 15.1522 9.71784 15.2801 10.1018 15.2727H18.0545C18.4385 15.2801 18.8129 15.1522 19.112 14.9113C19.4112 14.6705 19.6161 14.3321 19.6909 13.9555L21 7.09091H7.09091" stroke="white" stroke-width="2" stroke-linecap="round" stroke-linejoin="round"/>
</svg>
