<svg width="48" height="48" viewBox="0 0 48 48" fill="none" xmlns="http://www.w3.org/2000/svg">
<circle cx="23.9999" cy="24" r="10.3529" fill="#34C672" fill-opacity="0.32"/>
<path d="M40 22.5372V24.0092C39.998 27.4594 38.8808 30.8166 36.8149 33.5801C34.7491 36.3435 31.8452 38.3651 28.5366 39.3434C25.2279 40.3217 21.6916 40.2042 18.4551 39.0085C15.2187 37.8128 12.4554 35.6029 10.5775 32.7085C8.69963 29.814 7.80767 26.3901 8.03468 22.9473C8.2617 19.5045 9.59553 16.2273 11.8372 13.6045C14.079 10.9817 17.1085 9.15377 20.4739 8.39339C23.8393 7.63301 27.3604 7.9809 30.512 9.38516" stroke="#34C672" stroke-width="4" stroke-linecap="round" stroke-linejoin="round"/>
<path d="M39.9999 11.2092L23.9999 27.2251L19.2 22.4252" stroke="#34C672" stroke-width="4" stroke-linecap="round" stroke-linejoin="round"/>
</svg>
