<svg width="28" height="28" viewBox="0 0 28 28" fill="none" xmlns="http://www.w3.org/2000/svg">
<path d="M26.4442 23.9999V21.7777C26.4434 20.793 26.1157 19.8364 25.5124 19.0581C24.909 18.2798 24.0643 17.7239 23.1108 17.4777" stroke="#3374B9" stroke-width="3" stroke-linecap="round" stroke-linejoin="round"/>
<path d="M18.6665 4.14441C19.6225 4.38919 20.4699 4.94519 21.075 5.72475C21.6801 6.50432 22.0086 7.46311 22.0086 8.44996C22.0086 9.43682 21.6801 10.3956 21.075 11.1752C20.4699 11.9547 19.6225 12.5107 18.6665 12.7555" stroke="#3374B9" stroke-width="3" stroke-linecap="round" stroke-linejoin="round"/>
<path d="M19.7778 24V21.7778C19.7778 20.599 19.3095 19.4686 18.476 18.6351C17.6425 17.8016 16.5121 17.3333 15.3333 17.3333H6.44444C5.2657 17.3333 4.13524 17.8016 3.30175 18.6351C2.46825 19.4686 2 20.599 2 21.7778V24" stroke="#3374B9" stroke-width="3" stroke-linecap="round" stroke-linejoin="round"/>
<circle cx="10.8889" cy="8.44443" r="3.88889" fill="#4EA8DC" fill-opacity="0.32"/>
<path d="M10.8888 12.8889C13.3434 12.8889 15.3332 10.899 15.3332 8.44444C15.3332 5.98985 13.3434 4 10.8888 4C8.43418 4 6.44434 5.98985 6.44434 8.44444C6.44434 10.899 8.43418 12.8889 10.8888 12.8889Z" stroke="#3374B9" stroke-width="3" stroke-linecap="round" stroke-linejoin="round"/>
</svg>
