<svg width="24" height="24" viewBox="0 0 24 24" fill="none" xmlns="http://www.w3.org/2000/svg">
<rect x="6" y="3" width="6" height="10" rx="1" fill="white" fill-opacity="0.32"/>
<path d="M15.2728 5.64697H3V16.2834H15.2728V5.64697Z" stroke="white" stroke-width="2" stroke-linecap="round" stroke-linejoin="round"/>
<path d="M15.2727 9.73804H18.5454L21 12.1926V16.2835H15.2727V9.73804Z" stroke="white" stroke-width="2" stroke-linecap="round" stroke-linejoin="round"/>
<path d="M6.68169 20.3744C7.81137 20.3744 8.72715 19.4586 8.72715 18.3289C8.72715 17.1992 7.81137 16.2834 6.68169 16.2834C5.55201 16.2834 4.63623 17.1992 4.63623 18.3289C4.63623 19.4586 5.55201 20.3744 6.68169 20.3744Z" stroke="white" stroke-width="2" stroke-linecap="round" stroke-linejoin="round"/>
<path d="M17.3182 20.3744C18.4478 20.3744 19.3636 19.4586 19.3636 18.3289C19.3636 17.1992 18.4478 16.2834 17.3182 16.2834C16.1885 16.2834 15.2727 17.1992 15.2727 18.3289C15.2727 19.4586 16.1885 20.3744 17.3182 20.3744Z" stroke="white" stroke-width="2" stroke-linecap="round" stroke-linejoin="round"/>
</svg>
