<svg width="28" height="28" viewBox="0 0 28 28" fill="none" xmlns="http://www.w3.org/2000/svg">
<rect x="11.6" y="6.4" width="4.8" height="7.8" rx="2.4" fill="#4EA8DC" fill-opacity="0.32"/>
<path d="M21 13H7C5.89543 13 5 13.8954 5 15V22C5 23.1046 5.89543 24 7 24H21C22.1046 24 23 23.1046 23 22V15C23 13.8954 22.1046 13 21 13Z" stroke="#3374B9" stroke-width="3" stroke-linecap="round" stroke-linejoin="round"/>
<path d="M8.99991 13V9C8.99991 7.67392 9.52669 6.40215 10.4644 5.46447C11.4021 4.52678 12.6738 4 13.9999 4C15.326 4 16.5978 4.52678 17.5354 5.46447C18.4731 6.40215 18.9999 7.67392 18.9999 9V13" stroke="#3374B9" stroke-width="3" stroke-linecap="round" stroke-linejoin="round"/>
</svg>
