<svg width="48" height="48" viewBox="0 0 48 48" fill="none" xmlns="http://www.w3.org/2000/svg">
<rect x="18.9949" y="6" width="10.1496" height="22.1445" rx="5.07478" fill="#EB7500" fill-opacity="0.32"/>
<mask id="path-2-outside-1_30_348" maskUnits="userSpaceOnUse" x="6" y="9.61343" width="36" height="33" fill="black">
<rect fill="white" x="6" y="9.61343" width="36" height="33"/>
<path fill-rule="evenodd" clip-rule="evenodd" d="M33.9776 25.4401C35.6208 25.1787 37.0027 24.4691 38.1231 23.3114C41.0637 20.2618 41.0047 15.0243 40.9991 14.5283C40.9989 14.5141 40.9988 14.5038 40.9988 14.4975C40.9614 13.7879 40.4012 13.2277 39.6917 13.2277H34.0896V12.1073C34.0896 11.2857 33.4547 10.6134 32.6331 10.6134H15.3789C14.5572 10.6134 13.9223 11.2857 13.9223 12.1073V13.2277H8.32032C7.61073 13.2277 7.05053 13.7879 7.01318 14.4975C6.97583 14.7216 6.82645 20.1369 9.88889 23.3114C11.0466 24.5065 12.4285 25.1787 14.0717 25.4401C14.8934 30.4446 18.404 32.9842 22.5121 33.507V38.997H19.3376C18.516 38.997 17.8438 39.6693 17.8438 40.4909C17.8438 41.3125 18.516 41.9848 19.3376 41.9848H28.7117C29.5333 41.9848 30.2056 41.3125 30.2056 40.4909C30.2056 39.6693 29.5333 38.997 28.7117 38.997H25.4999V33.507C29.608 32.9842 33.156 30.4446 33.9776 25.4401ZM13.9223 22.7512C13.1754 22.5644 12.3911 22.1163 11.7936 21.5187C10.2624 19.9128 9.81419 17.3359 9.6648 15.842H13.9223V22.7512ZM16.9101 13.6012H31.1019V23.274C31.1019 28.652 27.4419 30.594 24.006 30.594C20.5701 30.594 16.9101 28.6893 16.9101 23.274V13.6012ZM38.3472 15.842C38.1978 17.7093 37.6749 20.0248 36.2184 21.5187C35.6208 22.1163 34.8366 22.5271 34.0896 22.7512V15.842H38.3472Z"/>
</mask>
<path fill-rule="evenodd" clip-rule="evenodd" d="M33.9776 25.4401C35.6208 25.1787 37.0027 24.4691 38.1231 23.3114C41.0637 20.2618 41.0047 15.0243 40.9991 14.5283C40.9989 14.5141 40.9988 14.5038 40.9988 14.4975C40.9614 13.7879 40.4012 13.2277 39.6917 13.2277H34.0896V12.1073C34.0896 11.2857 33.4547 10.6134 32.6331 10.6134H15.3789C14.5572 10.6134 13.9223 11.2857 13.9223 12.1073V13.2277H8.32032C7.61073 13.2277 7.05053 13.7879 7.01318 14.4975C6.97583 14.7216 6.82645 20.1369 9.88889 23.3114C11.0466 24.5065 12.4285 25.1787 14.0717 25.4401C14.8934 30.4446 18.404 32.9842 22.5121 33.507V38.997H19.3376C18.516 38.997 17.8438 39.6693 17.8438 40.4909C17.8438 41.3125 18.516 41.9848 19.3376 41.9848H28.7117C29.5333 41.9848 30.2056 41.3125 30.2056 40.4909C30.2056 39.6693 29.5333 38.997 28.7117 38.997H25.4999V33.507C29.608 32.9842 33.156 30.4446 33.9776 25.4401ZM13.9223 22.7512C13.1754 22.5644 12.3911 22.1163 11.7936 21.5187C10.2624 19.9128 9.81419 17.3359 9.6648 15.842H13.9223V22.7512ZM16.9101 13.6012H31.1019V23.274C31.1019 28.652 27.4419 30.594 24.006 30.594C20.5701 30.594 16.9101 28.6893 16.9101 23.274V13.6012ZM38.3472 15.842C38.1978 17.7093 37.6749 20.0248 36.2184 21.5187C35.6208 22.1163 34.8366 22.5271 34.0896 22.7512V15.842H38.3472Z" fill="#EB7500"/>
<path d="M38.1231 23.3114L38.3027 23.4852L38.303 23.4849L38.1231 23.3114ZM33.9776 25.4401L33.9383 25.1932L33.7601 25.2216L33.7309 25.3996L33.9776 25.4401ZM40.9991 14.5283L40.7491 14.5312V14.5312L40.9991 14.5283ZM40.9988 14.4975H41.2491L41.2484 14.4844L40.9988 14.4975ZM34.0896 13.2277H33.8396V13.4777H34.0896V13.2277ZM13.9223 13.2277V13.4777H14.1723V13.2277H13.9223ZM7.01318 14.4975L7.25978 14.5386L7.26209 14.5247L7.26283 14.5106L7.01318 14.4975ZM9.88889 23.3114L9.70896 23.4849L9.70933 23.4853L9.88889 23.3114ZM14.0717 25.4401L14.3184 25.3996L14.2892 25.2216L14.111 25.1932L14.0717 25.4401ZM22.5121 33.507H22.7621V33.2868L22.5437 33.259L22.5121 33.507ZM22.5121 38.997V39.247H22.7621V38.997H22.5121ZM25.4999 38.997H25.2499V39.247H25.4999V38.997ZM25.4999 33.507L25.4683 33.259L25.2499 33.2868V33.507H25.4999ZM11.7936 21.5187L11.6126 21.6913L11.6168 21.6955L11.7936 21.5187ZM13.9223 22.7512L13.8617 22.9937L14.1723 23.0713V22.7512H13.9223ZM9.6648 15.842V15.592H9.38856L9.41604 15.8669L9.6648 15.842ZM13.9223 15.842H14.1723V15.592H13.9223V15.842ZM31.1019 13.6012H31.3519V13.3512H31.1019V13.6012ZM16.9101 13.6012V13.3512H16.6601V13.6012H16.9101ZM36.2184 21.5187L36.3952 21.6955L36.3974 21.6932L36.2184 21.5187ZM38.3472 15.842L38.5964 15.8619L38.618 15.592H38.3472V15.842ZM34.0896 22.7512H33.8396V23.0872L34.1615 22.9906L34.0896 22.7512ZM34.0896 15.842V15.592H33.8396V15.842H34.0896ZM37.9434 23.1375C36.862 24.255 35.53 24.94 33.9383 25.1932L34.0169 25.687C35.7117 25.4174 37.1434 24.6832 38.3027 23.4852L37.9434 23.1375ZM40.7491 14.5312C40.7518 14.7725 40.7679 16.1857 40.4208 17.913C40.0729 19.6448 39.3657 21.6625 37.9431 23.1378L38.303 23.4849C39.821 21.9107 40.5547 19.7849 40.911 18.0115C41.2682 16.2337 41.2519 14.7802 41.2491 14.5255L40.7491 14.5312ZM40.7488 14.4975C40.7488 14.5056 40.7489 14.5178 40.7491 14.5312L41.2491 14.5255C41.2489 14.5104 41.2488 14.502 41.2488 14.4975H40.7488ZM39.6917 13.4777C40.2609 13.4777 40.7184 13.9263 40.7491 14.5106L41.2484 14.4844C41.2045 13.6495 40.5416 12.9777 39.6917 12.9777V13.4777ZM34.0896 13.4777H39.6917V12.9777H34.0896V13.4777ZM33.8396 12.1073V13.2277H34.3396V12.1073H33.8396ZM32.6331 10.8634C33.3085 10.8634 33.8396 11.4154 33.8396 12.1073H34.3396C34.3396 11.1559 33.601 10.3634 32.6331 10.3634V10.8634ZM15.3789 10.8634H32.6331V10.3634H15.3789V10.8634ZM14.1723 12.1073C14.1723 11.4154 14.7035 10.8634 15.3789 10.8634V10.3634C14.411 10.3634 13.6723 11.1559 13.6723 12.1073H14.1723ZM14.1723 13.2277V12.1073H13.6723V13.2277H14.1723ZM8.32032 13.4777H13.9223V12.9777H8.32032V13.4777ZM7.26283 14.5106C7.29359 13.9263 7.75107 13.4777 8.32032 13.4777V12.9777C7.47039 12.9777 6.80747 13.6495 6.76353 14.4844L7.26283 14.5106ZM10.0688 23.1378C8.58589 21.6006 7.8708 19.508 7.53415 17.751C7.36636 16.8753 7.29394 16.0901 7.2658 15.5107C7.25174 15.2211 7.24877 14.9836 7.2504 14.8127C7.25122 14.7273 7.25318 14.6591 7.25542 14.6099C7.25792 14.5549 7.26031 14.5354 7.25978 14.5386L6.76658 14.4564C6.7581 14.5073 6.75206 14.6371 6.75043 14.808C6.7487 14.9886 6.75186 15.2357 6.76639 15.5349C6.79544 16.1331 6.87007 16.9421 7.04308 17.8451C7.388 19.6453 8.12944 21.8476 9.70896 23.4849L10.0688 23.1378ZM14.111 25.1932C12.5165 24.9396 11.1854 24.2904 10.0684 23.1374L9.70933 23.4853C10.9079 24.7225 12.3404 25.4178 14.0325 25.687L14.111 25.1932ZM22.5437 33.259C20.5304 33.0028 18.6753 32.254 17.2254 30.9672C15.7776 29.6823 14.7206 27.8495 14.3184 25.3996L13.825 25.4806C14.2444 28.0352 15.3536 29.9745 16.8935 31.3412C18.4314 32.706 20.3857 33.4884 22.4805 33.755L22.5437 33.259ZM22.7621 38.997V33.507H22.2621V38.997H22.7621ZM19.3376 39.247H22.5121V38.747H19.3376V39.247ZM18.0938 40.4909C18.0938 39.8073 18.6541 39.247 19.3376 39.247V38.747C18.3779 38.747 17.5938 39.5312 17.5938 40.4909H18.0938ZM19.3376 41.7348C18.6541 41.7348 18.0938 41.1745 18.0938 40.4909H17.5938C17.5938 41.4506 18.3779 42.2348 19.3376 42.2348V41.7348ZM28.7117 41.7348H19.3376V42.2348H28.7117V41.7348ZM29.9556 40.4909C29.9556 41.1745 29.3952 41.7348 28.7117 41.7348V42.2348C29.6714 42.2348 30.4556 41.4506 30.4556 40.4909H29.9556ZM28.7117 39.247C29.3952 39.247 29.9556 39.8073 29.9556 40.4909H30.4556C30.4556 39.5312 29.6714 38.747 28.7117 38.747V39.247ZM25.4999 39.247H28.7117V38.747H25.4999V39.247ZM25.2499 33.507V38.997H25.7499V33.507H25.2499ZM33.7309 25.3996C32.9301 30.2772 29.4857 32.7477 25.4683 33.259L25.5314 33.755C29.7304 33.2206 33.3818 30.612 34.2243 25.4806L33.7309 25.3996ZM11.6168 21.6955C12.2444 22.3231 13.0681 22.7953 13.8617 22.9937L13.983 22.5086C13.2827 22.3335 12.5379 21.9094 11.9704 21.3419L11.6168 21.6955ZM9.41604 15.8669C9.56566 17.363 10.0177 20.0185 11.6126 21.6912L11.9745 21.3462C10.507 19.8071 10.0627 17.3087 9.91356 15.8171L9.41604 15.8669ZM13.9223 15.592H9.6648V16.092H13.9223V15.592ZM14.1723 22.7512V15.842H13.6723V22.7512H14.1723ZM31.1019 13.3512H16.9101V13.8512H31.1019V13.3512ZM31.3519 23.274V13.6012H30.8519V23.274H31.3519ZM24.006 30.844C25.7673 30.844 27.6045 30.3466 29.0055 29.1402C30.4132 27.928 31.3519 26.0245 31.3519 23.274H30.8519C30.8519 25.9015 29.9606 27.6579 28.6793 28.7613C27.3913 29.8704 25.6806 30.344 24.006 30.344V30.844ZM16.6601 23.274C16.6601 26.0426 17.5985 27.9467 19.0068 29.1545C20.4083 30.3565 22.2457 30.844 24.006 30.844V30.344C22.3303 30.344 20.6198 29.8792 19.3323 28.775C18.0517 27.6766 17.1601 25.9207 17.1601 23.274H16.6601ZM16.6601 13.6012V23.274H17.1601V13.6012H16.6601ZM36.3974 21.6932C37.917 20.1347 38.4458 17.7446 38.5964 15.8619L38.098 15.8221C37.9498 17.6741 37.4329 19.915 36.0394 21.3442L36.3974 21.6932ZM34.1615 22.9906C34.9395 22.7572 35.7626 22.328 36.3952 21.6955L36.0416 21.3419C35.4791 21.9045 34.7337 22.2969 34.0178 22.5117L34.1615 22.9906ZM33.8396 15.842V22.7512H34.3396V15.842H33.8396ZM38.3472 15.592H34.0896V16.092H38.3472V15.592Z" fill="#EB7500" mask="url(#path-2-outside-1_30_348)"/>
</svg>
