<svg width="28" height="28" viewBox="0 0 28 28" fill="none" xmlns="http://www.w3.org/2000/svg">
<path d="M22.7778 24V21.7778C22.7778 20.599 22.3095 19.4686 21.476 18.6351C20.6425 17.8016 19.5121 17.3333 18.3333 17.3333H9.44444C8.2657 17.3333 7.13524 17.8016 6.30175 18.6351C5.46825 19.4686 5 20.599 5 21.7778V24" stroke="#3374B9" stroke-width="3" stroke-linecap="round" stroke-linejoin="round"/>
<circle cx="13.8889" cy="8.44445" r="3.88889" fill="#4EA8DC" fill-opacity="0.32"/>
<path d="M13.8889 12.8889C16.3435 12.8889 18.3333 10.899 18.3333 8.44444C18.3333 5.98985 16.3435 4 13.8889 4C11.4343 4 9.44446 5.98985 9.44446 8.44444C9.44446 10.899 11.4343 12.8889 13.8889 12.8889Z" stroke="#3374B9" stroke-width="3" stroke-linecap="round" stroke-linejoin="round"/>
</svg>
