<svg width="24" height="24" viewBox="0 0 24 24" fill="none" xmlns="http://www.w3.org/2000/svg">
<rect x="9.27271" y="13" width="5.45455" height="8.18182" rx="1" fill="white" fill-opacity="0.32"/>
<path d="M21.0909 3H2.90909C2.66799 3 2.43675 3.09578 2.26627 3.26627C2.09578 3.43675 2 3.66798 2 3.90909V7.54545C2.00158 8.10813 2.17716 8.65655 2.50267 9.11551C2.82818 9.57448 3.28768 9.92153 3.81818 10.1091V20.2727C3.81818 20.5138 3.91396 20.7451 4.08445 20.9156C4.25494 21.086 4.48617 21.1818 4.72727 21.1818H19.2727C19.5138 21.1818 19.7451 21.086 19.9156 20.9156C20.086 20.7451 20.1818 20.5138 20.1818 20.2727V10.1091C20.7123 9.92153 21.1718 9.57448 21.4973 9.11551C21.8228 8.65655 21.9984 8.10813 22 7.54545V3.90909C22 3.66798 21.9042 3.43675 21.7337 3.26627C21.5632 3.09578 21.332 3 21.0909 3V3ZM14.7273 4.81818H16.5455V7.54545C16.5455 7.78656 16.4497 8.01779 16.2792 8.18828C16.1087 8.35877 15.8775 8.45455 15.6364 8.45455C15.3953 8.45455 15.164 8.35877 14.9935 8.18828C14.8231 8.01779 14.7273 7.78656 14.7273 7.54545V4.81818ZM11.0909 4.81818H12.9091V7.54545C12.9091 7.78656 12.8133 8.01779 12.6428 8.18828C12.4723 8.35877 12.2411 8.45455 12 8.45455C11.7589 8.45455 11.5277 8.35877 11.3572 8.18828C11.1867 8.01779 11.0909 7.78656 11.0909 7.54545V4.81818ZM7.45455 4.81818H9.27273V7.54545C9.27273 7.78656 9.17695 8.01779 9.00646 8.18828C8.83597 8.35877 8.60474 8.45455 8.36364 8.45455C8.12253 8.45455 7.8913 8.35877 7.72081 8.18828C7.55032 8.01779 7.45455 7.78656 7.45455 7.54545V4.81818ZM4.72727 8.45455C4.48617 8.45455 4.25494 8.35877 4.08445 8.18828C3.91396 8.01779 3.81818 7.78656 3.81818 7.54545V4.81818H5.63636V7.54545C5.63636 7.78656 5.54058 8.01779 5.3701 8.18828C5.19961 8.35877 4.96838 8.45455 4.72727 8.45455ZM13.8182 19.3636H10.1818V15.7273C10.1818 15.2451 10.3734 14.7826 10.7144 14.4416C11.0553 14.1006 11.5178 13.9091 12 13.9091C12.4822 13.9091 12.9447 14.1006 13.2856 14.4416C13.6266 14.7826 13.8182 15.2451 13.8182 15.7273V19.3636ZM18.3636 19.3636H15.6364V15.7273C15.6364 14.7628 15.2532 13.8379 14.5713 13.156C13.8893 12.474 12.9644 12.0909 12 12.0909C11.0356 12.0909 10.1107 12.474 9.4287 13.156C8.74675 13.8379 8.36364 14.7628 8.36364 15.7273V19.3636H5.63636V10.1091C5.97052 9.98506 6.27876 9.80011 6.54545 9.56364C7.04547 10.0109 7.69279 10.2581 8.36364 10.2581C9.03448 10.2581 9.6818 10.0109 10.1818 9.56364C10.6818 10.0109 11.3292 10.2581 12 10.2581C12.6708 10.2581 13.3182 10.0109 13.8182 9.56364C14.3182 10.0109 14.9655 10.2581 15.6364 10.2581C16.3072 10.2581 16.9545 10.0109 17.4545 9.56364C17.7212 9.80011 18.0295 9.98506 18.3636 10.1091V19.3636ZM20.1818 7.54545C20.1818 7.78656 20.086 8.01779 19.9156 8.18828C19.7451 8.35877 19.5138 8.45455 19.2727 8.45455C19.0316 8.45455 18.8004 8.35877 18.6299 8.18828C18.4594 8.01779 18.3636 7.78656 18.3636 7.54545V4.81818H20.1818V7.54545Z" fill="white"/>
</svg>
